<svg width="1003" height="820" viewBox="0 0 1003 820" fill="none" xmlns="http://www.w3.org/2000/svg">
<path d="M300 111.5C426.167 50.1667 719.4 -42.6999 883 76.5001C1046.6 195.7 1003.83 411.167 962 504M669 504C439 537 371 405 182 453C-17.8853 503.765 -10.9999 674 17.0001 734C45.0001 794 135 840 195.5 805.5" stroke="#255EB1" stroke-width="4" stroke-dasharray="8 12"/>
<g clip-path="url(#clip0)">
<path d="M819.958 17.0247C822.837 10.0776 830.871 6.95111 837.818 9.83084C844.765 12.7106 848.131 20.8431 845.251 27.7902C845.052 28.2693 844.953 28.5088 844.755 28.9879C848.751 32.8904 850.359 39.171 847.975 44.9203C847.082 47.0763 845.808 48.7941 844.055 50.3134C843.857 50.7925 843.758 51.032 843.419 51.1723L807.378 75.8137C806.94 76.1935 806.362 76.2345 805.883 76.0359L805.643 75.9366L802.108 73.6291C801.629 73.4305 801.348 72.7528 801.308 72.1744L802.63 31.7379C802.466 29.4243 802.641 26.9704 803.535 24.8144C806.356 18.6853 813.332 15.4011 819.958 17.0247Z" fill="#F8F2E3"/>
<path d="M842.517 49.9572L806.477 74.5986L802.942 72.2912L804.439 29.4008L842.517 49.9572Z" stroke="#255EB1" stroke-width="3.11184" stroke-miterlimit="10" stroke-linecap="round" stroke-linejoin="round"/>
<path d="M836.643 53.978C835.585 53.8204 803.795 46.5377 803.795 46.5377" stroke="#255EB1" stroke-width="3.11184" stroke-miterlimit="10" stroke-linecap="round" stroke-linejoin="round"/>
<path d="M803.38 60.4024L821.3 63.9004" stroke="#255EB1" stroke-width="3.11184" stroke-miterlimit="10" stroke-linecap="round" stroke-linejoin="round"/>
<path d="M815.682 35.4646L809.206 72.0806" stroke="#255EB1" stroke-width="3.11184" stroke-miterlimit="10" stroke-linecap="round" stroke-linejoin="round"/>
<path d="M828.262 42.3629C828.162 42.6024 823.233 63.2973 823.233 63.2973" stroke="#255EB1" stroke-width="3.11184" stroke-miterlimit="10" stroke-linecap="round" stroke-linejoin="round"/>
<path d="M828.395 27.8212C827.53 23.8133 824.97 20.5066 821.138 18.9178L820.898 18.8185C820.997 18.579 821.196 18.0999 821.295 17.8603C823.877 11.6319 830.993 8.68657 837.221 11.2684C843.45 13.8502 846.395 20.9662 843.813 27.1946C843.515 27.9133 843.218 28.6319 842.68 29.2513C841.821 28.6145 840.723 27.8785 839.525 27.382C835.692 25.7931 831.643 26.0798 828.395 27.8212Z" stroke="#255EB1" stroke-width="3.11184" stroke-miterlimit="10" stroke-linecap="round" stroke-linejoin="round"/>
<path d="M821.614 38.7656C821.631 37.3692 821.988 35.8326 822.583 34.3953C825.364 27.6877 832.819 24.6022 839.526 27.3826C846.234 30.163 849.319 37.6179 846.539 44.3254C845.645 46.4814 844.033 48.3394 842.28 49.8587L821.614 38.7656Z" stroke="#255EB1" stroke-width="3.11184" stroke-miterlimit="10" stroke-linecap="round" stroke-linejoin="round"/>
<path d="M805.112 25.7489C807.694 19.5205 814.81 16.5752 821.038 19.157C824.871 20.7459 827.67 24.1518 828.296 28.0604C825.725 29.5213 823.435 31.6599 822.243 34.5345C821.647 35.9719 821.39 37.2689 821.274 38.9049L804.102 29.5409L803.927 31.9948C804.002 29.7804 804.318 27.6654 805.112 25.7489Z" stroke="#255EB1" stroke-width="3.11184" stroke-miterlimit="10" stroke-linecap="round" stroke-linejoin="round"/>
</g>
<g clip-path="url(#clip1)">
<path d="M61.2543 481.651C57.9798 474.881 60.9855 466.802 67.7555 463.528C74.5255 460.253 82.8381 463.146 86.1126 469.916C86.3384 470.383 86.4513 470.616 86.6772 471.083C92.2494 470.693 98.0094 473.668 100.719 479.27C101.736 481.371 102.172 483.465 102.141 485.784C102.367 486.251 102.48 486.484 102.36 486.831L96.8034 530.135C96.7958 530.715 96.4418 531.174 95.9749 531.4L95.7415 531.513L91.6676 532.619C91.2007 532.845 90.5079 532.604 90.0487 532.25L60.7237 504.377C58.8866 502.961 57.17 501.199 56.1538 499.098C53.4515 492.915 55.6364 485.521 61.2543 481.651Z" fill="#F8F2E3"/>
<path d="M100.852 486.696L95.2959 530L91.222 531.106L60.1804 501.471L100.852 486.696Z" stroke="#255EB1" stroke-width="3.11184" stroke-miterlimit="10" stroke-linecap="round" stroke-linejoin="round"/>
<path d="M99.9492 493.758C99.1283 494.443 72.5521 513.347 72.5521 513.347" stroke="#255EB1" stroke-width="3.11184" stroke-miterlimit="10" stroke-linecap="round" stroke-linejoin="round"/>
<path d="M82.6331 522.874L97.1602 511.815" stroke="#255EB1" stroke-width="3.11184" stroke-miterlimit="10" stroke-linecap="round" stroke-linejoin="round"/>
<path d="M72.185 497.105L95.2298 526.288" stroke="#255EB1" stroke-width="3.11184" stroke-miterlimit="10" stroke-linecap="round" stroke-linejoin="round"/>
<path d="M85.7015 492.296C85.8144 492.529 97.9952 509.97 97.9952 509.97" stroke="#255EB1" stroke-width="3.11184" stroke-miterlimit="10" stroke-linecap="round" stroke-linejoin="round"/>
<path d="M74.9279 482.528C71.359 480.509 67.1875 480.222 63.4523 482.029L63.2189 482.142C63.106 481.908 62.8801 481.441 62.7672 481.208C59.8315 475.138 62.3627 467.865 68.4323 464.929C74.5019 461.993 81.7755 464.524 84.7112 470.594C85.05 471.294 85.3887 471.995 85.494 472.808C84.4473 473.026 83.1672 473.357 81.9999 473.922C78.2648 475.729 75.7869 478.943 74.9279 482.528Z" stroke="#255EB1" stroke-width="3.11184" stroke-miterlimit="10" stroke-linecap="round" stroke-linejoin="round"/>
<path d="M78.5947 494.869C77.5632 493.928 76.6523 492.64 75.9748 491.239C72.8132 484.703 75.465 477.083 82.0015 473.921C88.538 470.759 96.1579 473.411 99.3195 479.948C100.336 482.049 100.652 484.489 100.621 486.808L78.5947 494.869Z" stroke="#255EB1" stroke-width="3.11184" stroke-miterlimit="10" stroke-linecap="round" stroke-linejoin="round"/>
<path d="M57.8994 498.541C54.9637 492.472 57.4949 485.198 63.5645 482.263C67.2997 480.456 71.7047 480.63 75.0401 482.761C74.4222 485.653 74.497 488.785 75.852 491.587C76.5295 492.987 77.3275 494.042 78.4719 495.216L60.06 501.817L61.7766 503.58C60.173 502.051 58.8028 500.409 57.8994 498.541Z" stroke="#255EB1" stroke-width="3.11184" stroke-miterlimit="10" stroke-linecap="round" stroke-linejoin="round"/>
</g>
<defs>
<clipPath id="clip0">
<rect width="48.4929" height="73.3876" fill="white" transform="matrix(-0.923778 -0.382928 -0.382928 0.923778 858.898 18.5693)"/>
</clipPath>
<clipPath id="clip1">
<rect width="48.4929" height="73.3876" fill="white" transform="matrix(-0.900227 0.435422 0.435422 0.900227 88.2988 453.591)"/>
</clipPath>
</defs>
</svg>
