<svg width="381" height="336" viewBox="0 0 381 336" fill="none" xmlns="http://www.w3.org/2000/svg">
<path d="M1.46229 47.7899C0.518035 48.3631 0.217164 49.5931 0.790276 50.5374L10.1297 65.9249C10.7028 66.8692 11.9329 67.17 12.8771 66.5969C13.8214 66.0238 14.1222 64.7937 13.5491 63.8495L5.24743 50.1717L18.9252 41.87C19.8695 41.2969 20.1704 40.0668 19.5972 39.1226C19.0241 38.1783 17.7941 37.8774 16.8498 38.4506L1.46229 47.7899ZM317.4 82.5201L316.146 84.0785L317.4 82.5201ZM315.406 332.345C315.32 333.446 316.144 334.408 317.245 334.494L335.191 335.886C336.292 335.972 337.254 335.148 337.34 334.047C337.425 332.946 336.602 331.984 335.501 331.898L319.549 330.66L320.786 314.708C320.872 313.607 320.048 312.645 318.947 312.56C317.846 312.474 316.884 313.298 316.798 314.399L315.406 332.345ZM2.02481 51.4424C3.36271 51.7696 4.69631 52.0867 6.02567 52.3938L6.92593 48.4964C5.61325 48.1932 4.29635 47.8801 2.97519 47.5569L2.02481 51.4424ZM17.9689 54.9124C20.6517 55.4246 23.317 55.8976 25.965 56.3336L26.6148 52.3867C23.9999 51.9562 21.3681 51.4891 18.7191 50.9834L17.9689 54.9124ZM38.0499 58.0878C40.7716 58.4305 43.4749 58.736 46.1602 59.0065L46.5612 55.0267C43.9082 54.7594 41.2379 54.4577 38.5496 54.1192L38.0499 58.0878ZM58.3231 60.0095C61.0492 60.1854 63.7564 60.3277 66.4453 60.4391L66.6109 56.4425C63.9518 56.3323 61.2752 56.1916 58.5806 56.0178L58.3231 60.0095ZM78.6428 60.7434C81.3675 60.7676 84.0732 60.7631 86.7604 60.733L86.7155 56.7332C84.0541 56.7631 81.3752 56.7675 78.6784 56.7435L78.6428 60.7434ZM98.9533 60.4251C101.671 60.32 104.37 60.1922 107.051 60.0452L106.832 56.0512C104.171 56.1971 101.494 56.3239 98.7987 56.4281L98.9533 60.4251ZM119.213 59.247C121.925 59.0418 124.619 58.8213 127.294 58.589L126.948 54.604C124.286 54.8351 121.607 55.0544 118.911 55.2583L119.213 59.247ZM139.405 57.4574C142.109 57.1894 144.794 56.9147 147.461 56.6372L147.047 52.6587C144.385 52.9357 141.706 53.2097 139.01 53.4769L139.405 57.4574ZM159.538 55.3627C162.234 55.0772 164.912 54.7952 167.572 54.5208L167.162 50.5419C164.496 50.8169 161.814 51.0993 159.117 51.385L159.538 55.3627ZM179.64 53.3327C182.334 53.0839 185.01 52.8502 187.67 52.6364L187.349 48.6492C184.671 48.8646 181.979 49.0997 179.272 49.3497L179.64 53.3327ZM199.736 51.812C202.43 51.6649 205.108 51.5465 207.77 51.4619L207.643 47.4639C204.948 47.5496 202.24 47.6694 199.518 47.818L199.736 51.812ZM219.819 51.3279C222.506 51.3586 225.177 51.433 227.835 51.5566L228.02 47.5609C225.313 47.435 222.595 47.3593 219.865 47.3282L219.819 51.3279ZM239.804 52.4742C242.458 52.7632 245.1 53.1112 247.73 53.524L248.35 49.5724C245.655 49.1494 242.951 48.7932 240.237 48.4977L239.804 52.4742ZM259.476 55.8349C262.054 56.4498 264.623 57.137 267.182 57.9021L268.328 54.0696C265.694 53.2825 263.054 52.5759 260.405 51.944L259.476 55.8349ZM278.465 61.8161C280.909 62.7864 283.348 63.8369 285.782 64.9726L287.474 61.3478C284.968 60.1787 282.457 59.0973 279.94 58.0983L278.465 61.8161ZM296.384 70.4902C298.652 71.7964 300.918 73.1841 303.181 74.6576L305.363 71.3054C303.039 69.7925 300.712 68.3667 298.38 67.0239L296.384 70.4902ZM312.956 81.5748C314.02 82.3888 315.083 83.2232 316.146 84.0785L318.653 80.9618C317.565 80.0866 316.477 79.2323 315.388 78.3986L312.956 81.5748ZM316.146 84.0785C317.218 84.9403 318.273 85.8084 319.314 86.6827L321.887 83.6201C320.825 82.7275 319.747 81.8413 318.653 80.9618L316.146 84.0785ZM328.383 94.8223C330.357 96.7164 332.265 98.6349 334.109 100.576L337.009 97.8212C335.122 95.8349 333.17 93.8727 331.153 91.9363L328.383 94.8223ZM342.17 109.696C343.903 111.806 345.565 113.94 347.159 116.093L350.375 113.714C348.741 111.506 347.037 109.32 345.262 107.158L342.17 109.696ZM354.006 126.136C355.451 128.445 356.824 130.775 358.124 133.122L361.623 131.184C360.288 128.774 358.88 126.383 357.397 124.013L354.006 126.136ZM363.57 143.973C364.688 146.45 365.731 148.943 366.7 151.449L370.431 150.007C369.436 147.432 368.364 144.871 367.215 142.327L363.57 143.973ZM370.606 162.962C371.369 165.563 372.055 168.175 372.667 170.796L376.562 169.886C375.934 167.194 375.228 164.51 374.444 161.837L370.606 162.962ZM374.934 182.734C375.327 185.411 375.646 188.094 375.89 190.78L379.874 190.417C379.623 187.659 379.295 184.903 378.891 182.152L374.934 182.734ZM376.495 202.918C376.52 205.621 376.471 208.324 376.351 211.023L380.347 211.201C380.471 208.431 380.52 205.657 380.495 202.881L376.495 202.918ZM375.328 223.14C374.994 225.822 374.591 228.496 374.119 231.16L378.058 231.858C378.542 229.126 378.955 226.384 379.297 223.634L375.328 223.14ZM371.539 243.051C370.866 245.667 370.127 248.27 369.323 250.856L373.142 252.044C373.966 249.394 374.724 246.728 375.413 244.047L371.539 243.051ZM365.282 262.337C364.293 264.851 363.241 267.345 362.127 269.817L365.774 271.46C366.914 268.93 367.991 266.376 369.004 263.802L365.282 262.337ZM356.732 280.732C355.45 283.109 354.109 285.461 352.71 287.785L356.138 289.848C357.568 287.47 358.94 285.063 360.252 282.631L356.732 280.732ZM346.068 298C344.517 300.211 342.912 302.392 341.254 304.539L344.42 306.984C346.116 304.788 347.757 302.558 349.343 300.296L346.068 298ZM333.482 313.918C331.688 315.937 329.843 317.921 327.949 319.866L330.816 322.657C332.752 320.667 334.638 318.639 336.472 316.574L333.482 313.918ZM319.16 328.299C318.152 329.203 317.131 330.097 316.099 330.98L318.7 334.019C319.755 333.116 320.799 332.202 321.83 331.278L319.16 328.299Z" fill="#255EB1"/>
<g clip-path="url(#clip0)">
<path d="M233.308 16.7023C235.644 9.55422 243.413 5.81886 250.561 8.15553C257.709 10.4922 261.691 18.3416 259.355 25.4897C259.193 25.9826 259.113 26.2291 258.952 26.7221C263.237 30.3055 265.323 36.4438 263.389 42.3594C262.664 44.5778 261.526 46.3885 259.895 48.0381C259.734 48.531 259.654 48.7775 259.327 48.9434L225.289 76.2849C224.881 76.6973 224.308 76.7826 223.815 76.6215L223.568 76.5409L219.866 74.5123C219.373 74.3511 219.042 73.697 218.956 73.1235L217.164 32.7051C216.822 30.4109 216.808 27.9508 217.533 25.7325C219.875 19.4044 226.577 15.5933 233.308 16.7023Z" fill="#F8F2E3"/>
<path d="M258.333 47.8011L224.296 75.1425L220.594 73.1139L218.787 30.2355L258.333 47.8011Z" stroke="#255EB1" stroke-width="3.11184" stroke-miterlimit="10" stroke-linecap="round" stroke-linejoin="round"/>
<path d="M252.786 52.2622C251.72 52.1864 219.463 47.3713 219.463 47.3713" stroke="#255EB1" stroke-width="3.11184" stroke-miterlimit="10" stroke-linecap="round" stroke-linejoin="round"/>
<path d="M220.116 61.2266L238.252 63.3354" stroke="#255EB1" stroke-width="3.11184" stroke-miterlimit="10" stroke-linecap="round" stroke-linejoin="round"/>
<path d="M230.463 35.4162L226.824 72.4219" stroke="#255EB1" stroke-width="3.11184" stroke-miterlimit="10" stroke-linecap="round" stroke-linejoin="round"/>
<path d="M243.536 41.3266C243.455 41.573 240.133 62.5858 240.133 62.5858" stroke="#255EB1" stroke-width="3.11184" stroke-miterlimit="10" stroke-linecap="round" stroke-linejoin="round"/>
<path d="M242.55 26.8173C241.379 22.8878 238.573 19.7879 234.629 18.4987L234.382 18.4181C234.463 18.1716 234.624 17.6786 234.705 17.4322C236.8 11.0236 243.668 7.53944 250.076 9.63438C256.485 11.7293 259.969 18.5976 257.874 25.0062C257.632 25.7456 257.391 26.4851 256.902 27.144C255.997 26.5752 254.845 25.9258 253.613 25.5229C249.669 24.2337 245.654 24.8311 242.55 26.8173Z" stroke="#255EB1" stroke-width="3.11184" stroke-miterlimit="10" stroke-linecap="round" stroke-linejoin="round"/>
<path d="M236.632 38.251C236.542 36.8574 236.779 35.2979 237.262 33.819C239.518 26.9174 246.714 23.2674 253.615 25.5235C260.517 27.7796 264.167 34.9749 261.911 41.8765C261.186 44.0948 259.721 46.0715 258.09 47.7211L236.632 38.251Z" stroke="#255EB1" stroke-width="3.11184" stroke-miterlimit="10" stroke-linecap="round" stroke-linejoin="round"/>
<path d="M219.176 26.5431C221.271 20.1345 228.14 16.6503 234.548 18.7453C238.492 20.0345 241.545 23.215 242.469 27.0639C240.019 28.7182 237.9 31.0267 236.933 33.9845C236.449 35.4634 236.293 36.7764 236.303 38.4164L218.461 30.4015L218.475 32.8616C218.38 30.648 218.532 28.5149 219.176 26.5431Z" stroke="#255EB1" stroke-width="3.11184" stroke-miterlimit="10" stroke-linecap="round" stroke-linejoin="round"/>
</g>
<defs>
<clipPath id="clip0">
<rect width="48.4929" height="73.3876" fill="white" transform="matrix(-0.950503 -0.310715 -0.310715 0.950503 272.252 15.2461)"/>
</clipPath>
</defs>
</svg>
