<svg width="48" height="54" viewBox="0 0 48 54" fill="none" xmlns="http://www.w3.org/2000/svg">
<path d="M38.9332 21.9534H37.7708V16.5272C37.7709 16.3635 37.7387 16.2013 37.6761 16.0501C37.6135 15.8988 37.5217 15.7614 37.4059 15.6456C37.2902 15.5299 37.1527 15.4381 37.0015 15.3754C36.8502 15.3128 36.6881 15.2807 36.5244 15.2808H1.24641C1.0827 15.2807 0.920582 15.3128 0.769319 15.3754C0.618055 15.4381 0.480615 15.5299 0.364856 15.6456C0.249098 15.7614 0.157292 15.8988 0.0946871 16.0501C0.0320823 16.2013 -9.31901e-05 16.3635 2.02729e-07 16.5272V41.1791C2.02729e-07 41.4335 0.0223728 41.6823 0.0381897 41.9328L0.0365196 41.941L0.0392619 41.9548C0.237532 44.9599 1.56986 47.7776 3.7667 49.8377C5.96353 51.8978 8.86087 53.0466 11.8725 53.0516H25.8971C28.9062 53.0468 31.8014 51.9003 33.9978 49.8436C36.1943 47.7868 37.5285 44.9732 37.7308 41.9709C37.731 41.9603 37.7368 41.9516 37.7368 41.941L37.7332 41.9231C37.7486 41.6758 37.7709 41.4302 37.7709 41.179V39.7683H38.9333C41.2957 39.7683 43.5613 38.8299 45.2318 37.1594C46.9023 35.4889 47.8407 33.2233 47.8407 30.8609C47.8407 28.4985 46.9023 26.2328 45.2318 24.5623C43.5613 22.8919 41.2957 21.9534 38.9333 21.9534L38.9332 21.9534ZM2.49282 40.6946V24.4463H35.278V40.6946H2.49282ZM35.278 17.7736V21.9534H2.49282V17.7736H35.278ZM25.8971 50.5588H11.8725C9.73514 50.5554 7.66281 49.8232 5.99779 48.483C4.33278 47.1428 3.17467 45.2748 2.71473 43.1874H35.0561C34.596 45.2749 33.4377 47.1431 31.7725 48.4833C30.1072 49.8235 28.0346 50.5556 25.8971 50.5588ZM38.9333 37.2755H37.7708V24.4462H38.9332C40.6345 24.4462 42.2661 25.122 43.469 26.325C44.672 27.528 45.3479 29.1596 45.3479 30.8609C45.3479 32.5621 44.672 34.1937 43.469 35.3967C42.2661 36.5997 40.6345 37.2755 38.9332 37.2755H38.9333Z" fill="black"/>
<path d="M12.0384 13.366C12.2021 13.3661 12.3642 13.334 12.5155 13.2714C12.6668 13.2088 12.8042 13.1169 12.92 13.0012C13.0357 12.8854 13.1275 12.748 13.1901 12.5967C13.2528 12.4455 13.2849 12.2833 13.2848 12.1196V7.83627C13.2848 7.50569 13.1535 7.18866 12.9198 6.95491C12.686 6.72116 12.369 6.58984 12.0384 6.58984C11.7078 6.58984 11.3908 6.72116 11.1571 6.95491C10.9233 7.18866 10.792 7.50569 10.792 7.83627V12.1196C10.7919 12.2833 10.8241 12.4455 10.8867 12.5967C10.9493 12.748 11.0411 12.8854 11.1568 13.0012C11.2726 13.117 11.41 13.2088 11.5613 13.2714C11.7126 13.334 11.8747 13.3661 12.0384 13.366Z" fill="black"/>
<path d="M18.2982 13.3661C18.4619 13.3661 18.624 13.334 18.7752 13.2714C18.9265 13.2088 19.0639 13.117 19.1797 13.0012C19.2955 12.8854 19.3873 12.748 19.4499 12.5967C19.5125 12.4455 19.5446 12.2833 19.5445 12.1196V1.24641C19.5445 0.915843 19.4132 0.598813 19.1795 0.365066C18.9457 0.131318 18.6287 0 18.2982 0C17.9676 0 17.6506 0.131318 17.4168 0.365066C17.1831 0.598813 17.0518 0.915843 17.0518 1.24641V12.1196C17.0517 12.2833 17.0838 12.4455 17.1464 12.5967C17.209 12.748 17.3009 12.8854 17.4166 13.0012C17.5324 13.117 17.6698 13.2088 17.8211 13.2714C17.9723 13.334 18.1344 13.3661 18.2982 13.3661Z" fill="black"/>
<path d="M24.971 13.366C25.1347 13.3661 25.2968 13.3339 25.4481 13.2713C25.5994 13.2087 25.7368 13.1169 25.8526 13.0011C25.9683 12.8854 26.0601 12.7479 26.1227 12.5967C26.1853 12.4454 26.2175 12.2833 26.2174 12.1196V4.7884C26.2174 4.45783 26.0861 4.1408 25.8523 3.90706C25.6186 3.67331 25.3016 3.54199 24.971 3.54199C24.6404 3.54199 24.3234 3.67331 24.0897 3.90706C23.8559 4.1408 23.7246 4.45783 23.7246 4.7884V12.1196C23.7245 12.2833 23.7567 12.4454 23.8193 12.5967C23.8819 12.7479 23.9737 12.8854 24.0895 13.0011C24.2052 13.1169 24.3427 13.2087 24.4939 13.2713C24.6452 13.3339 24.8073 13.3661 24.971 13.366Z" fill="black"/>
</svg>
