<svg width="58" height="51" viewBox="0 0 58 51" fill="none" xmlns="http://www.w3.org/2000/svg">
<path d="M55.7385 45.5387H52.2976C51.8129 45.5387 51.4108 45.1347 51.4108 44.6476C51.4108 44.1605 51.8129 43.7566 52.2976 43.7566H54.8517V41.9507H54.0003C53.5155 41.9507 53.1135 41.5468 53.1135 41.0597V34.6084H21.0935C20.6087 34.6084 20.2067 34.2045 20.2067 33.7174V22.3357C20.2067 22.2407 20.1239 22.1575 20.0293 22.1575H14.2591C14.1881 22.1575 14.129 22.1931 14.1053 22.2526L10.1915 30.2482C10.0851 30.474 9.88409 30.6403 9.6476 30.7116L2.57671 32.7788C2.10374 32.9214 1.77266 33.361 1.77266 33.8481V43.7328H8.24052C8.72531 43.7328 9.12734 44.1367 9.12734 44.6239C9.12734 45.111 8.72531 45.5149 8.24052 45.5149H0.885842C0.401048 45.5149 -0.000976562 45.111 -0.000976562 44.6239V33.8481C-0.000976562 32.565 0.850369 31.4244 2.08009 31.068L8.77261 29.1077L12.5209 21.4565C12.852 20.7794 13.5141 20.3635 14.2709 20.3635H20.0411C21.1171 20.3635 21.9921 21.2427 21.9921 22.3238V32.8145H54.024C54.5088 32.8145 54.9108 33.2184 54.9108 33.7055V40.1567H55.7622C56.2469 40.1567 56.649 40.5607 56.649 41.0478V44.6357C56.6253 45.1466 56.2351 45.5387 55.7385 45.5387Z" fill="#0C0B0C"/>
<path d="M13.0409 50.3265C9.90745 50.3265 7.36523 47.7721 7.36523 44.6237C7.36523 41.4754 9.90745 38.921 13.0409 38.921C16.1743 38.921 18.7165 41.4754 18.7165 44.6237C18.7165 47.7602 16.1625 50.3265 13.0409 50.3265ZM13.0409 40.6912C10.8889 40.6912 9.13887 42.4496 9.13887 44.6119C9.13887 46.7741 10.8889 48.5325 13.0409 48.5325C15.1929 48.5325 16.9429 46.7741 16.9429 44.6119C16.9429 42.4496 15.1929 40.6912 13.0409 40.6912Z" fill="#0C0B0C"/>
<path d="M44.2332 50.3265C41.0998 50.3265 38.5576 47.7721 38.5576 44.6237C38.5576 41.4754 41.0998 38.921 44.2332 38.921C47.3667 38.921 49.9089 41.4754 49.9089 44.6237C49.9207 47.7602 47.3667 50.3265 44.2332 50.3265ZM44.2332 40.6912C42.0812 40.6912 40.3313 42.4496 40.3313 44.6119C40.3313 46.7741 42.0812 48.5325 44.2332 48.5325C46.3853 48.5325 48.1352 46.7741 48.1352 44.6119C48.1471 42.4496 46.3971 40.6912 44.2332 40.6912Z" fill="#0C0B0C"/>
<path d="M39.4445 45.5033H21.3771C20.8923 45.5033 20.4902 45.0993 20.4902 44.6122C20.4902 44.1251 20.8923 43.7212 21.3771 43.7212H39.4445C39.9293 43.7212 40.3313 44.1251 40.3313 44.6122C40.3313 45.0993 39.9411 45.5033 39.4445 45.5033Z" fill="#0C0B0C"/>
<path d="M17.8297 33.266H13.5848C12.2605 33.266 11.019 32.7432 10.073 31.8047L9.15073 30.878C8.80783 30.5334 8.80783 29.9632 9.15073 29.6186C9.49364 29.2741 10.0612 29.2741 10.4041 29.6186L11.3264 30.5453C11.9294 31.1512 12.7335 31.4839 13.5848 31.4839H17.8297C18.3145 31.4839 18.7165 31.8878 18.7165 32.3749C18.7165 32.862 18.3145 33.266 17.8297 33.266Z" fill="#0C0B0C"/>
<path d="M1.76028 37.6501C1.29914 37.6501 0.908939 37.2937 0.873466 36.8185C0.837993 36.3313 1.20455 35.9036 1.68934 35.868L4.14878 35.6898C5.00013 35.6304 5.79235 35.2146 6.33627 34.573L5.56769 34.3948C5.09472 34.2879 4.79912 33.8008 4.90553 33.3255C5.01195 32.8503 5.49675 32.5533 5.96972 32.6602L7.51869 33.0285C7.90889 33.1236 8.22815 33.3968 8.38186 33.777C8.53558 34.1572 8.48828 34.573 8.26362 34.9175L8.05078 35.2502C7.21126 36.5333 5.79235 37.365 4.26702 37.4838L1.80758 37.662C1.80758 37.6501 1.78393 37.6501 1.76028 37.6501Z" fill="#0C0B0C"/>
<path d="M36.8548 26.5654C35.1521 26.5654 33.7568 25.1754 33.7568 23.4527C33.7568 21.7419 35.1403 20.34 36.8548 20.34C38.5575 20.34 39.9527 21.73 39.9527 23.4527C39.9527 25.1754 38.5693 26.5654 36.8548 26.5654ZM36.8548 22.1221C36.1217 22.1221 35.5305 22.7161 35.5305 23.4527C35.5305 24.1893 36.1217 24.7833 36.8548 24.7833C37.5879 24.7833 38.1791 24.1893 38.1791 23.4527C38.1791 22.7161 37.5879 22.1221 36.8548 22.1221Z" fill="#0C0B0C"/>
<path d="M39.9644 31.9594C39.4796 31.9594 39.0776 31.5554 39.0776 31.0683V28.8348C39.0776 27.5873 38.0607 26.5655 36.8192 26.5655C35.5776 26.5655 34.5607 27.5873 34.5607 28.8348V31.0683C34.5607 31.5554 34.1587 31.9594 33.6739 31.9594C33.1891 31.9594 32.7871 31.5554 32.7871 31.0683V28.8348C32.7871 26.6012 34.5962 24.7834 36.8192 24.7834C39.0421 24.7834 40.8512 26.6012 40.8512 28.8348V31.0683C40.8512 31.5673 40.4492 31.9594 39.9644 31.9594Z" fill="#0C0B0C"/>
<path d="M56.3296 14.5774H17.3096C16.9313 14.5774 16.6002 14.3398 16.4701 13.9715C16.3519 13.6151 16.4701 13.2112 16.7657 12.9735L21.117 9.55191C21.2708 9.4331 21.4599 9.36182 21.661 9.36182H51.7891C51.9783 9.36182 52.1675 9.42122 52.3212 9.54003L56.8617 12.9617C57.1692 13.1874 57.2874 13.5913 57.1692 13.9596C57.0509 14.3398 56.708 14.5774 56.3296 14.5774ZM19.8755 12.7953H53.6692L51.4935 11.1558H21.9684L19.8755 12.7953Z" fill="#0C0B0C"/>
<path d="M53.8585 31.1392C53.3737 31.1392 52.9717 30.7353 52.9717 30.2482V18.9496C52.9717 18.4625 53.3737 18.0586 53.8585 18.0586C54.3433 18.0586 54.7453 18.4625 54.7453 18.9496V30.2482C54.7453 30.7471 54.3433 31.1392 53.8585 31.1392Z" fill="#0C0B0C"/>
<path d="M51.8367 11.1559C51.3519 11.1559 50.9499 10.752 50.9499 10.2649V6.74822H41.7624C41.2776 6.74822 40.8756 6.34428 40.8756 5.85717C40.8756 3.61172 39.0547 1.7821 36.8199 1.7821C34.5851 1.7821 32.7642 3.61172 32.7642 5.85717C32.7642 6.34428 32.3621 6.74822 31.8774 6.74822H22.8791V10.2649C22.8791 10.752 22.4771 11.1559 21.9923 11.1559C21.5075 11.1559 21.1055 10.752 21.1055 10.2649V5.85717C21.1055 5.37006 21.5075 4.96612 21.9923 4.96612H31.0497C31.4872 2.16228 33.9111 0 36.8199 0C39.7287 0 42.1526 2.16228 42.5783 4.96612H51.8249C52.3096 4.96612 52.7117 5.37006 52.7117 5.85717V10.2649C52.7235 10.7639 52.3215 11.1559 51.8367 11.1559Z" fill="#0C0B0C"/>
<path d="M20.0885 19.1516C18.0665 19.1516 16.4111 17.5833 16.4111 15.6468V13.6865C16.4111 13.1994 16.8132 12.7954 17.298 12.7954C17.7827 12.7954 18.1848 13.1994 18.1848 13.6865V15.6468C18.1848 16.5972 19.0361 17.3695 20.0885 17.3695C21.1408 17.3695 21.9922 16.5972 21.9922 15.6468V13.6865C21.9922 13.1994 22.3942 12.7954 22.879 12.7954C23.3638 12.7954 23.7658 13.1994 23.7658 13.6865V15.6468C23.7658 17.5714 22.1222 19.1516 20.0885 19.1516Z" fill="#0C0B0C"/>
<path d="M25.6695 19.1516C23.6476 19.1516 21.9922 17.5833 21.9922 15.6468V13.6865C21.9922 13.1994 22.3942 12.7954 22.879 12.7954C23.3638 12.7954 23.7658 13.1994 23.7658 13.6865V15.6468C23.7658 16.5972 24.6172 17.3695 25.6695 17.3695C26.7219 17.3695 27.5732 16.5972 27.5732 15.6468V13.6865C27.5732 13.1994 27.9753 12.7954 28.4601 12.7954C28.9448 12.7954 29.3469 13.1994 29.3469 13.6865V15.6468C29.3469 17.5714 27.6915 19.1516 25.6695 19.1516Z" fill="#0C0B0C"/>
<path d="M31.2389 19.1516C29.2169 19.1516 27.5615 17.5833 27.5615 15.6468V13.6865C27.5615 13.1994 27.9635 12.7954 28.4483 12.7954C28.9331 12.7954 29.3352 13.1994 29.3352 13.6865V15.6468C29.3352 16.5972 30.1865 17.3695 31.2389 17.3695C32.2912 17.3695 33.1426 16.5972 33.1426 15.6468V13.6865C33.1426 13.1994 33.5446 12.7954 34.0294 12.7954C34.5142 12.7954 34.9162 13.1994 34.9162 13.6865V15.6468C34.9162 17.5714 33.2726 19.1516 31.2389 19.1516Z" fill="#0C0B0C"/>
<path d="M36.8199 19.1516C34.798 19.1516 33.1426 17.5833 33.1426 15.6468V13.6865C33.1426 13.1994 33.5446 12.7954 34.0294 12.7954C34.5142 12.7954 34.9162 13.1994 34.9162 13.6865V15.6468C34.9162 16.5972 35.7676 17.3695 36.8199 17.3695C37.8723 17.3695 38.7236 16.5972 38.7236 15.6468V13.6865C38.7236 13.1994 39.1256 12.7954 39.6104 12.7954C40.0952 12.7954 40.4973 13.1994 40.4973 13.6865V15.6468C40.4973 17.5714 38.8419 19.1516 36.8199 19.1516Z" fill="#0C0B0C"/>
<path d="M42.3883 19.1516C40.3663 19.1516 38.7109 17.5833 38.7109 15.6468V13.6865C38.7109 13.1994 39.113 12.7954 39.5978 12.7954C40.0825 12.7954 40.4846 13.1994 40.4846 13.6865V15.6468C40.4846 16.5972 41.3359 17.3695 42.3883 17.3695C43.4406 17.3695 44.292 16.5972 44.292 15.6468V13.6865C44.292 13.1994 44.694 12.7954 45.1788 12.7954C45.6636 12.7954 46.0656 13.1994 46.0656 13.6865V15.6468C46.0656 17.5714 44.422 19.1516 42.3883 19.1516Z" fill="#0C0B0C"/>
<path d="M47.9703 19.1516C45.9484 19.1516 44.293 17.5833 44.293 15.6468V13.6865C44.293 13.1994 44.695 12.7954 45.1798 12.7954C45.6646 12.7954 46.0666 13.1994 46.0666 13.6865V15.6468C46.0666 16.5972 46.918 17.3695 47.9703 17.3695C49.0227 17.3695 49.874 16.5972 49.874 15.6468V13.6865C49.874 13.1994 50.276 12.7954 50.7608 12.7954C51.2456 12.7954 51.6476 13.1994 51.6476 13.6865V15.6468C51.6476 17.5714 49.9923 19.1516 47.9703 19.1516Z" fill="#0C0B0C"/>
<path d="M53.5396 19.1516C51.5177 19.1516 49.8623 17.5833 49.8623 15.6468V13.6865C49.8623 13.1994 50.2643 12.7954 50.7491 12.7954C51.2339 12.7954 51.6359 13.1994 51.6359 13.6865V15.6468C51.6359 16.5972 52.4873 17.3695 53.5396 17.3695C54.592 17.3695 55.4433 16.5972 55.4433 15.6468V13.6865C55.4433 13.1994 55.8454 12.7954 56.3302 12.7954C56.815 12.7954 57.217 13.1994 57.217 13.6865V15.6468C57.217 17.5714 55.5734 19.1516 53.5396 19.1516Z" fill="#0C0B0C"/>
<path d="M56.7079 32.0067H21.3771C20.8923 32.0067 20.4902 31.6028 20.4902 31.1157C20.4902 30.6286 20.8923 30.2246 21.3771 30.2246H56.7079C57.1927 30.2246 57.5947 30.6286 57.5947 31.1157C57.5947 31.6146 57.1927 32.0067 56.7079 32.0067Z" fill="#0C0B0C"/>
</svg>
