<svg fill="#000000" xmlns="http://www.w3.org/2000/svg"  viewBox="0 0 64 64" width="64px" height="64px"><path d="M 27.699219 0 C 18.199219 0 8.6191406 5.4990625 8.6191406 17.789062 C 8.6191406 23.619062 9.5302344 26.940937 10.490234 30.460938 C 11.470234 34.050937 12.490234 37.749922 12.490234 44.919922 L 12.490234 61.710938 C 12.490234 62.970937 13.519297 64 14.779297 64 L 27 64 C 27.48 64 27.890469 63.659219 27.980469 63.199219 C 29.010469 58.059219 28.810469 52.799219 27.480469 49.449219 C 27.390469 49.229219 27.440859 48.96 27.630859 48.75 C 27.830859 48.52 28.089453 48.529297 28.189453 48.529297 C 28.299453 48.549297 28.560937 48.600625 28.710938 48.890625 C 30.200937 51.740625 30.719766 56.589687 30.009766 60.929688 C 29.999766 60.989688 29.990234 61.049609 29.990234 61.099609 C 30.000234 61.889609 30.310859 62.619922 30.880859 63.169922 C 31.440859 63.719922 32.189766 64 33.009766 64 C 33.819766 63.98 34.559375 63.650781 35.109375 63.050781 C 35.619375 62.500781 35.890859 61.789062 35.880859 61.039062 C 36.710859 56.479062 35.939688 53.010938 35.429688 50.710938 C 35.249688 49.950938 35.110312 49.280781 35.070312 48.800781 C 35.050312 48.580781 35.140234 48.379062 35.240234 48.289062 C 35.260234 48.269062 35.300312 48.240703 35.320312 48.220703 C 35.590313 48.000703 35.870469 48.079141 35.980469 48.119141 C 36.090469 48.159141 36.350625 48.300391 36.390625 48.650391 C 36.390625 48.690391 36.400156 48.729531 36.410156 48.769531 C 36.900156 50.719531 38.010781 55.820234 37.800781 61.240234 L 37.800781 61.400391 C 37.980781 62.890391 39.239297 64 40.779297 64 L 40.830078 64 C 41.670078 63.99 42.469531 63.620469 43.019531 62.980469 C 43.549531 62.380469 43.810469 61.579297 43.730469 60.779297 C 43.950469 56.559297 42.850859 51.929219 42.380859 49.949219 C 42.300859 49.629219 42.250937 49.390469 42.210938 49.230469 C 42.150937 48.910469 42.329922 48.589453 42.669922 48.439453 C 42.849922 48.369453 43.060469 48.370938 43.230469 48.460938 C 43.330469 48.500937 43.519844 48.619141 43.589844 48.869141 C 44.249844 50.959141 45.050156 54.460234 45.160156 59.240234 C 45.200156 60.790234 46.440781 62.020781 48.050781 62.050781 C 48.860781 62.050781 49.570859 61.770937 50.130859 61.210938 C 50.680859 60.660938 50.980703 59.920859 50.970703 59.130859 L 50.949219 57.179688 C 50.949219 53.259687 49.889766 50.600547 49.009766 49.060547 C 48.879766 48.830547 48.930703 48.629297 48.970703 48.529297 C 49.020703 48.419297 49.129688 48.240156 49.429688 48.160156 C 49.629688 48.110156 49.849766 48.170078 50.009766 48.330078 C 50.939766 49.270078 52.509297 51.500547 52.529297 55.810547 C 52.529297 57.280547 53.580703 58.559063 54.970703 58.789062 C 55.840703 58.929063 56.699375 58.690859 57.359375 58.130859 C 58.019375 57.570859 58.400391 56.760625 58.400391 55.890625 L 58.400391 54.539062 C 58.390391 49.889063 57.17 47.269063 55 45.039062 L 55 34.509766 C 56.26 33.179766 57.029297 31.389922 57.029297 29.419922 C 57.029297 27.169922 56.029453 25.139297 54.439453 23.779297 C 54.949453 22.929297 54.980859 22.159375 54.880859 21.609375 C 54.640859 20.229375 53.459531 19.229063 52.519531 18.789062 C 51.969531 18.529062 51.230078 18.339922 50.580078 18.169922 C 50.390078 18.119922 50.170234 18.06 49.990234 18 C 46.690234 6.22 38.999219 2.3684758e-15 27.699219 0 z M 27.699219 2 C 38.129219 2 45.219219 7.8690625 48.199219 19.039062 C 48.409219 19.659063 48.960547 19.809609 50.060547 20.099609 C 50.610547 20.239609 51.279922 20.419609 51.669922 20.599609 C 52.209922 20.859609 52.810156 21.400937 52.910156 21.960938 C 52.950156 22.190938 52.899766 22.429453 52.759766 22.689453 C 51.789766 22.219453 50.710313 21.960938 49.570312 21.960938 C 45.460313 21.960938 42.109375 25.299922 42.109375 29.419922 C 42.109375 29.789922 42.139219 30.159531 42.199219 30.519531 L 42.199219 30.710938 C 42.199219 37.360937 46.969219 41.079297 50.449219 43.779297 L 50.539062 43.859375 C 51.069063 44.269375 51.580312 44.670313 52.070312 45.070312 C 54.930312 47.430312 56.390391 49.550781 56.400391 54.550781 L 56.400391 55.890625 C 56.400391 56.170625 56.280313 56.429375 56.070312 56.609375 C 55.950313 56.709375 55.670781 56.880312 55.300781 56.820312 C 54.870781 56.750312 54.529297 56.300781 54.529297 55.800781 C 54.499297 50.780781 52.579687 48.079922 51.429688 46.919922 C 50.779688 46.269922 49.830391 46.000469 48.900391 46.230469 C 48.100391 46.430469 47.450859 46.990234 47.130859 47.740234 C 46.810859 48.500234 46.859531 49.340547 47.269531 50.060547 C 48.039531 51.390547 48.949219 53.699219 48.949219 57.199219 L 48.970703 59.160156 C 48.980703 59.400156 48.880937 59.629062 48.710938 59.789062 C 48.550938 59.959063 48.349531 60.040781 48.019531 60.050781 C 47.549531 60.040781 47.170156 59.669453 47.160156 59.189453 C 47.040156 54.179453 46.19 50.489297 45.5 48.279297 C 45.28 47.559297 44.760078 46.960391 44.080078 46.650391 C 43.400078 46.320391 42.599141 46.309375 41.869141 46.609375 C 40.679141 47.099375 40 48.370859 40.25 49.630859 C 40.29 49.790859 40.349688 50.060156 40.429688 50.410156 C 40.889688 52.320156 41.950469 56.8 41.730469 60.75 C 41.730469 60.81 41.730234 60.869688 41.740234 60.929688 C 41.770234 61.199688 41.689766 61.459922 41.509766 61.669922 C 41.329766 61.879922 41.08 61.99 40.75 62 L 40.740234 62 C 40.270234 62 39.880781 61.670469 39.800781 61.230469 C 40.000781 55.630469 38.879141 50.399844 38.369141 48.339844 C 38.229141 47.399844 37.600937 46.609766 36.710938 46.259766 C 35.810938 45.899766 34.779531 46.070938 34.019531 46.710938 C 33.359531 47.260937 33.010313 48.100937 33.070312 48.960938 C 33.120312 49.580937 33.290703 50.310391 33.470703 51.150391 C 33.990703 53.440391 34.690625 56.569297 33.890625 60.779297 C 33.880625 60.859297 33.870859 60.939297 33.880859 61.029297 C 33.890859 61.279297 33.810625 61.519219 33.640625 61.699219 C 33.460625 61.879219 33.229687 61.99 32.929688 62 C 32.679688 61.97 32.449531 61.910234 32.269531 61.740234 C 32.109531 61.580234 32.02 61.380156 32 61.160156 C 32.75 56.440156 32.150469 51.150938 30.480469 47.960938 C 30.070469 47.180937 29.299922 46.650781 28.419922 46.550781 C 27.559922 46.450781 26.689609 46.780937 26.099609 47.460938 C 25.439609 48.220937 25.249141 49.269453 25.619141 50.189453 C 26.739141 52.979453 26.939922 57.55 26.169922 62 L 14.779297 62 C 14.619297 62 14.490234 61.870938 14.490234 61.710938 L 14.490234 44.919922 C 14.490234 37.489922 13.439922 33.639688 12.419922 29.929688 C 11.489922 26.549688 10.619141 23.349062 10.619141 17.789062 C 10.619141 6.8790625 19.189219 2 27.699219 2 z M 23.447266 5.5957031 C 23.318594 5.5773281 23.184281 5.5821875 23.050781 5.6171875 C 22.517781 5.7581875 22.198844 6.3077969 22.339844 6.8417969 L 22.851562 8.7753906 C 22.969562 9.2233906 23.374406 9.5195312 23.816406 9.5195312 C 23.901406 9.5195312 23.988219 9.5083281 24.074219 9.4863281 C 24.607219 9.3453281 24.926156 8.7976719 24.785156 8.2636719 L 24.273438 6.328125 C 24.167687 5.927625 23.833281 5.6508281 23.447266 5.5957031 z M 18.351562 8.0957031 C 18.096563 8.0748281 17.833547 8.150125 17.623047 8.328125 C 17.201047 8.685125 17.150813 9.3172813 17.507812 9.7382812 L 18.802734 11.263672 C 19.001734 11.497672 19.282406 11.617188 19.566406 11.617188 C 19.795406 11.617188 20.023938 11.538906 20.210938 11.378906 C 20.632938 11.021906 20.683172 10.391703 20.326172 9.9707031 L 19.033203 8.4453125 C 18.854703 8.2348125 18.606562 8.1165781 18.351562 8.0957031 z M 15.060547 12.900391 C 14.673922 12.941875 14.327031 13.211422 14.207031 13.607422 C 14.047031 14.135422 14.347953 14.693516 14.876953 14.853516 L 16.791016 15.431641 C 16.887016 15.460641 16.984078 15.474609 17.080078 15.474609 C 17.510078 15.474609 17.906109 15.195672 18.037109 14.763672 C 18.197109 14.235672 17.898141 13.677578 17.369141 13.517578 L 15.453125 12.939453 C 15.322125 12.899203 15.189422 12.886563 15.060547 12.900391 z M 16.609375 18.328125 L 14.609375 18.400391 C 14.056375 18.419391 13.625484 18.881594 13.646484 19.433594 C 13.665484 19.973594 14.109531 20.398438 14.644531 20.398438 C 14.656531 20.398438 14.667687 20.399438 14.679688 20.398438 L 16.679688 20.326172 C 17.232687 20.307172 17.663578 19.844969 17.642578 19.292969 C 17.624578 18.738969 17.129375 18.301125 16.609375 18.328125 z M 31.570312 21.960938 C 27.460313 21.960938 24.109375 25.299922 24.109375 29.419922 C 24.109375 33.529922 27.460312 36.869141 31.570312 36.869141 C 35.680312 36.869141 39.029297 33.529922 39.029297 29.419922 C 39.029297 25.299922 35.680312 21.960938 31.570312 21.960938 z M 31.570312 23.960938 C 34.580312 23.960938 37.029297 26.409922 37.029297 29.419922 C 37.029297 32.419922 34.580312 34.869141 31.570312 34.869141 C 28.560313 34.869141 26.109375 32.419922 26.109375 29.419922 C 26.109375 26.409922 28.560312 23.960938 31.570312 23.960938 z M 49.570312 23.960938 C 50.450313 23.960938 51.289531 24.170781 52.019531 24.550781 C 53.799531 25.440781 55.029297 27.289922 55.029297 29.419922 C 55.029297 31.079922 54.279844 32.580312 53.089844 33.570312 C 52.139844 34.390313 50.920313 34.869141 49.570312 34.869141 C 46.890313 34.869141 44.659219 32.930625 44.199219 30.390625 L 44.199219 30.310547 C 44.199219 30.200547 44.180625 30.090234 44.140625 29.990234 L 44.140625 29.980469 C 44.120625 29.790469 44.109375 29.609922 44.109375 29.419922 C 44.109375 26.409922 46.560313 23.960938 49.570312 23.960938 z M 32.904297 27.572266 A 1.476 1.476 0 1 0 32.904297 30.523438 A 1.476 1.476 0 1 0 32.904297 27.572266 z M 50.619141 27.572266 A 1.476 1.476 0 1 0 50.619141 30.523438 A 1.476 1.476 0 0 0 50.771484 30.517578 A 1.476 1.476 0 0 0 50.904297 30.523438 A 1.476 1.476 0 0 0 50.904297 27.572266 A 1.476 1.476 0 0 0 50.757812 27.580078 A 1.476 1.476 0 0 0 50.755859 27.580078 A 1.476 1.476 0 0 0 50.619141 27.572266 z M 45.339844 35.550781 C 46.549844 36.390781 48.010312 36.869141 49.570312 36.869141 C 50.800312 36.869141 51.97 36.569297 53 36.029297 L 53 42.990234 C 52.61 42.700234 52.189297 42.390078 51.779297 42.080078 C 50.789297 41.340078 49.89 40.660547 49.75 40.560547 C 49.65 40.480547 49.530156 40.420625 49.410156 40.390625 C 47.810156 39.020625 46.309844 37.480781 45.339844 35.550781 z"/></svg>