<svg width="64" height="64" viewBox="0 0 64 64" fill="none" xmlns="http://www.w3.org/2000/svg">
<path d="M14.7535 13.3004C2.42265 11.3779 -1.96166 29.2296 9.82117 33.3493C12.8354 34.4478 15.0275 33.8986 18.0417 33.0746V55.046H45.4437C45.4437 47.6307 45.4437 40.49 45.4437 33.0746C48.4579 33.8986 50.376 34.4478 53.6643 33.3493C65.4471 29.2296 61.0628 11.3779 48.7319 13.3004C50.376 18.7932 49.2799 24.5607 45.7177 29.2296C44.6216 30.6029 42.4295 28.955 43.5255 27.5818C50.9241 17.6947 44.0736 3.41329 31.7427 3.41329C19.1378 3.41329 12.2873 17.6947 19.9599 27.5818C21.056 28.955 18.8638 30.6029 17.7677 29.2296C14.2055 24.5607 13.1094 18.7932 14.7535 13.3004ZM16.6717 63.0106C14.7535 63.0106 14.7535 60.5388 16.6717 60.5388H46.8138C48.7319 60.5388 48.7319 63.0106 46.8138 63.0106H16.6717ZM15.3016 36.645C13.1094 36.9196 10.9172 36.645 8.99911 36.0957C-6.34597 30.8775 -0.043526 7.53292 15.8496 10.8286C18.5898 4.51186 24.8922 0.66687 31.7427 0.66687C38.5932 0.66687 44.6216 4.51186 47.6358 10.8286C63.529 7.53292 69.8314 30.6029 54.4863 36.0957C52.5682 36.645 50.376 36.9196 48.1839 36.645V57.7924H15.3016V36.645Z" fill="black"/>
</svg>
