<svg width="27" height="27" viewBox="0 0 27 27" fill="none" xmlns="http://www.w3.org/2000/svg">
<g clip-path="url(#clip0)">
<path d="M21.6814 0H4.33628C3.18623 0 2.08328 0.456857 1.27007 1.27007C0.456857 2.08328 0 3.18623 0 4.33628L0 21.6814C0 22.8315 0.456857 23.9344 1.27007 24.7476C2.08328 25.5608 3.18623 26.0177 4.33628 26.0177H21.6814C22.8315 26.0177 23.9344 25.5608 24.7476 24.7476C25.5608 23.9344 26.0177 22.8315 26.0177 21.6814V4.33628C26.0177 3.18623 25.5608 2.08328 24.7476 1.27007C23.9344 0.456857 22.8315 0 21.6814 0V0ZM23.8496 21.6814C23.8496 22.2564 23.6211 22.8079 23.2145 23.2145C22.8079 23.6211 22.2564 23.8496 21.6814 23.8496H4.33628C3.76126 23.8496 3.20978 23.6211 2.80318 23.2145C2.39657 22.8079 2.16814 22.2564 2.16814 21.6814V4.33628C2.16814 3.76126 2.39657 3.20978 2.80318 2.80318C3.20978 2.39657 3.76126 2.16814 4.33628 2.16814H21.6814C22.2564 2.16814 22.8079 2.39657 23.2145 2.80318C23.6211 3.20978 23.8496 3.76126 23.8496 4.33628V21.6814Z" fill="#FFDB58"/>
<path d="M13.0088 6.50439C11.7224 6.50439 10.4648 6.88587 9.39516 7.60059C8.32551 8.3153 7.49182 9.33116 6.99952 10.5197C6.50721 11.7082 6.3784 13.016 6.62938 14.2778C6.88035 15.5395 7.49984 16.6985 8.4095 17.6081C9.31916 18.5178 10.4781 19.1373 11.7399 19.3883C13.0016 19.6392 14.3094 19.5104 15.498 19.0181C16.6865 18.5258 17.7023 17.6921 18.4171 16.6225C19.1318 15.5528 19.5132 14.2953 19.5132 13.0088C19.5132 11.2837 18.828 9.62931 17.6081 8.4095C16.3883 7.18968 14.7339 6.50439 13.0088 6.50439ZM13.0088 17.3451C12.1512 17.3451 11.3128 17.0908 10.5997 16.6143C9.88662 16.1378 9.33082 15.4606 9.00262 14.6682C8.67442 13.8759 8.58854 13.004 8.75586 12.1629C8.92318 11.3217 9.33617 10.549 9.94261 9.9426C10.549 9.33616 11.3217 8.92317 12.1629 8.75586C13.004 8.58854 13.8759 8.67441 14.6682 9.00262C15.4606 9.33082 16.1378 9.88661 16.6143 10.5997C17.0908 11.3128 17.3451 12.1512 17.3451 13.0088C17.3451 14.1589 16.8882 15.2618 16.075 16.075C15.2618 16.8882 14.1589 17.3451 13.0088 17.3451Z" fill="#FFDB58"/>
<path d="M20.0553 7.58839C20.9534 7.58839 21.6814 6.86036 21.6814 5.96229C21.6814 5.06421 20.9534 4.33618 20.0553 4.33618C19.1572 4.33618 18.4292 5.06421 18.4292 5.96229C18.4292 6.86036 19.1572 7.58839 20.0553 7.58839Z" fill="#FFDB58"/>
</g>
<defs>
<clipPath id="clip0">
<rect width="26.0177" height="26.0177" fill="white"/>
</clipPath>
</defs>
</svg>
