<svg width="73" height="87" viewBox="0 0 73 87" fill="none" xmlns="http://www.w3.org/2000/svg">
<g clip-path="url(#clip0)">
<path d="M33.9576 17.0247C36.8374 10.0776 44.8706 6.95111 51.8177 9.83084C58.7647 12.7106 62.1308 20.8431 59.2511 27.7902C59.0525 28.2693 58.9532 28.5088 58.7546 28.9879C62.7513 32.8904 64.3585 39.171 61.9753 44.9203C61.0816 47.0763 59.8081 48.7941 58.0555 50.3134C57.8569 50.7925 57.7576 51.032 57.4187 51.1723L21.3783 75.8137C20.9401 76.1935 20.3617 76.2345 19.8826 76.0359L19.643 75.9366L16.1081 73.6291C15.629 73.4305 15.3485 72.7528 15.3075 72.1744L16.63 31.7379C16.4662 29.4243 16.6412 26.9704 17.5349 24.8144C20.3563 18.6853 27.332 15.4011 33.9576 17.0247Z" fill="#F8F2E3"/>
<path d="M56.517 49.9572L20.4765 74.5986L16.9416 72.2912L18.4391 29.4008L56.517 49.9572Z" stroke="#255EB1" stroke-width="3.11184" stroke-miterlimit="10" stroke-linecap="round" stroke-linejoin="round"/>
<path d="M50.6426 53.978C49.5851 53.8204 17.795 46.5377 17.795 46.5377" stroke="#255EB1" stroke-width="3.11184" stroke-miterlimit="10" stroke-linecap="round" stroke-linejoin="round"/>
<path d="M17.3803 60.4024L35.2998 63.9004" stroke="#255EB1" stroke-width="3.11184" stroke-miterlimit="10" stroke-linecap="round" stroke-linejoin="round"/>
<path d="M29.6822 35.4646L23.2063 72.0806" stroke="#255EB1" stroke-width="3.11184" stroke-miterlimit="10" stroke-linecap="round" stroke-linejoin="round"/>
<path d="M42.2618 42.3629C42.1625 42.6024 37.2333 63.2973 37.2333 63.2973" stroke="#255EB1" stroke-width="3.11184" stroke-miterlimit="10" stroke-linecap="round" stroke-linejoin="round"/>
<path d="M42.3949 27.8212C41.5298 23.8133 38.9704 20.5066 35.1376 18.9178L34.898 18.8185C34.9973 18.579 35.1959 18.0999 35.2952 17.8603C37.877 11.6319 44.993 8.68657 51.2214 11.2684C57.4498 13.8502 60.3951 20.9662 57.8133 27.1946C57.5154 27.9133 57.2175 28.6319 56.6801 29.2513C55.8211 28.6145 54.7227 27.8785 53.5249 27.382C49.692 25.7931 45.6432 26.0798 42.3949 27.8212Z" stroke="#255EB1" stroke-width="3.11184" stroke-miterlimit="10" stroke-linecap="round" stroke-linejoin="round"/>
<path d="M35.614 38.7656C35.6314 37.3692 35.9876 35.8326 36.5834 34.3953C39.3639 27.6877 46.8187 24.6022 53.5262 27.3826C60.2337 30.163 63.3193 37.6179 60.5389 44.3254C59.6451 46.4814 58.0328 48.3394 56.2801 49.8587L35.614 38.7656Z" stroke="#255EB1" stroke-width="3.11184" stroke-miterlimit="10" stroke-linecap="round" stroke-linejoin="round"/>
<path d="M19.112 25.7489C21.6939 19.5205 28.8098 16.5752 35.0382 19.157C38.8711 20.7459 41.67 24.1518 42.2955 28.0604C39.7249 29.5213 37.4349 31.6599 36.2433 34.5345C35.6474 35.9719 35.3905 37.2689 35.2738 38.9049L18.1016 29.5409L17.9266 31.9948C18.0023 29.7804 18.3176 27.6654 19.112 25.7489Z" stroke="#255EB1" stroke-width="3.11184" stroke-miterlimit="10" stroke-linecap="round" stroke-linejoin="round"/>
</g>
<defs>
<clipPath id="clip0">
<rect width="48.4929" height="73.3876" fill="white" transform="matrix(-0.923778 -0.382928 -0.382928 0.923778 72.8984 18.5693)"/>
</clipPath>
</defs>
</svg>
