<?xml version="1.0" encoding="UTF-8"?>
<!-- Generator: Adobe Illustrator 25.2.1, SVG Export Plug-In . SVG Version: 6.00 Build 0)  -->
<svg xmlns="http://www.w3.org/2000/svg" xmlns:xlink="http://www.w3.org/1999/xlink" version="1.1" id="Capa_1" x="0px" y="0px" viewBox="0 0 512 512" style="enable-background:new 0 0 512 512;" xml:space="preserve" width="512" height="512">
<g>
	<g>
		<g>
			<path style="fill:#FFFFFF;" d="M107.823,512c-1.768,0-3.534-0.055-5.251-0.163c-17.222-1.091-31.203-7.875-41.56-20.165     c-17.5-20.768-20.091-52.767-19.11-76.312H21.499c-7.186,0-13.013-5.827-13.013-13.013V293.361     c0-13.623,11.083-24.706,24.704-24.706h11.306c-0.01-0.842-0.015-1.683-0.015-2.523c0-8.056,0.464-16.159,1.382-24.193     c-12.544-7.953-22.757-19.335-29.274-32.792c-19.274-39.798-2.575-87.856,37.223-107.13c11.001-5.328,22.739-8.031,34.886-8.031     c11.944,0,23.669,2.654,34.393,7.736c14.306-11.568,29.944-21.158,46.655-28.61c4.312-20.516,15.969-36.148,32.419-43.449     c3.71-7.093,8.683-12.999,14.59-17.277c6.898-4.996,15.188-7.749,23.34-7.749c1.382,0,2.757,0.079,4.114,0.236     c3.117-1.446,6.163-2.174,8.681-2.775l0.636-0.151C258.91,0.655,264.312,0,269.585,0c8.639,0,16.648,1.734,23.803,5.153     c10.313,4.927,18.336,13.508,22.403,23.402c5.575,1.269,10.731,4.271,14.687,8.657c4.376,4.853,7.265,11.183,8.389,18.23     c3.702-3.397,8.635-5.473,14.045-5.473h15.331c4.47-3.585,10.072-5.602,15.963-5.602c5.878,0,11.476,2.017,15.953,5.602h40.934     c4.47-3.585,10.072-5.602,15.962-5.602c5.876,0,11.475,2.019,15.953,5.602h4.746c11.466,0,20.795,9.329,20.795,20.796v101.369     c0,7.186-5.827,13.013-13.013,13.013h-23.9c0.428,0.501,0.83,1.028,1.205,1.581c3.59,5.288,4.339,12.306,1.953,18.315     c-1.261,3.181-3.097,5.681-4.7,7.582c0.018,0.068,0.035,0.136,0.053,0.202c0.025-0.007,0.051-0.016,0.076-0.024     c2.327-0.728,5.141-1.471,8.4-1.471c0.839,0,1.677,0.051,2.494,0.149c7.332,0.892,13.124,5.725,15.118,12.614     c2.113,7.296-0.524,15.508-6.561,20.435c-1.718,1.402-3.505,2.437-5.183,3.231c0.236-0.001,0.971-0.002,0.971-0.002     c3.149,0.008,6.9,0.254,10.797,2.03c6.713,3.057,10.778,9.411,10.601,16.581c-0.186,7.593-5.176,14.628-12.417,17.505     c-3.608,1.433-7.084,1.728-9.709,1.826c-0.882,0.032-1.759,0.048-2.636,0.048c-2.055,0-4.074-0.087-6.015-0.227     c-1.166,12.824-3.492,25.458-6.957,37.801h19.626c13.652,0,24.758,11.107,24.758,24.758v25.491     c0,13.652-11.107,24.758-24.758,24.758H420.48c-6.814,8.474-14.279,16.427-22.252,23.702c-1.771,1.644-3.707,3.358-5.837,5.167     c-13.993,12.016-29.685,22.018-46.33,29.933c-6.811,3.229-13.79,6.101-20.682,8.503c-22.299,7.804-45.738,11.763-69.652,11.763     c-1.975,0-3.951-0.024-5.926-0.094c-13.782-0.373-27.594-2.108-41.066-5.163C181.645,490.784,143.042,512,107.823,512z"/>
		</g>
	</g>
	<g>
		<g>
			<g>
				<g>
					<g>
						<path style="fill:#FFD484;" d="M454.097,266.133c0,57.973-24.855,110.112-64.501,146.288c-1.8,1.67-3.622,3.275-5.487,4.858        c-5.834,5.01-11.972,9.651-18.392,13.881c-0.325,0.239-0.672,0.455-0.998,0.672c-7.656,5.053-15.681,9.608-24.031,13.512        c-6.311,2.993-12.796,5.682-19.455,8.003c-20.452,7.157-42.466,11.039-65.369,11.039c-1.822,0-3.644-0.022-5.465-0.087        c-15.225-0.412-30.017-2.538-44.179-6.181c-0.217-0.065-0.412-0.108-0.629-0.174c-7.916-2.06-15.616-4.598-23.098-7.591        c-7.526-2.971-14.791-6.42-21.819-10.28c-1.909-1.063-3.774-2.125-5.661-3.232c-9.5-5.639-18.479-12.015-26.894-19.129        c-2.191-1.844-4.359-3.752-6.463-5.704c-6.138-5.617-11.907-11.625-17.242-18.001c-1.301-1.518-2.538-3.058-3.774-4.62        c-6.333-7.938-12.059-16.396-17.112-25.267c-3.557-6.246-6.788-12.688-9.673-19.346        c-10.432-24.096-16.223-50.707-16.223-78.642c0-83.218,51.271-154.465,123.949-183.853c1.648-0.672,3.34-1.345,5.032-1.952        c2.559-0.976,5.162-1.865,7.764-2.711h0.022c1.41-0.477,2.798-0.911,4.229-1.323c11.95-3.622,24.378-6.138,37.174-7.417        c0.889-0.087,1.8-0.174,2.689-0.239c5.726-0.499,11.517-0.759,17.372-0.759c19.541,0,38.432,2.819,56.26,8.111        c3.123,0.911,6.203,1.909,9.261,2.993C398.683,106.029,454.097,179.618,454.097,266.133z"/>
					</g>
				</g>
			</g>
			<g>
				<g>
					<g>
						<path style="fill:#040308;" d="M211.634,40.537c2.655-6.882,6.918-13.282,12.892-17.609        c5.974-4.327,13.763-6.395,20.933-4.663c0.417,0.101,0.909,0.297,0.968,0.722c2.788-2.718,6.497-3.474,10.282-4.385        c10.341-2.486,21.61-2.292,31.207,2.293c9.597,4.585,17.171,14.015,17.89,24.627c5.43-1.722,11.333,0.177,15.148,4.408        c3.815,4.23,5.472,10.074,5.564,15.77c0.15,9.292-4.056,18.95-11.993,23.785c-4.94,3.009-9.698,5.552-15.482,5.439        c-17.717-0.348-35.139-6.053-50.293-15.237C233.596,66.503,222.263,54.716,211.634,40.537z"/>
					</g>
				</g>
				<g>
					<g>
						<g>
							<path style="fill:#0060FF;" d="M374.522,422.593c0.011,0.402-3.716,3.818-4.308,4.407c-1.952,1.943-4.299,3.616-6.519,5.235         c-4.346,3.169-8.959,5.958-13.706,8.483c-37.943,20.18-81.742,27.832-124.255,21.379c-3.388-0.514-6.763-1.116-10.119-1.806         c-1.364-0.28-9.526-1.912-9.526-1.912l-1.496,0.89c-19.062-6.336-37.247-15.428-53.679-26.991         c-4.104-2.888-8.099-5.933-11.966-9.133c-3.837-3.175-8.077-5.496-8.379-10.64c-0.672-11.472-1.302-22.947-1.953-34.421         c0-14.543-1.666-29.327-2.492-43.853c-0.793-13.933-1.586-27.866-2.379-41.8c-0.335-5.885-0.779-11.776-1.005-17.667         c2.993-3.73,6.051-7.287,9.196-10.671c0.108-0.108,0.195-0.174,0.26-0.26c34.767-37.608,75.02-52.681,75.02-52.681         l72.353,3.427c0,0,23.055,12.102,44.722,28.824c12.307,9.477,24.564,19.974,32.21,33.734         c6.721,12.094,7.54,27.544,9.31,41.023c0.319,2.428,0.626,4.859,0.923,7.29C370.314,354.621,373.459,392.446,374.522,422.593         z"/>
						</g>
					</g>
					<g>
						<g>
							<g>
								<path style="fill:#040308;" d="M187.986,71.227c-3.069,12.305-0.865,25.288,2.237,37.584          c3.102,12.297,7.114,24.515,7.671,37.185c0.263,5.983-0.217,12.192,2.016,17.749c2.813,7.001,9.563,11.774,16.688,14.257          c1.814-3.595,2.127-7.737,2.136-11.764c0.036-17.087-0.731-34.337-5.088-50.859          C209.288,98.857,200.883,82.436,187.986,71.227z"/>
							</g>
						</g>
						<g>
							<g>
								<path style="fill:#FFB4DC;" d="M280.381,184.32l-0.062,2.247l-0.303,11.509l-5.049,4.15l4.838,3.884l-0.227,8.473          c0,0-6.308,12.905-31.314,15.255c-24.985,2.371-41.044-18.677-41.044-18.677s2.618-14.204,2.886-27.109          c0.268-12.884-4.205-27.624-4.205-27.624L280.381,184.32z"/>
							</g>
						</g>
						<g>
							<g>
								<path style="fill:#040308;" d="M280.319,186.567l-0.515,19.543c-10.967,3.69-23.357,3.03-33.994-1.629          c-12.39-5.422-22.305-15.997-27.521-28.49C239.378,179.661,260.117,180.053,280.319,186.567z"/>
							</g>
						</g>
						<g>
							<g>
								<g>
									<g>
										<g>
											<path style="fill:#FFB4DC;" d="M295.181,191.403c-30.151,18.459-76.26,9.794-87.677-28.594             c-4.941-16.648-7.813-29.785-9.483-39.307c-0.976-5.55-1.518-9.879-1.853-12.96c-0.898-4.175-1.414-8.478-1.42-12.884             c-0.051-33.337,27.082-60.399,60.597-60.45c13.778-0.021,26.468,4.518,36.666,12.194             c8.766,6.597,15.68,15.53,19.781,25.713c4.701,11.672,4.295,23.91,4.434,36.228c0.104,9.217,0.151,18.389-0.58,27.597             c-1.284,16.174-3.69,36.79-15.881,48.836C298.373,189.15,296.849,190.382,295.181,191.403z"/>
										</g>
									</g>
								</g>
								<g>
									<g>
										<g>
											<g>
												<g>
													<path style="fill:#FFB4DC;" d="M187.335,116.557c-4.785,0.345-9.163,3.399-11.632,7.512               c-2.469,4.113-3.141,9.156-2.412,13.897c1.65,10.733,10.82,19.87,21.559,21.482c2.708,0.406,5.588,0.351,8.041-0.868               c3.287-1.634,5.323-5.174,5.932-8.793c0.609-3.62-0.025-7.334-0.926-10.892               C205.334,128.78,200.325,115.621,187.335,116.557z"/>
												</g>
											</g>
										</g>
									</g>
									<g>
										<g>
											<g>
												<path style="fill:#040308;" d="M196.287,143.677c0.049-0.014,0.098-0.033,0.144-0.059              c0.318-0.176,0.434-0.578,0.257-0.896c-1.329-2.397-2.705-4.876-4.496-7.06c-2.052-2.5-4.346-4.214-6.82-5.095              c-0.343-0.121-0.721,0.058-0.842,0.401c-0.122,0.343,0.057,0.719,0.4,0.841c2.243,0.797,4.344,2.376,6.243,4.689              c1.715,2.09,3.061,4.516,4.362,6.864C195.686,143.634,196.001,143.757,196.287,143.677z"/>
											</g>
										</g>
									</g>
								</g>
							</g>
							<g>
								<g>
									<g>
										<g>
											<path style="fill:#040308;" d="M284.98,153.592c-0.019,0-0.04-0.002-0.061-0.002c-2.499-0.04-7.472-1.508-8.478-4.287             c-0.097-0.267,0.042-0.563,0.309-0.661c0.263-0.095,0.563,0.04,0.661,0.309c0.822,2.268,5.401,3.573,7.525,3.609             c0.68-0.006,1.237-0.227,1.671-0.722c2.124-2.429,0.987-10.031,0.557-12.894l-0.116-0.798             c-1.034-7.572-3.027-13.763-6.094-18.927c-0.146-0.244-0.066-0.561,0.18-0.705c0.248-0.144,0.563-0.066,0.705,0.18             c3.139,5.282,5.176,11.6,6.229,19.312l0.114,0.786c0.491,3.272,1.639,10.937-0.801,13.725             C286.757,153.23,285.95,153.592,284.98,153.592z"/>
										</g>
									</g>
									<g>
										<g>
											<path style="fill:#040308;" d="M257.443,124.094c0,2.715-1.908,4.915-4.26,4.915c-2.353,0-4.26-2.201-4.26-4.915             c0-2.715,1.907-4.916,4.26-4.916C255.535,119.179,257.443,121.379,257.443,124.094z"/>
										</g>
									</g>
									<g>
										<g>
											<path style="fill:#040308;" d="M300.64,124.094c0,2.715-1.908,4.915-4.26,4.915s-4.26-2.201-4.26-4.915             c0-2.715,1.908-4.916,4.26-4.916S300.64,121.379,300.64,124.094z"/>
										</g>
									</g>
								</g>
							</g>
						</g>
						<g>
							<g>
								<g>
									<path style="fill:#040308;" d="M244.252,110.423c-0.163,0.419-0.26,0.871-0.216,1.318c0.108,1.106,1.072,1.978,2.13,2.317           c1.058,0.339,2.2,0.249,3.305,0.136c2.779-0.283,5.616-0.713,8.06-2.067c0.856-0.474,1.671-1.077,2.187-1.909           c0.516-0.831,0.685-1.925,0.241-2.797c-0.707-1.391-2.537-1.682-4.096-1.755           C251.964,105.484,245.92,106.127,244.252,110.423z"/>
								</g>
							</g>
							<g>
								<g>
									<path style="fill:#040308;" d="M306.996,108.89c0.18,0.411,0.297,0.859,0.272,1.308c-0.061,1.109-0.986,2.022-2.029,2.405           c-1.043,0.383-2.188,0.343-3.296,0.277c-2.788-0.164-5.642-0.473-8.141-1.721c-0.875-0.437-1.716-1.005-2.266-1.814           c-0.551-0.809-0.766-1.894-0.36-2.784c0.647-1.42,2.463-1.788,4.017-1.928C299.079,104.285,305.145,104.669,306.996,108.89           z"/>
								</g>
							</g>
						</g>
						<g>
							<g>
								<path style="fill:#040308;" d="M280.464,162.581c-0.606,0-1.207-0.049-1.802-0.148c-3.094-0.517-5.958-2.398-7.661-5.03          c-0.144-0.222-0.08-0.519,0.142-0.663c0.222-0.142,0.519-0.08,0.663,0.142c1.559,2.412,4.181,4.134,7.013,4.607          c2.834,0.474,5.873-0.307,8.129-2.082c0.212-0.159,0.51-0.127,0.674,0.08s0.127,0.51-0.08,0.674          C285.549,161.725,283.001,162.581,280.464,162.581z"/>
							</g>
						</g>
					</g>
					<g>
						<g>
							<g>
								<path style="fill:#0060FF;" d="M132.563,263.533c0,0-56.143,47.721-75.091,128.426l96.583,4.211L132.563,263.533z"/>
							</g>
						</g>
					</g>
				</g>
				<g>
					<g>
						<g>
							<path style="fill:#040308;" d="M190.524,120.047c2.41,3.103,5.446,6.218,8.911,7.375c1.615,0.539,3.42-0.111,4.819-1.04         c4.799-3.188,6.381-9.079,7.621-14.467c8.349-0.617,15.224-6.878,17.946-14.297s0.319-16.252-5.86-21.546         c5.912-2.401,11.782-5.854,15.054-11.054c4.975-7.908,1.794-19.349-6.667-23.979c-5.781-3.163-13.052-3.182-19.471-1.399         c-25.883,7.192-34.771,38.324-30.886,60.976c0.979,5.705,2.776,11.151,6.101,16.051         C188.808,117.724,189.622,118.885,190.524,120.047z"/>
						</g>
					</g>
					<g>
						<g>
							<path style="fill:#040308;" d="M229.681,38.578c2.854,4.621,6.106,9.074,10.282,12.547s9.368,5.92,14.798,6.065         c1.839,0.049,3.735-0.181,5.349-1.062c1.615-0.881,2.904-2.505,3.016-4.341c6.204,9.169,17.428,14.229,28.499,14.254         c5.217,0.012,11.235-1.856,13.022-6.757c1.4-3.84-0.349-8.097-2.533-11.552c-9.831-15.55-28.782-23.869-47.18-23.916         c-4.832-0.012-9.737,0.498-14.22,2.302C236.233,27.922,231.782,34.226,229.681,38.578z"/>
						</g>
					</g>
				</g>
				<g>
					<g>
						<path style="fill:#0060FF;" d="M389.595,412.421c-1.8,1.67-3.622,3.275-5.487,4.858c-5.834,5.01-11.972,9.651-18.392,13.881        c-0.325,0.239-0.672,0.455-0.998,0.672c-7.656,5.053-15.681,9.608-24.031,13.512c-6.311,2.993-12.796,5.682-19.455,8.003        l16.418-126.053l8.372-64.284c0,0,0.607,0.629,1.648,1.778c0.239,0.282,0.521,0.586,0.824,0.933        c7.352,8.263,28.954,34.159,34.485,58.298c0.26,1.106,0.499,2.299,0.716,3.579        C387.318,347.031,388.901,385.115,389.595,412.421z"/>
					</g>
				</g>
				<g>
					<g>
						<g>
							<g>
								<g>
									<path style="fill:#FCF2E9;" d="M261.116,410.906c-2.181,0.409-12.065-26.152-18.109-43.011           c-2.817-7.816-4.794-13.542-4.794-13.542l24.062-9.861c0,0,0.682,1.295,1.84,3.499           c5.953,11.338,24.471,46.669,25.47,49.577C290.79,401.067,264.32,410.338,261.116,410.906z"/>
								</g>
							</g>
						</g>
						<g style="opacity:0.38;">
							<g>
								<g>
									<path style="fill:#B8B9FD;" d="M264.115,347.991c-6.521,7.157-13.587,13.814-21.108,19.903           c-2.817-7.816-4.794-13.542-4.794-13.542l24.062-9.861C262.275,344.492,262.957,345.787,264.115,347.991z"/>
								</g>
							</g>
						</g>
					</g>
					<g>
						<g>
							<g>
								<g>
									<path style="fill:#FCF2E9;" d="M392.671,330.519c-7.657-3.317-22.766-7.407-51.985-3.635           c-31.809,4.135-64.687,16.814-92.793,27.697c-0.17,0.07-1.087-0.583-1.25-0.519c-0.207,0.08,0.34,0.875,0.137,0.951           c-3.84,1.5-7.612,2.954-11.247,4.34c-0.174,0.065-0.796-0.569-0.971-0.504c-0.189,0.071,0.069,0.842-0.12,0.912           c-3.567,1.363-7.044,2.658-10.384,3.862l-43.644-21.616l25.717-38.39c2.727-0.795,5.544-1.613,8.407-2.499           c0.203-0.051,0.372,0.702,0.585,0.637c0.169-0.051,0.38-0.917,0.551-0.978c3.09-0.932,6.248-1.931,9.384-2.977           c0.194-0.057,0.386,1.476,0.572,1.416c0.184-0.059,0.361-1.712,0.542-1.78c9.157-3.022,18.29-6.407,26.356-9.997           c32.082-14.314,44.51-19.381,61.097-33.263c15.905-13.315,27.061-34.854,34.741-44.851           c2.59-3.363,40.398,23.171,46.578,63.41C401.123,312.952,396.601,332.223,392.671,330.519z"/>
								</g>
							</g>
						</g>
						<g>
							<g>
								<g>
									<path style="fill:#B8B9FD;" d="M224.058,363.623c-16.609,5.953-30.264,9.702-39.216,8.134           c-5.589-1-17.154-24.311-16.768-44.328c0.159-8.248,5.794-15.382,13.814-17.336c6.271-1.545,14.791-3.772,24.243-6.475           C204.541,324.884,211.107,346.696,224.058,363.623z"/>
								</g>
							</g>
						</g>
						<g>
							<g>
								<g>
									<path style="fill:#B8B9FD;" d="M399.487,333.859c-0.909-0.136-2.886-1.636-6.816-3.34           c1.704-31.014-4.726-62.46-18.631-90.225c-6.044-12.11-14.314-24.175-25.675-30.968c2.59-3.363,4.771-5.408,6.634-5.408           c7.362,0,41.784,30.923,47.964,71.162C409.143,315.296,404.894,334.631,399.487,333.859z"/>
								</g>
							</g>
						</g>
						<g>
							<g>
								<g>
									<path style="fill:#040308;" d="M247.893,354.581c-0.386,0.159-0.75,0.295-1.113,0.432           c-12.474-16.473-20.176-36.604-21.721-57.212c0.386-0.114,0.75-0.227,1.113-0.363           C227.648,318.022,235.351,338.176,247.893,354.581z"/>
								</g>
							</g>
						</g>
						<g>
							<g>
								<g>
									<path style="fill:#040308;" d="M235.532,359.352c-0.363,0.136-0.727,0.273-1.09,0.409           c-11.951-17.2-18.972-37.694-19.903-58.643c0.363-0.091,0.75-0.204,1.136-0.341           C216.561,321.703,223.559,342.22,235.532,359.352z"/>
								</g>
							</g>
						</g>
					</g>
				</g>
				<g>
					<g>
						<g>
							<g>
								<path style="fill:#FFB4DC;" d="M199.842,403.642c0,0,44.48-48.412,47.781-46.425c3.301,1.987-10.105,33.856-10.105,33.856          s40.952-33.783,45.545-30.407c4.593,3.376-23.124,30.73-23.124,30.73s13.459-16.27,14.882-15.76          c1.422,0.51,8.446,5.927,6.769,11.175c-1.381,4.318-3.43,6.982-3.43,6.982s8.48,5.45,5.767,11.639          c-2.714,6.189-6.21,9.567-6.21,9.567s4.387,2.747,1.934,7.177c-2.453,4.43-60.942,25.132-60.942,25.132L199.842,403.642z"/>
							</g>
						</g>
					</g>
					<g>
						<g>
							<path style="fill:#0060FF;" d="M221.445,446.537l-0.043,0.043c-0.564,0.455-6.203,5.14-15.182,11.538         c-0.521,0.369-1.063,0.759-1.627,1.149c-23.011,16.18-65.477,41.815-101.068,39.581         c-65.109-4.121-46.044-106.88-46.044-106.88l10.671-32.077l15.377,4.229l45.003,12.406l5.574,1.54l17.806,4.902         l47.259,13.035l4.728,1.28l0.108,0.043l0.477,1.323l16.895,47.715L221.445,446.537z"/>
						</g>
					</g>
					<g>
						<g>
							<path style="fill:#040308;" d="M129.679,410.9c-0.034,0-0.068-0.004-0.104-0.008c-0.411-0.057-0.699-0.436-0.642-0.849         l10.253-74.34c0.055-0.411,0.419-0.699,0.849-0.642c0.411,0.057,0.699,0.436,0.642,0.849l-10.253,74.34         C130.373,410.627,130.049,410.9,129.679,410.9z"/>
						</g>
					</g>
					<g>
						<g>
							<path style="fill:#040308;" d="M205.044,459.091c-0.233,0-0.464-0.11-0.612-0.316c-0.241-0.337-0.165-0.807,0.174-1.051         l15.944-11.461l-18.02-50.559l-15.199,4.901l-74.946,13.869c-0.417,0.074-0.803-0.197-0.879-0.604         c-0.074-0.409,0.195-0.803,0.604-0.879l74.853-13.843l15.8-5.1c0.381-0.127,0.803,0.078,0.94,0.464l18.456,51.781         c0.112,0.316,0.002,0.667-0.271,0.864l-16.406,11.791C205.351,459.045,205.196,459.091,205.044,459.091z"/>
						</g>
					</g>
				</g>
			</g>
			<g>
				<g>
					<g>
						<g>
							<path style="fill:#FCF2E9;" d="M485.677,70.765v101.369H345.27V70.765c0-4.28,3.476-7.782,7.782-7.782h124.843         C482.175,62.983,485.677,66.485,485.677,70.765z"/>
						</g>
					</g>
				</g>
				<g>
					<g>
						<g>
							<g>
								<path style="fill:#FF470C;" d="M485.677,70.765v24.953H345.27V70.765c0-4.28,3.476-7.782,7.782-7.782h124.843          C482.175,62.983,485.677,66.485,485.677,70.765z"/>
							</g>
						</g>
					</g>
					<g>
						<g>
							<g>
								<g>
									<circle style="fill:#FCF2E9;" cx="374.687" cy="77.445" r="6.457"/>
								</g>
							</g>
						</g>
						<g>
							<g>
								<g>
									<circle style="fill:#FCF2E9;" cx="447.536" cy="77.445" r="6.457"/>
								</g>
							</g>
						</g>
						<g>
							<g>
								<g>
									<path style="fill:#040308;" d="M457.196,57.38c-6.9,0-12.529,5.603-12.529,12.502c0,5.24,3.242,9.753,7.834,11.621           c0.233-0.285,0.467-0.623,0.674-1.038c-4.28-1.608-7.315-5.758-7.315-10.583c0-6.251,5.084-11.335,11.335-11.335           c3.683,0,6.952,1.764,9.001,4.488h1.479C465.418,59.637,461.579,57.38,457.196,57.38z"/>
								</g>
							</g>
						</g>
						<g>
							<g>
								<g>
									<path style="fill:#040308;" d="M384.346,57.38c-6.9,0-12.528,5.603-12.528,12.502c0,5.24,3.242,9.753,7.833,11.621           c0.234-0.285,0.467-0.623,0.674-1.038c-4.28-1.608-7.315-5.758-7.315-10.583c0-6.251,5.084-11.335,11.335-11.335           c3.683,0,6.952,1.764,9.001,4.488h1.479C392.569,59.637,388.73,57.38,384.346,57.38z"/>
								</g>
							</g>
						</g>
					</g>
				</g>
				<g>
					<g>
						<g>
							<path style="fill:#040308;" d="M382.649,146.073V114.73h6.94l3.269,22.746l3.268-22.746h6.941v31.343h-4.656v-23.731         l-3.673,23.731h-4.118l-3.672-23.731v23.731H382.649z"/>
						</g>
					</g>
					<g>
						<g>
							<path style="fill:#040308;" d="M421.819,146.073l-0.85-6.135h-5.687l-0.85,6.135h-4.568l5.104-31.343h6.672l5.104,31.343         H421.819z M415.909,135.685h4.433l-2.239-15.807L415.909,135.685z"/>
						</g>
					</g>
					<g>
						<g>
							<path style="fill:#040308;" d="M435.964,146.073V132.73l-5.956-18h5.239l3.404,11.687l3.402-11.687h4.791l-5.955,18v13.344         H435.964z"/>
						</g>
					</g>
				</g>
			</g>
			<g>
				<g>
					<g>
						<g>
							<path style="fill:#FF470C;" d="M28.44,203.476c-16.172-33.394-2.211-73.575,31.183-89.747         c33.394-16.172,73.575-2.211,89.747,31.183c15.21,31.407,3.761,68.812-25.436,86.607l27.603,27.078l-42.521-20.3         C77.745,248.149,43.154,233.861,28.44,203.476z"/>
						</g>
					</g>
				</g>
				<g>
					<g>
						<g>
							<path style="fill:#FCF2E9;" d="M122.236,151.224c-12.913-17.71-33.306,4.416-36.365,7.923         c-3.06-3.507-23.452-25.632-36.365-7.923c-13.588,18.636,34.662,61.397,37.434,63.828c0.001,0.059,0.002,0.118,0.002,0.118         s0.045-0.041,0.065-0.059c0.021,0.018,0.068,0.059,0.068,0.059s-0.002-0.059-0.003-0.119         C89.74,212.602,135.821,169.855,122.236,151.224z"/>
						</g>
					</g>
				</g>
			</g>
			<g>
				<g>
					<g>
						<g>
							<g>
								<path style="fill:#FCF2E9;" d="M440.387,197.441c0.51-0.569,1.027-1.132,1.553-1.687c1.272-1.341,2.641-2.668,4.352-3.366          c5.11-2.085,8.264,3.527,6.547,7.855c-0.675,1.701-1.822,3.169-3.028,4.546c-3.736,4.267-8.094,7.939-12.571,11.399          c-4.506,3.483-8.97,7.031-13.511,10.468c-1.52,1.15-3.064,2.272-4.649,3.331c-0.815,0.544-1.64,1.073-2.479,1.58          c-0.564,0.341-1.944,0.8-2.31,1.32c4.352-6.184,8.364-12.512,12.927-18.536C431.527,208.662,435.62,202.764,440.387,197.441          z"/>
							</g>
						</g>
					</g>
					<g>
						<g>
							<g>
								<path style="fill:#FCF2E9;" d="M462.074,225.941c0.722-0.249,1.448-0.489,2.178-0.717c1.764-0.553,3.605-1.045,5.441-0.822          c5.479,0.666,5.503,7.103,1.895,10.048c-1.417,1.157-3.135,1.881-4.858,2.497c-5.341,1.908-10.935,2.995-16.53,3.839          c-5.631,0.849-11.258,1.776-16.898,2.567c-1.888,0.265-3.782,0.493-5.683,0.646c-0.977,0.079-1.955,0.139-2.934,0.173          c-0.659,0.023-2.087-0.248-2.66,0.029c6.811-3.283,13.396-6.858,20.314-9.899          C448.873,231.429,455.319,228.27,462.074,225.941z"/>
							</g>
						</g>
					</g>
					<g>
						<g>
							<g>
								<path style="fill:#FCF2E9;" d="M473.275,260.799c0.764-0.02,1.528-0.029,2.293-0.027c1.849,0.005,3.753,0.092,5.435,0.858          c5.023,2.288,3.103,8.432-1.225,10.152c-1.7,0.676-3.556,0.848-5.385,0.915c-5.667,0.208-11.329-0.444-16.918-1.327          c-5.625-0.889-11.269-1.703-16.885-2.65c-1.88-0.317-3.754-0.671-5.613-1.098c-0.955-0.22-1.906-0.457-2.85-0.72          c-0.635-0.177-1.915-0.866-2.545-0.776c7.485-1.076,14.841-2.497,22.354-3.309          C459.033,262.049,466.132,260.982,473.275,260.799z"/>
							</g>
						</g>
					</g>
				</g>
			</g>
			<g>
				<g>
					<g>
						<g>
							<g>
								<path style="fill:#FCF2E9;" d="M164.913,293.361v108.985H21.637V293.361c0-6.464,5.228-11.692,11.692-11.692h119.892          C159.685,281.669,164.913,286.897,164.913,293.361z"/>
							</g>
						</g>
					</g>
					<g>
						<g>
							<g>
								<path style="fill:#FFB4DC;" d="M164.913,293.361v10.473H21.637v-10.473c0-6.464,5.228-11.692,11.692-11.692h119.892          C159.685,281.669,164.913,286.897,164.913,293.361z"/>
							</g>
						</g>
					</g>
					<g>
						<g>
							<g>
								<g>
									<path style="fill:#FF470C;" d="M130.399,293.46c0,1.963-1.591,3.554-3.554,3.554c-1.963,0-3.554-1.591-3.554-3.554           c0-1.963,1.591-3.554,3.554-3.554C128.808,289.906,130.399,291.497,130.399,293.46z"/>
								</g>
							</g>
						</g>
						<g>
							<g>
								<g>
									<path style="fill:#FFD484;" d="M141.771,293.46c0,1.963-1.591,3.554-3.554,3.554c-1.963,0-3.554-1.591-3.554-3.554           c0-1.963,1.591-3.554,3.554-3.554C140.18,289.906,141.771,291.497,141.771,293.46z"/>
								</g>
							</g>
						</g>
						<g>
							<g>
								<g>
									<path style="fill:#B8B9FD;" d="M153.549,293.46c0,1.963-1.591,3.554-3.554,3.554s-3.554-1.591-3.554-3.554           c0-1.963,1.591-3.554,3.554-3.554S153.549,291.497,153.549,293.46z"/>
								</g>
							</g>
						</g>
					</g>
				</g>
				<g>
					<g>
						<g>
							<g>
								<path style="fill:#B8B9FD;" d="M124.731,337.196c-0.078-0.13-0.129-0.259-0.208-0.389          c-6.848-12.632-15.978-18.051-28.824-20.631c-0.28-0.056-4.572-4.569-4.858-4.543          c-21.892,0.467-39.505,18.339-39.505,40.387c0,22.307,18.079,40.387,40.387,40.387c19.662,0,36.055-14.033,39.661-32.631          l-2.01-3.748C129.374,349.206,127.688,342.825,124.731,337.196z M91.724,368.569c-9.13,0-16.549-7.419-16.549-16.549          c0-8.845,6.952-16.082,15.667-16.523l2.229-2.186c5.318,0,9.964,3.509,12.972,7.426c0.13,0.13,5.32,7.857,5.424,7.987          l-3.428,6.175C106.69,362.655,99.894,368.569,91.724,368.569z"/>
							</g>
						</g>
					</g>
					<g>
						<g>
							<g>
								<path style="fill:#FFD484;" d="M118.454,340.325l-13.683,1.527c-3.028-3.911-7.735-6.407-13.047-6.407          c-0.311,0-0.597,0-0.882,0.052v-23.864c0.285-0.026,0.596-0.026,0.882-0.026c15.354,0,28.726,8.565,35.562,21.192          C127.355,332.929,118.454,340.325,118.454,340.325z"/>
							</g>
						</g>
					</g>
					<g>
						<g>
							<g>
								<path style="fill:#FFB4DC;" d="M132.136,352.02c0,2.646-0.259,5.239-0.752,7.756l-23.345-4.877          c0.182-0.934,0.259-1.894,0.259-2.879c0-3.657-1.167-7.029-3.19-9.753c-0.104-0.13-0.208-0.285-0.337-0.415l22.515-9.053          c0.078,0.13,0.13,0.259,0.208,0.389C130.451,338.817,132.136,345.198,132.136,352.02z"/>
							</g>
						</g>
					</g>
				</g>
				<g>
					<g>
						<g>
							<g>
								<rect x="143.5" y="314.481" style="fill:#FFD484;" width="9.493" height="9.492"/>
							</g>
						</g>
					</g>
					<g>
						<g>
							<g>
								<rect x="143.5" y="330.155" style="fill:#FFB4DC;" width="9.493" height="9.493"/>
							</g>
						</g>
					</g>
					<g>
						<g>
							<g>
								<rect x="143.5" y="345.608" style="fill:#B8B9FD;" width="9.493" height="9.493"/>
							</g>
						</g>
					</g>
				</g>
			</g>
			<g>
				<g>
					<g>
						<g>
							<g>
								<path style="fill:#FCF2E9;" d="M475.894,336.336H353.437c-6.487,0-11.746,5.259-11.746,11.746v25.491          c0,6.487,5.259,11.746,11.746,11.746h34.164l-2.925,25.491l18.805-25.491h72.413c6.487,0,11.746-5.259,11.746-11.746          v-25.491C487.64,341.595,482.381,336.336,475.894,336.336z"/>
							</g>
						</g>
					</g>
				</g>
				<g>
					<g>
						<g>
							<g>
								<path style="fill:#B8B9FD;" d="M465.232,353.114h-98.899c-1.214,0-2.208-0.993-2.208-2.208l0,0          c0-1.214,0.994-2.207,2.208-2.207h98.899c1.214,0,2.207,0.993,2.207,2.207l0,0          C467.439,352.12,466.446,353.114,465.232,353.114z"/>
							</g>
						</g>
					</g>
					<g>
						<g>
							<g>
								<path style="fill:#B8B9FD;" d="M465.232,363.047h-98.899c-1.214,0-2.208-0.993-2.208-2.207l0,0          c0-1.214,0.994-2.208,2.208-2.208h98.899c1.214,0,2.207,0.994,2.207,2.208l0,0          C467.439,362.054,466.446,363.047,465.232,363.047z"/>
							</g>
						</g>
					</g>
					<g>
						<g>
							<g>
								<path style="fill:#B8B9FD;" d="M465.232,372.319h-98.899c-1.214,0-2.208-0.993-2.208-2.207l0,0          c0-1.214,0.994-2.208,2.208-2.208h98.899c1.214,0,2.207,0.993,2.207,2.208l0,0          C467.439,371.326,466.446,372.319,465.232,372.319z"/>
							</g>
						</g>
					</g>
				</g>
			</g>
			<g>
				<g>
					<g>
						<g>
							<polygon style="fill:#FCF2E9;" points="194.385,199.025 205.015,202.296 194.385,205.566 191.115,216.196 187.845,205.566          177.215,202.296 187.845,199.025 191.115,188.396        "/>
						</g>
					</g>
				</g>
				<g>
					<g>
						<g>
							<polygon style="fill:#FCF2E9;" points="157.994,239.176 165.749,241.562 157.994,243.948 155.608,251.703 153.222,243.948          145.466,241.562 153.222,239.176 155.608,231.42        "/>
						</g>
					</g>
				</g>
				<g>
					<g>
						<g>
							<polygon style="fill:#FCF2E9;" points="388.487,192.177 396.242,194.563 388.487,196.949 386.101,204.705 383.715,196.949          375.96,194.563 383.715,192.177 386.101,184.422        "/>
						</g>
					</g>
				</g>
				<g>
					<g>
						<g>
							<polygon style="fill:#FCF2E9;" points="428.905,290.834 437.555,293.495 428.905,296.156 426.245,304.805 423.583,296.156          414.935,293.495 423.583,290.834 426.245,282.185        "/>
						</g>
					</g>
				</g>
				<g>
					<g>
						<g>
							<polygon style="fill:#FCF2E9;" points="324.225,198.034 332.875,200.695 324.225,203.356 321.565,212.005 318.904,203.356          310.255,200.695 318.904,198.034 321.565,189.385        "/>
						</g>
					</g>
				</g>
				<g>
					<g>
						<g>
							<polygon style="fill:#FCF2E9;" points="329.231,136.12 335.536,138.059 329.231,139.999 327.292,146.303 325.352,139.999          319.048,138.059 325.352,136.12 327.292,129.816        "/>
						</g>
					</g>
				</g>
				<g>
					<g>
						<g>
							<polygon style="fill:#FCF2E9;" points="160.338,126.155 166.643,128.095 160.338,130.034 158.399,136.339 156.459,130.034          150.155,128.095 156.459,126.155 158.399,119.851        "/>
						</g>
					</g>
				</g>
				<g>
					<g>
						<g>
							<polygon style="fill:#FCF2E9;" points="97.932,258.502 108.545,261.767 97.932,265.032 94.667,275.646 91.401,265.032          80.788,261.767 91.401,258.502 94.667,247.888        "/>
						</g>
					</g>
				</g>
			</g>
		</g>
	</g>
</g>















</svg>
