<svg width="16" height="16" viewBox="0 0 16 16" fill="none" xmlns="http://www.w3.org/2000/svg">
<path d="M15.5304 3.29247L12.6147 0.447002C12.3163 0.160191 11.9185 0 11.5046 0C11.0907 0 10.6929 0.160191 10.3945 0.447002L1.92136 8.71643C1.8542 8.79278 1.80179 8.88092 1.76679 8.97639L0.0665356 14.0139C-0.00773721 14.2284 -0.0201094 14.4594 0.0308357 14.6806C0.0817807 14.9018 0.193983 15.1042 0.354595 15.2645C0.518991 15.4283 0.724848 15.5442 0.950107 15.5999C1.17536 15.6556 1.41153 15.649 1.6333 15.5807L6.77623 13.9366C6.85142 13.9108 6.92069 13.8702 6.97998 13.8172C6.97998 13.8172 7.02213 13.8172 7.03618 13.8172L15.5304 5.50562C15.679 5.36212 15.7971 5.19019 15.8778 5.00008C15.9584 4.80997 16 4.60556 16 4.39904C16 4.19252 15.9584 3.98812 15.8778 3.79801C15.7971 3.60789 15.679 3.43597 15.5304 3.29247ZM6.59355 12.2856L3.41787 9.22229L9.55144 3.23627L12.699 6.30656L6.59355 12.2856ZM1.49981 14.1404L2.72231 10.494L5.23756 12.946L1.49981 14.1404ZM14.5468 4.49389L13.7107 5.31592L10.5632 2.24562L11.3782 1.4517C11.3945 1.4347 11.4142 1.42118 11.4359 1.41194C11.4576 1.40271 11.481 1.39795 11.5046 1.39795C11.5282 1.39795 11.5516 1.40271 11.5733 1.41194C11.5951 1.42118 11.6147 1.4347 11.6311 1.4517L14.5468 4.3042C14.5628 4.31518 14.5758 4.32987 14.5848 4.347C14.5938 4.36413 14.5985 4.3832 14.5985 4.40256C14.5985 4.42191 14.5938 4.44098 14.5848 4.45811C14.5758 4.47525 14.5628 4.48994 14.5468 4.50092V4.49389Z" fill="black"/>
</svg>
