<?xml version="1.0" encoding="UTF-8"?>
<!-- Generator: Adobe Illustrator 25.2.1, SVG Export Plug-In . SVG Version: 6.00 Build 0)  -->
<svg xmlns="http://www.w3.org/2000/svg" xmlns:xlink="http://www.w3.org/1999/xlink" version="1.1" id="Capa_1" x="0px" y="0px" viewBox="0 0 512 512" style="enable-background:new 0 0 512 512;" xml:space="preserve" width="512" height="512">
<g>
	<g>
		<g>
			<path style="fill:#FFFFFF;" d="M481.039,100.215h-82.265c1.071-3.141,1.679-6.494,1.679-9.993     c0-17.131-13.939-31.07-31.072-31.07c-4.286,0-8.372,0.873-12.091,2.45c1.955-3.99,2.195-8.721,0.331-12.99     c-2.487-5.699-8.098-9.29-14.18-9.29c-0.713,0-1.431,0.048-2.152,0.149l-23.286,3.258l-11.923-23.634     c-2.693-5.339-8.116-8.511-13.823-8.511c-1.618,0-3.258,0.255-4.865,0.786c-7.282,2.411-11.701,9.794-10.386,17.35l4.44,25.514     l-12.061,6.435c-2.189-2.566-4.082-4.719-5.516-6.314c-3.417-3.759-8.29-5.916-13.367-5.916c-5.158,0-10.084,2.217-13.584,6.161     c-4.596,5.251-15.768,18.492-27.89,36.326H37.898C17,90.925,0,107.925,0,128.821v127.363c0,8.549,6.932,15.481,15.481,15.481     h16.807c-1.999,4.102-3.154,8.689-3.154,13.551c0,17.131,13.939,31.07,31.07,31.07c1.518,0,2.999-0.146,4.459-0.358     c-5.527,23.053,1.123,48.214,19.133,65.483l1.187,28.704l-13.377-3.527c-1.313-0.345-2.638-0.514-3.948-0.514     c-5.44,0-10.61,2.88-13.42,7.768c-3.485,6.065-2.472,13.712,2.472,18.658l10.078,10.083l-13.566,16.748     c-4.775,5.893-4.576,14.382,0.474,20.044c3.031,3.402,7.272,5.18,11.563,5.18c2.857,0,5.737-0.789,8.297-2.417l7.234-4.598     l1.444,10.504c1.008,7.33,7.062,12.921,14.447,13.347c0.303,0.017,0.6,0.025,0.897,0.025c7.022,0,13.218-4.752,14.987-11.626     l2.195-8.544c0.945,0.086,1.897,0.131,2.86,0.131c0.305,0,0.61-0.005,0.917-0.015c18.353-0.539,53.495-1.446,82.637-1.446     c7.44,0,14.135,0.058,19.89,0.176c42.703,0.872,88.571,0.882,89.029,0.882c0.166,0,0.335-0.002,0.501-0.007     c3.215-0.106,6.793-0.34,10.64-0.7c0.28-0.02,0.559-0.046,0.837-0.081c21.503-2.094,46.344-7.587,56.639-10.003     c0.255,0.013,0.512,0.018,0.771,0.018c1.184,0,2.366-0.131,3.527-0.396c0.257,0.005,0.514,0.008,0.771,0.008     c11.142,0,22.959-3.732,35.167-11.102c1.174-0.396,2.326-0.932,3.449-1.613c7.219-4.513,14.077-10.222,20.885-17.393     c5.294-2.26,16.143-7.002,26.492-12.203c15.778-7.932,37.386-18.794,31.553-36.293c-1.222-3.664-5.218-11.565-17.247-13.518     c2.033-6.652,2.106-12.089,0.421-16.932c-2.283-6.566-7.529-11.25-14.365-12.848c-1.567-0.37-3.2-0.557-4.855-0.557     c-3.001,0-8.353,0-17.794,6.37c-0.359-0.432-0.739-0.845-1.128-1.247c0.484-2.157,0.565-4.428,0.063-6.702l-4.704-21.299     l15.886-6.808c6.385-2.736,10.164-9.388,9.247-16.272c-0.917-6.884-6.307-12.316-13.183-13.286l-23.281-3.283l-4.956-26.005     c-0.048-0.251-0.146-0.479-0.206-0.726h55.814c17.073,0,30.961-13.888,30.961-30.961v-95.958     C512,114.103,498.112,100.215,481.039,100.215z"/>
		</g>
	</g>
	<g>
		<g>
			<g>
				
					<ellipse transform="matrix(0.9321 -0.3622 0.3622 0.9321 -70.021 151.1844)" style="fill:#B8B9FD;" cx="368.283" cy="262.377" rx="39.964" ry="39.964"/>
			</g>
		</g>
		<g>
			<g>
				<g>
					<g>
						<g>
							<path style="fill:#FDF3EA;" d="M255.859,128.822v127.362H15.482V128.822c0-12.366,10.05-22.416,22.416-22.416h195.544         C245.846,106.405,255.859,116.455,255.859,128.822z"/>
						</g>
					</g>
					<g>
						<g>
							<path style="fill:#FFD484;" d="M255.859,128.822v5.268H15.482v-5.268c0-12.366,10.05-22.416,22.416-22.416h195.544         C245.846,106.405,255.859,116.455,255.859,128.822z"/>
						</g>
					</g>
				</g>
				<g>
					<g>
						<g>
							<path style="fill:#FF470C;" d="M43.512,120.965c0,3.029-2.456,5.485-5.485,5.485c-3.029,0-5.485-2.456-5.485-5.485         c0-3.029,2.456-5.485,5.485-5.485C41.057,115.48,43.512,117.936,43.512,120.965z"/>
						</g>
					</g>
					<g>
						<g>
							<path style="fill:#B8B9FD;" d="M60.444,120.965c0,3.029-2.456,5.485-5.485,5.485c-3.029,0-5.485-2.456-5.485-5.485         c0-3.029,2.456-5.485,5.485-5.485C57.988,115.48,60.444,117.936,60.444,120.965z"/>
						</g>
					</g>
					<g>
						<g>
							<path style="fill:#0060FF;" d="M77.375,120.965c0,3.029-2.456,5.485-5.485,5.485c-3.029,0-5.485-2.456-5.485-5.485         c0-3.029,2.456-5.485,5.485-5.485C74.92,115.48,77.375,117.936,77.375,120.965z"/>
						</g>
					</g>
				</g>
			</g>
		</g>
		<g>
			<g>
				<g>
					<rect x="72.706" y="156.099" style="fill:#FFB4DC;" width="123.878" height="70.267"/>
				</g>
			</g>
			<g>
				<g>
					<path style="fill:#040308;" d="M134.905,196.426c-0.096,0-0.191-0.026-0.275-0.08l-62.199-39.818       c-0.236-0.152-0.305-0.467-0.155-0.705c0.152-0.239,0.469-0.304,0.705-0.155l61.923,39.642l61.404-39.64       c0.236-0.156,0.551-0.085,0.705,0.152c0.152,0.236,0.084,0.551-0.152,0.705l-61.679,39.818       C135.097,196.399,135.001,196.426,134.905,196.426z"/>
				</g>
			</g>
			<g>
				<g>
					<path style="fill:#040308;" d="M72.706,226.874c-0.159,0-0.316-0.074-0.416-0.214c-0.163-0.229-0.109-0.548,0.121-0.71       l51.789-36.694c0.232-0.164,0.549-0.11,0.71,0.121c0.163,0.229,0.109,0.548-0.121,0.71l-51.789,36.694       C72.911,226.844,72.808,226.874,72.706,226.874z"/>
				</g>
			</g>
			<g>
				<g>
					<path style="fill:#040308;" d="M196.584,226.874c-0.11,0-0.221-0.035-0.315-0.109l-48.667-38.256       c-0.221-0.173-0.26-0.494-0.085-0.715c0.174-0.221,0.493-0.262,0.715-0.085l48.667,38.256c0.221,0.173,0.26,0.494,0.085,0.715       C196.884,226.808,196.735,226.874,196.584,226.874z"/>
				</g>
			</g>
		</g>
		<g>
			<g>
				<g>
					<path style="fill:#FFB4DC;" d="M98.142,353.693c-0.341-8.232,5.808-15.286,14.012-16.052       c32.409-3.026,111.473-10.332,162.805-14.439c65.875-5.27,119.454-3.513,115.062,11.418       c-4.392,14.932-102.766,28.107-102.766,28.107l67.618,27.741c0,0,15.824-20.714,22.851-17.2       c7.027,3.513,0.878,22.837,0.878,22.837h18.445c0,0,22.837-35.134,34.255-34.255c11.418,0.878,0,29.864,0,29.864       s24.976-30.978,35.671-27.672c8.558,2.646-10.309,32.612-10.309,32.612s27.338-8.454,29.973-0.549       c2.635,7.905-52.7,30.742-52.7,30.742s-28.107,30.742-54.457,27.228c0,0-42.16,10.54-69.389,11.418c0,0-45.674,0-88.712-0.878       c-31.178-0.636-79.019,0.558-103.301,1.274c-8.473,0.25-15.559-6.365-15.909-14.834L98.142,353.693z"/>
				</g>
			</g>
			<g>
				<g>
					<path style="fill:#040308;" d="M320.194,464.821c-0.263,0-0.51-0.162-0.605-0.423c-0.123-0.335,0.049-0.706,0.383-0.828       c12.398-4.547,33.308-26.809,46.689-45.445c6.743-9.393,11.397-19.529,13.459-29.316c0.544-2.584,1.313-7.458,0.341-11.061       c-0.517-1.914-2.006-4.008-4.168-4.375c-0.879-0.146-1.891-0.014-3.003,0.399c-5.083,1.893-9.785,7.47-13.934,12.391       c-1.641,1.947-3.191,3.785-4.677,5.299c-7.668,7.818-14.309,14.094-20.899,19.752c-1.296,1.112-2.623,2.295-3.982,3.507       c-6.179,5.505-13.183,11.745-20.802,14.488c-11.025,3.969-50.496-4.024-52.17-4.366c-0.35-0.071-0.575-0.412-0.503-0.761       c0.07-0.35,0.42-0.582,0.761-0.503c0.409,0.084,40.792,8.266,51.475,4.416c7.385-2.658,14.289-8.81,20.381-14.238       c1.365-1.217,2.698-2.405,4-3.522c6.562-5.635,13.177-11.886,20.819-19.677c1.451-1.479,2.986-3.3,4.612-5.227       c4.251-5.041,9.069-10.755,14.471-12.766c1.324-0.495,2.555-0.654,3.668-0.462c2.396,0.406,4.436,2.49,5.198,5.309       c1.043,3.865,0.245,8.967-0.324,11.665c-2.099,9.96-6.826,20.264-13.672,29.8c-13.493,18.794-34.654,41.269-47.293,45.904       C320.343,464.808,320.268,464.821,320.194,464.821z"/>
				</g>
			</g>
			<g>
				<g>
					<path style="fill:#040308;" d="M379.483,454.72c-0.226,0-0.444-0.117-0.562-0.327c-0.176-0.31-0.067-0.703,0.242-0.879       c6.913-3.918,12.816-10.773,18.024-16.821c0.735-0.854,1.461-1.697,2.179-2.52c7.986-9.151,15.496-18.668,22.321-28.287       c3.857-5.435,17.62-30.113,13.862-39.774c-0.769-1.976-2.203-3.165-4.385-3.633c-7.009-1.519-17.509,12.59-26.779,25.022       c-2.376,3.186-4.62,6.195-6.831,9.002c-11.357,14.412-35.059,29.421-35.297,29.571c-0.307,0.19-0.701,0.096-0.89-0.201       c-0.191-0.302-0.099-0.7,0.201-0.89c0.236-0.149,23.754-15.042,34.971-29.278c2.2-2.794,4.44-5.796,6.811-8.975       c9.968-13.368,20.274-27.204,28.084-25.513c2.602,0.559,4.39,2.048,5.315,4.427c4.003,10.291-9.915,35.215-14.013,40.989       c-6.85,9.654-14.386,19.205-22.401,28.387c-0.716,0.822-1.44,1.662-2.174,2.514c-5.278,6.127-11.258,13.073-18.365,17.101       C379.7,454.693,379.591,454.72,379.483,454.72z"/>
				</g>
			</g>
			<g>
				<g>
					<path style="fill:#040308;" d="M413.847,444.07c-0.215,0-0.426-0.108-0.548-0.303c-0.19-0.302-0.097-0.7,0.205-0.888       c8.845-5.529,17.339-13.499,25.967-24.367c9.161-11.535,32.264-43.406,29.189-52.244c-0.377-1.083-1.152-1.748-2.37-2.032       c-9.783-2.296-35.858,28.936-36.117,29.251c0,0-0.321,0.269-0.597,0.043c-0.275-0.226-0.315-0.632-0.089-0.908       c1.078-1.313,26.468-32.122,37.098-29.642c1.659,0.389,2.767,1.353,3.294,2.865c3.936,11.314-28.034,51.755-29.396,53.471       c-8.721,10.984-17.322,19.049-26.295,24.657C414.081,444.038,413.963,444.07,413.847,444.07z"/>
				</g>
			</g>
			<g>
				<g>
					<path style="fill:#040308;" d="M354.229,390.711c-0.088,0-0.177-0.018-0.262-0.056c-0.517-0.231-51.821-23.086-64.161-26.983       c-12.337-3.895-39.833-9.152-40.11-9.205c-0.35-0.067-0.579-0.404-0.513-0.754c0.067-0.35,0.411-0.579,0.754-0.513       c0.277,0.053,27.849,5.322,40.257,9.24c12.408,3.919,63.779,26.806,64.296,27.037c0.325,0.145,0.472,0.526,0.327,0.851       C354.711,390.568,354.476,390.711,354.229,390.711z"/>
				</g>
			</g>
		</g>
		<g>
			<g>
				<g>
					<g>
						<path style="fill:#B8B9FD;" d="M179.889,392.159l32.013-16.71l3.039,11.639l-27.414,18.056        c-4.03,2.654-9.481,0.894-11.197-3.616l0,0C174.97,397.954,176.499,393.928,179.889,392.159z"/>
					</g>
				</g>
				<g>
					<g>
						<path style="fill:#B8B9FD;" d="M286.823,373.672l-2.96,11.945l25.155,14.694c3.839,2.242,8.754,1.183,11.329-2.441l0,0        c3.257-4.585,1.301-11.01-3.958-13.002L286.823,373.672z"/>
					</g>
				</g>
				<g>
					<g>
						<path style="fill:#0060FF;" d="M299.887,372.344c-3.277,16.719-5.599,27.272-5.599,27.272s-19.428,7.895-43.036,10.011        c-23.169,0.851-44.249-8.36-44.249-8.36s-2.064-9.727-4.98-25.285c-9.288-49.126-27.272-156.484-16.771-200.011        c0.258-1.084,0.542-2.193,0.851-3.277c13.184-49.564,53.254-97.373,62.465-107.9c1.032-1.161,2.813-1.161,3.845-0.026        c8.979,9.985,46.752,53.795,61.794,100.547c1.161,3.535,2.193,7.096,3.044,10.656        C327.597,218.827,309.614,322.729,299.887,372.344z"/>
					</g>
				</g>
				<g style="opacity:0.69;">
					<g>
						<path style="fill:#B8B9FD;" d="M314.206,165.315c-39.527,18.99-86.641,21.699-128.103,7.379        c13.184-49.564,53.254-97.373,62.465-107.9c1.032-1.161,2.813-1.161,3.845-0.026        C261.391,74.753,299.164,118.564,314.206,165.315z"/>
					</g>
				</g>
				<g>
					<g>
						<circle style="fill:#FDF3EA;" cx="252.781" cy="245.469" r="31.291"/>
					</g>
				</g>
				<g style="opacity:0.69;">
					<g>
						<path style="fill:#B8B9FD;" d="M299.887,372.344c-3.277,16.719-5.599,27.272-5.599,27.272s-19.428,7.895-43.036,10.011        c-23.169,0.851-44.249-8.36-44.249-8.36s-2.064-9.727-4.98-25.285c15.532,8.824,34.78,10.114,52.738,8.076        C270.241,382.303,285.489,378.356,299.887,372.344z"/>
					</g>
				</g>
				<g>
					<g>
						<path style="fill:#B8B9FD;" d="M250.428,391.274L250.428,391.274c4.736-0.483,8.952,3.002,9.368,7.745l2.288,19.517        c0.72,6.139-4.044,11.546-10.225,11.605l0,0c-6.07,0.058-10.898-5.074-10.47-11.128l1.372-19.405        C242.84,395.29,246.132,391.712,250.428,391.274z"/>
					</g>
				</g>
			</g>
			<g>
				<g>
					<g>
						<path style="fill:#FDF3EA;" d="M288.967,153.077c1.796,1.601,4.265,2.554,6.435,1.392c4.188-2.243,4.246-9.627,3.465-13.999        c-0.703-3.934-2.216-7.917-4.119-11.307c-2.28-4.063-7.629-9.462-11.917-5.261c-3.235,3.169-2.678,9.705-1.665,13.914        C282.126,141.804,284.955,149.502,288.967,153.077z"/>
					</g>
				</g>
				<g>
					<g>
						<path style="fill:#FDF3EA;" d="M305.614,165.985c0.143,3.408-2.183,6.273-5.194,6.399c-3.012,0.127-5.569-2.534-5.712-5.942        c-0.143-3.408,2.182-6.273,5.194-6.399C302.913,159.918,305.471,162.578,305.614,165.985z"/>
					</g>
				</g>
			</g>
		</g>
		<g>
			<g>
				<g>
					<path style="fill:#FDF3EA;" d="M481.039,115.695H345.117c-8.55,0-15.481,6.931-15.481,15.481v70.579l-34.255,23.294       l34.255-4.321v6.407c0,8.55,6.931,15.481,15.481,15.481h135.923c8.55,0,15.481-6.931,15.481-15.481v-95.958       C496.52,122.626,489.589,115.695,481.039,115.695z"/>
				</g>
			</g>
			<g>
				<g>
					<g>
						<g>
							<rect x="352.689" y="150.663" style="fill:#FFB4DC;" width="34.443" height="73.074"/>
						</g>
					</g>
					<g>
						<g>
							<rect x="375.248" y="150.663" style="fill:#B8B9FD;" width="11.884" height="73.074"/>
						</g>
					</g>
				</g>
				<g>
					<g>
						<g>
							<rect x="445.389" y="150.663" style="fill:#FFB4DC;" width="34.443" height="73.074"/>
						</g>
					</g>
					<g>
						<g>
							<rect x="467.948" y="150.663" style="fill:#B8B9FD;" width="11.884" height="73.074"/>
						</g>
					</g>
				</g>
				<g>
					<g>
						<g>
							<rect x="398.114" y="138.28" style="fill:#FFD484;" width="34.443" height="85.457"/>
						</g>
					</g>
					<g>
						<g>
							<rect x="420.673" y="138.28" style="fill:#B8B9FD;" width="11.884" height="85.457"/>
						</g>
					</g>
				</g>
			</g>
		</g>
		<g>
			<g>
				<g>
					<g>
						<g>
							
								<ellipse transform="matrix(0.0974 -0.9952 0.9952 0.0974 -212.0029 430.2306)" style="fill:#FDF3EA;" cx="131.199" cy="331.999" rx="52.992" ry="52.992"/>
						</g>
					</g>
					<g>
						<g>
							<polygon style="fill:#FDF3EA;" points="178.696,330.711 215.277,365.859 168.425,354.127        "/>
						</g>
					</g>
				</g>
			</g>
			<g>
				<g>
					<g>
						<path style="fill:#FF470C;" d="M130.308,320.942c0,0,17.108-20.71,27.613-6.303c10.505,14.407-28.213,48.023-28.213,48.023        S130.758,321.392,130.308,320.942z"/>
					</g>
				</g>
				<g>
					<g>
						<path style="fill:#FF470C;" d="M130.914,320.942c0,0-17.108-20.71-27.613-6.303c-10.505,14.407,26.506,48.023,26.506,48.023        S130.464,321.392,130.914,320.942z"/>
					</g>
				</g>
			</g>
		</g>
		<g>
			<g>
				<g>
					<path style="fill:#FDF3EA;" d="M356.425,355.92c0,8.61-6.98,15.591-15.59,15.591c-8.61,0-15.591-6.98-15.591-15.591       c0-8.61,6.98-15.59,15.591-15.59C349.445,340.33,356.425,347.31,356.425,355.92z"/>
				</g>
			</g>
			<g>
				<g>
					<path style="fill:#FFD484;" d="M75.796,285.214c0,8.61-6.98,15.59-15.59,15.59c-8.61,0-15.59-6.98-15.59-15.59       c0-8.61,6.98-15.591,15.59-15.591C68.816,269.624,75.796,276.604,75.796,285.214z"/>
				</g>
			</g>
			<g>
				<g>
					<g>
						<circle style="fill:#FF470C;" cx="369.381" cy="90.223" r="15.59"/>
					</g>
				</g>
				<g>
					<g>
						<circle style="fill:#B8B9FD;" cx="167.802" cy="272.478" r="6.807"/>
					</g>
				</g>
				<g>
					<g>
						<circle style="fill:#FFB4DC;" cx="312.728" cy="126.235" r="6.807"/>
					</g>
				</g>
				<g>
					<g>
						<circle style="fill:#B8B9FD;" cx="399.025" cy="367.339" r="6.807"/>
					</g>
				</g>
				<g>
					<g>
						<polygon style="fill:#FFD484;" points="406.271,298.609 410.223,261.719 417.25,298.609 451.505,303.44 423.838,315.297         431.304,349.113 411.541,320.567 394.853,348.674 402.318,313.98 375.529,305.196       "/>
					</g>
				</g>
				<g>
					<g>
						<polygon style="fill:#FFD484;" points="298.617,62.619 292.256,26.067 309.172,59.595 343.432,54.804 320.101,73.823         336.592,104.275 309.731,82.276 301.43,113.893 299.051,78.484 270.878,77.419       "/>
					</g>
				</g>
				<g>
					<g>
						<polygon style="fill:#FFD484;" points="98.061,429.571 118.256,398.447 107.855,434.532 136.231,454.32 106.191,452.396         97.571,485.937 92.84,451.541 65.252,469.074 87.59,441.497 67.66,421.556       "/>
					</g>
				</g>
			</g>
		</g>
	</g>
</g>















</svg>
