<svg width="28" height="32" viewBox="0 0 28 32" fill="none" xmlns="http://www.w3.org/2000/svg">
<path d="M14 2C6.27838 2 0 8.27847 0 16C0 23.7217 6.27838 30 14 30C21.7216 30 28 23.7217 28 16C28 8.27847 21.7216 2 14 2ZM14 3.75C20.7759 3.75 26.25 9.22417 26.25 16C26.25 22.7758 20.7759 28.25 14 28.25C7.22415 28.25 1.75 22.7758 1.75 16C1.75 9.22417 7.22415 3.75 14 3.75ZM8.75 9.00342C8.14542 9.00342 7.54084 9.15939 7 9.47168C5.91831 10.0961 5.25 11.251 5.25 12.5C5.2482 12.6149 5.26905 12.729 5.31137 12.8359C5.35368 12.9427 5.41663 13.0402 5.49661 13.1227C5.57659 13.2052 5.67204 13.2712 5.77752 13.3168C5.88299 13.3625 5.99642 13.3869 6.11133 13.3887C6.22854 13.3905 6.34492 13.3688 6.45357 13.3248C6.56221 13.2808 6.66091 13.2154 6.7438 13.1325C6.82669 13.0496 6.89208 12.9509 6.93609 12.8422C6.9801 12.7336 7.00183 12.6172 7 12.5C7 11.8735 7.33233 11.2991 7.875 10.9858C8.41767 10.6726 9.08233 10.6726 9.625 10.9858C10.1677 11.2991 10.5 11.8735 10.5 12.5C10.4984 12.6159 10.5198 12.7311 10.563 12.8387C10.6063 12.9463 10.6704 13.0442 10.7519 13.1268C10.8333 13.2093 10.9303 13.2749 11.0373 13.3197C11.1442 13.3644 11.259 13.3875 11.375 13.3875C11.491 13.3875 11.6058 13.3644 11.7127 13.3197C11.8197 13.2749 11.9167 13.2093 11.9981 13.1268C12.0796 13.0442 12.1437 12.9463 12.187 12.8387C12.2302 12.7311 12.2516 12.6159 12.25 12.5C12.25 11.251 11.5817 10.0961 10.5 9.47168C9.95916 9.15939 9.35458 9.00342 8.75 9.00342ZM19.25 9.00342C18.6454 9.00342 18.0408 9.15939 17.5 9.47168C16.4183 10.0961 15.75 11.251 15.75 12.5C15.7482 12.6149 15.7691 12.729 15.8114 12.8359C15.8537 12.9427 15.9166 13.0402 15.9966 13.1227C16.0766 13.2052 16.172 13.2712 16.2775 13.3168C16.383 13.3625 16.4964 13.3869 16.6113 13.3887C16.7285 13.3905 16.8449 13.3688 16.9536 13.3248C17.0622 13.2808 17.1609 13.2154 17.2438 13.1325C17.3267 13.0496 17.3921 12.9509 17.4361 12.8422C17.4801 12.7336 17.5018 12.6172 17.5 12.5C17.5 11.8735 17.8323 11.2991 18.375 10.9858C18.9177 10.6726 19.5823 10.6726 20.125 10.9858C20.6677 11.2991 21 11.8735 21 12.5C20.9984 12.6159 21.0198 12.7311 21.063 12.8387C21.1063 12.9463 21.1704 13.0442 21.2519 13.1268C21.3333 13.2093 21.4303 13.2749 21.5373 13.3197C21.6442 13.3644 21.759 13.3875 21.875 13.3875C21.991 13.3875 22.1058 13.3644 22.2127 13.3197C22.3197 13.2749 22.4167 13.2093 22.4981 13.1268C22.5796 13.0442 22.6437 12.9463 22.687 12.8387C22.7302 12.7311 22.7516 12.6159 22.75 12.5C22.75 11.251 22.0817 10.0961 21 9.47168C20.4592 9.15939 19.8546 9.00342 19.25 9.00342ZM7 17.75C6.99977 18.979 7.3231 20.1864 7.93749 21.2507C8.55188 22.3151 9.43567 23.199 10.5 23.8135C11.5641 24.4279 12.7712 24.7513 14 24.7513C15.2288 24.7513 16.4359 24.4279 17.5 23.8135C18.5643 23.199 19.4481 22.3151 20.0625 21.2507C20.6769 20.1864 21.0002 18.979 21 17.75H7Z" fill="#255EB1"/>
</svg>
