<svg width="28" height="32" viewBox="0 0 28 32" fill="none" xmlns="http://www.w3.org/2000/svg">
<path d="M1.41854 13.9933C0.259842 14.4616 -0.455087 12.6935 0.704388 12.2252L3.77761 10.9832L0.618668 9.13097C-0.466778 8.49669 0.496721 6.85176 1.57827 7.4837L4.71929 9.32537L4.26111 6.06435C4.08735 4.82618 5.97578 4.56124 6.14955 5.79942L6.81811 10.5561L13.0168 14.1908C13.0327 11.7869 13.1321 9.41536 13.1481 7.00642L9.37861 4.06138C8.39329 3.29229 9.56718 1.78919 10.5525 2.55905L13.1644 4.59943L13.189 0.937508C13.1956 -0.319754 15.1019 -0.307681 15.0957 0.94491L15.0712 4.58619L17.666 2.55867C18.6517 1.7888 19.8252 3.29191 18.8398 4.06178L15.0548 7.0189L15.0061 14.2044C17.0889 13.0204 19.2123 11.9093 21.294 10.7264L21.9594 5.98877C22.1332 4.75098 24.0216 5.01592 23.8475 6.25448L23.3866 9.53693L26.5701 7.7272C27.6621 7.10422 28.605 8.76122 27.5168 9.38187L24.3512 11.1811L27.4046 12.415C28.5641 12.8833 27.8491 14.6513 26.69 14.1826L22.2364 12.3834L15.9891 15.9339C18.063 17.1503 20.0671 18.4219 22.1453 19.6402L26.5806 17.8481C27.7393 17.3797 28.4542 19.1474 27.2947 19.6161L24.2219 20.8582L27.3808 22.7104C28.4663 23.3442 27.5028 24.9892 26.4208 24.3576L23.2798 22.5155L23.7384 25.777C23.9122 27.0151 22.0237 27.2801 21.8496 26.0419L21.1814 21.2852L14.9827 17.6505C14.9668 20.0544 14.8674 22.4259 14.851 24.8349L18.6209 27.7799C19.6058 28.549 18.4323 30.0521 17.447 29.2823L14.8351 27.2419L14.8101 30.9038C14.8039 32.1607 12.8976 32.149 12.9038 30.8964L12.9283 27.2551L10.3332 29.2826C9.34784 30.0525 8.17395 28.5494 9.15966 27.7795L12.9447 24.8224L12.9934 17.6369C10.9035 18.8248 8.80005 19.9247 6.70551 21.1149L6.04006 25.8525C5.8663 27.0903 3.97787 26.8254 4.15163 25.5868L4.61293 22.3044L1.42944 24.1141C0.337374 24.7371 -0.605481 23.0801 0.482304 22.4594L3.64787 20.6602L0.594901 19.4263C-0.564568 18.9576 0.14997 17.19 1.30944 17.6583L5.76304 19.4579L12.0104 15.907C9.93652 14.6911 7.93199 13.4194 5.85421 12.2011L1.41853 13.9933H1.41854Z" fill="#255EB1"/>
</svg>
