<?xml version="1.0" encoding="UTF-8"?>
<!-- Generator: Adobe Illustrator 25.2.1, SVG Export Plug-In . SVG Version: 6.00 Build 0)  -->
<svg xmlns="http://www.w3.org/2000/svg" xmlns:xlink="http://www.w3.org/1999/xlink" version="1.1" id="Capa_1" x="0px" y="0px" viewBox="0 0 512 512" style="enable-background:new 0 0 512 512;" xml:space="preserve" width="512" height="512">
<g>
	<g>
		<g>
			<path style="fill:#FFFFFF;" d="M281.391,492.733c-2.03,0-4.036-0.046-6.041-0.092l-0.265-0.007     c-36.493-0.999-72.504-10.725-104.199-28.125c-2.302-1.282-4.477-2.523-6.652-3.838c-10.863-6.407-21.381-13.876-31.128-22.114     c-3.045-2.56-6.149-5.344-9.392-8.421h-23.053c-16.929,0-30.704-13.774-30.704-30.704V353.33     c-1.691-3.923-3.254-7.83-4.684-11.696c-29.125-4.253-53.943-25.401-62.255-54.2c-5.635-19.524-3.328-40.075,6.493-57.864     c9.821-17.79,25.982-30.69,45.506-36.324c2.488-0.717,5.006-1.308,7.543-1.771c3.042-9.362,6.691-18.526,10.916-27.419     c-11.779-5.556-21.973-14.07-29.602-24.907c-11.699-16.614-16.228-36.791-12.753-56.813c3.476-20.02,14.541-37.489,31.157-49.19     c12.893-9.078,28.021-13.878,43.747-13.878c24.751,0,48.023,12.067,62.256,32.281c1.82,2.586,3.469,5.263,4.943,8.029     c33.153-17.693,70.211-26.974,108.166-26.974c34.399,0,68.643,7.791,99.485,22.587c4.477-1.518,9.189-2.304,13.933-2.304     c13.184,0,25.41,5.914,33.568,15.864c11.837,0.29,22.313,0.542,30.055,0.724c15.509,0.362,27.659,14.851,27.659,32.982v55.212     c16.574,32.286,25.316,68.504,25.316,104.999c0,18.544-2.212,36.945-6.58,54.811c0.731,1.006,1.412,2.034,2.034,3.088     c5.978,10.024,6.806,22.447,2.138,32.385c-4.435,9.544-14.005,16.703-24.988,18.673c-13.622,25.341-31.689,47.663-53.791,66.438     c-7.083,6.036-14.667,11.724-22.529,16.89c-6.735,4.447-13.714,8.543-20.721,12.16c-2.424,1.236-4.784,2.412-7.196,3.545     c-23.641,11.23-48.948,18.272-75.147,20.894C296.945,492.336,289.12,492.733,281.391,492.733z"/>
		</g>
	</g>
	<g>
		<g>
			<g>
				<g>
					<path style="fill:#0060FF;" d="M495.389,262.668c0,20.312-2.811,39.962-8.054,58.597c-3.566,12.754-8.314,25.035-14.077,36.703       c-13.132,26.665-31.624,50.236-54.062,69.296c-6.707,5.716-13.769,11.006-21.138,15.848       c-6.259,4.133-12.754,7.959-19.438,11.407c-2.22,1.134-4.44,2.244-6.707,3.307c-21.776,10.345-45.536,17.123-70.548,19.627       c-7.18,0.732-14.454,1.11-21.823,1.11c-2.007,0-3.991-0.047-5.975-0.094c-35.356-0.968-68.587-10.392-97.708-26.381       c-2.078-1.157-4.11-2.315-6.141-3.543c-10.369-6.117-20.146-13.061-29.31-20.808c-10.982-9.234-21.044-19.579-29.924-30.845       c-16.108-20.241-28.649-43.434-36.679-68.634c-1.818-5.716-3.424-11.526-4.747-17.43c-1.087-4.653-1.984-9.353-2.716-14.124       c-0.968-5.928-1.653-11.927-2.102-18.021c-0.402-5.29-0.591-10.628-0.591-16.013c0-11.549,0.897-22.91,2.669-33.963       c1.299-8.243,3.047-16.32,5.267-24.209c4.771-17.123,11.597-33.373,20.217-48.488c4.723-8.29,9.967-16.249,15.73-23.807       c3.448-4.558,7.086-8.975,10.912-13.25c13.344-14.974,28.767-28.058,45.796-38.828c33.373-21.138,72.909-33.349,115.304-33.349       C398.767,46.774,495.389,143.443,495.389,262.668z"/>
				</g>
			</g>
		</g>
		<g>
			<g>
				<g>
					<path style="fill:#FFB4DC;" d="M372.979,447.498l-75.177,9.235l-2.409-11.266c0,0-12.423-26.24-16.32-47.756       c-2.125-11.549-1.748-21.729,4.275-25.791c0,0,0.803-18.493,19.698-17.69c0,0-11.684-24.075-3.637-32.168       c7.097-7.138,14.478-5.22,14.478-5.22s-0.803-9.66,11.266-12.069c0.024,0,0.071-0.023,0.094-0.023       c12.092-2.173,37.695,37.411,37.695,37.411L372.979,447.498z"/>
				</g>
			</g>
			<g>
				<g>
					<g>
						<g>
							<g>
								<path style="fill:#FCF2E9;" d="M286.571,406.906c2.194,3.587,23.82,21.883,32.683,19.273          c5.651-1.669,30.61-40.394,47.932-68.176c4.175-6.728,7.928-12.815,10.835-17.587c3.887-6.361,6.288-10.358,6.288-10.358          l-27.826-16.143c0,0-2.611,3.223-6.824,8.512c-2.941,3.657-6.665,8.348-10.839,13.606          C317.621,362.754,285.053,404.462,286.571,406.906z"/>
							</g>
						</g>
						<g style="opacity:0.31;">
							<g>
								<path style="fill:#B8B9FD;" d="M338.82,336.034c8.721,8.351,17.87,15.991,28.366,21.97          c4.175-6.728,7.928-12.815,10.835-17.587c-0.365-3.228-1.109-6.242-3.525-8.308c-4.009-3.37-8.851-5.566-13.822-7.166          c-3.479-1.094-7.16-1.958-11.015-2.515C346.718,326.085,342.994,330.777,338.82,336.034z"/>
							</g>
						</g>
					</g>
					<g>
						<g>
							<g>
								<path style="fill:#FCF2E9;" d="M482.257,300.606c-3.448,23.181-23.901,81.715-44.813,79.077          c-18.797-2.362-70.072-39.44-111.399-55.409c-4.525-1.756-8.97-3.263-13.206-4.439          c-39.409-10.876-112.757-28.535-158.148-17.861c-3.251,0.752-6.517,0.604-9.491-0.413c-1.581-0.431-3.098-1.167-4.457-2.095          c-2.983-1.985-5.32-4.908-6.589-8.52c-4.594-13.022-6.826-36.034,5.934-73.876c16.457-48.773,31.475-82.872,53.547-99.114          c5.96-4.423,13.703-4.147,19.408-0.341c1.168,0.771,2.25,1.705,3.217,2.767c1.093,1.178,2.06,2.585,2.805,4.144          c7.533,15.796,21.389,40.018,41.096,54.936c25.718,19.48,67.087,41.703,109.614,60.932          c9.095,4.104,18.237,8.075,27.294,11.864C448.421,273.768,485.706,277.425,482.257,300.606z"/>
							</g>
						</g>
						<g>
							<g>
								<path style="fill:#B8B9FD;" d="M207.494,166.456c-1.281,6.367-2.63,12.728-4.177,18.999          c-3.352,14.107-7.475,27.966-12.99,41.239c-3.643,8.622-7.814,16.985-12.21,25.188c-1.315,2.496-2.662,4.954-4.042,7.408          c-6.04,10.874-16.436,32.716-28.874,42.271c-1.581-0.431-3.098-1.167-4.457-2.095c-2.983-1.985-5.32-4.908-6.589-8.52          c-4.594-13.022-6.826-36.034,5.934-73.876c16.457-48.773,31.475-82.872,53.547-99.114c5.96-4.423,13.703-4.147,19.408-0.341          C213.349,133.876,210.726,150.403,207.494,166.456z"/>
							</g>
						</g>
						<g>
							<g>
								<g>
									<g>
										<path style="fill:#FFD484;" d="M494.326,346.927c-2.671,5.747-8.549,9.695-14.802,10.774            c-2.882,0.511-5.882,0.459-8.766-0.066c-3.325-0.602-6.59-1.821-9.538-3.456c2.838-14.849,10.305-25.133,16.424-38.934            c0.595,0.266,1.157,0.528,1.752,0.794c5.439,2.64,10.341,6.54,13.422,11.746            C496.229,333.507,497.163,340.886,494.326,346.927z"/>
									</g>
								</g>
								<g style="opacity:0.46;">
									<g>
										<path style="fill:#B8B9FD;" d="M470.758,357.636c-3.325-0.602-6.59-1.821-9.538-3.456            c2.838-14.849,10.305-25.133,16.424-38.934c0.595,0.266,1.157,0.528,1.752,0.794            C478.729,330.237,475.825,344.353,470.758,357.636z"/>
									</g>
								</g>
							</g>
							<g>
								<g>
									<path style="fill:#FFD484;" d="M482.257,300.606c-3.448,23.181-23.901,81.715-44.813,79.077           c-5.836-0.71-14.828-4.804-25.66-10.564c-0.229-0.126-0.493-0.256-0.753-0.419c-2.825-1.486-5.772-3.122-8.816-4.836           c-0.23-0.126-0.493-0.255-0.754-0.419c-22.688-12.69-50.826-29.679-75.417-39.17c6.882-5.023,12.594-11.854,17.465-18.905           c13.366-19.376,22.397-41.732,26.266-64.975c9.095,4.104,18.237,8.075,27.294,11.864           c17.48,7.344,33.334,12.594,46.521,17.238c0.267,0.096,0.534,0.19,0.801,0.286c4.37,1.569,8.439,3.038,12.126,4.539           c0.267,0.096,0.534,0.19,0.798,0.32C474.461,281.503,484.085,288.318,482.257,300.606z"/>
								</g>
							</g>
							<g>
								<g>
									<g>
										<path style="fill:#FCF2E9;" d="M457.314,274.64c-4.228,25.142-13.303,49.359-26.73,71.112            c-6.161,9.998-12.293,17.582-18.8,23.367c-0.229-0.126-0.493-0.256-0.753-0.419c6.504-5.751,12.604-13.372,18.837-23.397            c13.386-21.688,22.462-45.905,26.648-70.982C456.784,274.416,457.051,274.511,457.314,274.64z"/>
									</g>
								</g>
								<g>
									<g>
										<path style="fill:#FCF2E9;" d="M444.391,269.781c-6.779,33.905-21.372,66.491-42.175,94.082            c-0.23-0.126-0.493-0.255-0.754-0.419c20.796-27.523,35.39-60.109,42.128-93.949            C443.857,269.591,444.124,269.686,444.391,269.781z"/>
									</g>
								</g>
							</g>
						</g>
						<g>
							<g>
								<g>
									<path style="fill:#FCF2E9;" d="M203.316,185.455c-0.892,3.815-1.85,7.589-2.91,11.353           c-2.761,10.193-6.056,20.196-10.08,29.886c-3.643,8.622-7.814,16.985-12.21,25.188c-1.1-1.109-2.509-2.594-4.064-4.336           c-6.251-7.037-14.518-18.174-12.642-26.037c2.973-12.348,11.095-32.135,17.496-34.719           C183.045,185.09,195.19,185.211,203.316,185.455z"/>
								</g>
							</g>
							<g style="opacity:0.32;">
								<g>
									<path style="fill:#B8B9FD;" d="M200.407,196.808c-2.761,10.193-6.056,20.196-10.08,29.886           c-3.643,8.622-7.814,16.985-12.21,25.188c-1.1-1.109-2.509-2.594-4.064-4.336           C184.683,231.77,193.816,214.707,200.407,196.808z"/>
								</g>
							</g>
						</g>
					</g>
				</g>
				<g>
					<g>
						<g>
							<g>
								<path style="fill:#FF470C;" d="M53.613,130.991c-19.684-27.955-12.98-66.574,14.975-86.258s66.574-12.98,86.258,14.975          c18.513,26.292,13.679,62.012-10.218,82.546l18.431,33.314l-30.985-24.927C105.108,164.261,71.524,156.426,53.613,130.991z"/>
							</g>
						</g>
					</g>
					<g>
						<g>
							<g>
								<path style="fill:#FCF2E9;" d="M131.314,69.571C117,55.323,101.644,78.408,99.366,82.042          c-3.292-2.749-25.05-19.933-34.24-1.949c-9.669,18.925,40.427,50.859,43.3,52.67c0.009,0.053,0.019,0.107,0.019,0.107          s0.035-0.044,0.051-0.063c0.022,0.014,0.071,0.044,0.071,0.044s-0.01-0.054-0.02-0.108          C110.621,130.128,146.372,84.561,131.314,69.571z"/>
							</g>
						</g>
					</g>
				</g>
				<g>
					<g>
						<g>
							<g>
								<path style="fill:#FFB4DC;" d="M91.429,325.818c-32.849,9.48-67.164-9.464-76.644-42.314s9.464-67.164,42.313-76.644          c30.895-8.916,63.08,7.315,74.688,36.605l37.505-6.546l-33.676,21.15C139.688,288.006,121.318,317.192,91.429,325.818z"/>
							</g>
						</g>
					</g>
					<g>
						<g>
							<g>
								
									<ellipse transform="matrix(0.7728 -0.6347 0.6347 0.7728 -153.8897 109.2077)" style="fill:#FFD484;" cx="75.567" cy="269.515" rx="41.821" ry="41.821"/>
							</g>
						</g>
						<g>
							<g>
								<path style="fill:#040308;" d="M90.506,269.148c-0.282,2.873,1.819,5.431,4.692,5.713c2.873,0.282,5.431-1.819,5.713-4.692          c0.282-2.873-1.819-5.431-4.692-5.713C93.346,264.174,90.788,266.275,90.506,269.148z"/>
							</g>
						</g>
						<g>
							<g>
								<path style="fill:#040308;" d="M49.127,265.089c-0.282,2.873,1.819,5.431,4.692,5.713c2.873,0.282,5.431-1.819,5.713-4.692          c0.282-2.873-1.819-5.431-4.692-5.713S49.409,262.216,49.127,265.089z"/>
							</g>
						</g>
						<g>
							<g>
								<path style="fill:#FFFFFF;" d="M94.413,281.625l-41.621-4.083c0,0,1.342,18.699,19.249,20.456          C93.819,300.135,94.413,281.625,94.413,281.625z"/>
							</g>
						</g>
					</g>
				</g>
			</g>
			<g>
				<g>
					<path style="fill:#FFB4DC;" d="M380.77,349.276v0.118c-0.024,0.756-0.047,1.512-0.071,2.291       c-0.543,17.879-2.692,38.639-2.078,47.968c0.614,9.589,0.378,33.798,0,54.865c-2.22,1.134-4.44,2.244-6.707,3.307       c-21.776,10.345-45.536,17.123-70.548,19.627l-4.983-26.665l-0.992-5.314l28.247-19.296c0,0,0.85-2.74,2.622-6.92       c0.874-2.055,1.984-4.44,3.307-7.038c0.047-0.094,0.094-0.189,0.142-0.283c2.385-4.582,5.503-9.778,9.424-14.738       c0.094-0.142,0.189-0.26,0.283-0.378c2.102-2.622,4.417-5.196,6.967-7.558c0.047-0.047,0.071-0.071,0.071-0.071       s4.039-19.863,9.967-38.19c1.181-3.661,2.456-7.251,3.755-10.628c0.023,0,0.023-0.024,0.023-0.024       c0.189-0.496,0.378-0.968,0.567-1.464c0.567-1.37,1.134-2.669,1.677-3.944c0.047-0.095,0.094-0.189,0.142-0.283       c1.299-2.834,2.622-5.361,3.968-7.463c1.393-2.149,2.787-3.873,4.228-4.984c0.874-0.685,1.748-1.134,2.622-1.346       c0.52-0.118,1.016-0.142,1.488-0.071c2.149,0.307,3.59,2.669,4.487,6.401c0.614,2.456,0.992,5.527,1.205,8.998       C380.817,340.112,380.864,344.552,380.77,349.276z"/>
				</g>
			</g>
			<g>
				<g>
					<path style="fill:#040308;" d="M319.319,447.174c-0.01,0-0.02,0-0.029-0.002c-0.326-0.015-0.577-0.292-0.561-0.617       c1.44-29.076,24.98-55.255,27.142-57.598c0.053-1.312,0.564-8.041,5.444-24.849c8.112-27.937,15.43-41.864,23.033-43.826       c1.307-0.338,2.473-0.078,3.465,0.771c5.805,4.97,3.405,30.146,3.3,31.216c-0.033,0.323-0.333,0.556-0.646,0.528       c-0.325-0.03-0.562-0.321-0.53-0.646c0.025-0.255,2.449-25.629-2.893-30.202c-0.691-0.591-1.478-0.764-2.402-0.524       c-10.492,2.709-19.299,33.044-22.193,43.011c-5.324,18.338-5.404,24.698-5.404,24.758c0,0.152-0.059,0.297-0.163,0.407       c-0.254,0.269-25.494,27.132-26.974,57.009C319.893,446.927,319.632,447.174,319.319,447.174z"/>
				</g>
			</g>
			<g>
				<g>
					<g>
						<path style="fill:#FFB4DC;" d="M348.51,360.158c-4.747,3.236-10.061,0.26-10.51,0.023c0.165,0.449,2.622,6.353-0.945,12.258        c-3.708,6.141-10.534,3.377-10.534,3.377s17.621,22.122,12.697,29.861c-5.547,8.718-12.161,6.231-12.161,6.231        c-4.02,10.653-12.13,10.25-25.427,4.724c-7.558-3.141-16.157-12.191-22.558-18.922c-2.125-11.549-1.748-21.729,4.275-25.791        c0,0,0.803-18.493,19.698-17.69c0,0-12.47-24.941-3.637-32.168c4.913-4.015,8.833-5.172,11.337-5.408        c1.841-0.197,3.141,0.189,3.141,0.189s-0.803-9.66,11.266-12.069c0.024,0,0.071-0.023,0.094-0.023        c6.897,1.299,14.596,8.691,18.611,15.777C349.432,330.375,353.47,356.78,348.51,360.158z"/>
					</g>
				</g>
				<g>
					<g>
						<path style="fill:#040308;" d="M330.146,376.847c-5.919,0-11.773-5.854-17.476-11.555c-0.584-0.585-1.165-1.158-1.744-1.73        c-7.381-7.289-14.354-14.173-15.111-30.62c-0.238-5.195,1.146-9.288,4.117-12.166c5.295-5.132,13.649-4.541,14-4.521        c0.267,0.022,0.487,0.219,0.536,0.483c0.017,0.1,1.894,10.141,9.297,24.652c5.49,10.761,10.061,16.664,14.903,18.675        c0.115,0.011,0.224,0.054,0.314,0.126c2.496,0.949,5.069,0.873,7.884-0.095c0.303-0.106,0.643,0.058,0.75,0.366        c0.106,0.31-0.059,0.645-0.367,0.751c-2.821,0.966-5.385,1.031-7.766,0.329c0.667,2.709,1.725,9.805-4.163,13.675        C333.592,376.353,331.866,376.847,330.146,376.847z M312.973,317.408c-2.231,0-8.268,0.381-12.225,4.221        c-2.714,2.631-3.976,6.419-3.753,11.256c0.735,15.988,7.548,22.714,14.76,29.836c0.581,0.574,1.165,1.15,1.751,1.735        c8.634,8.634,14.772,13.981,21.167,9.773c6.028-3.961,3.875-11.835,3.453-13.179c-5.777-2.475-10.529-9.55-15.413-19.124        c-6.589-12.915-8.852-22.357-9.313-24.514C313.279,317.41,313.137,317.408,312.973,317.408z"/>
					</g>
				</g>
				<g>
					<g>
						<path style="fill:#040308;" d="M330.142,412.562c-7.497,0.002-15.526-7.131-21.862-12.759l-0.81-0.719        c-8.777-7.779-24.421-26.599-24.578-26.787c-0.113-0.136-0.159-0.316-0.124-0.489c1.519-7.794,4.635-13.225,9.264-16.142        c5.448-3.43,10.93-2.064,11.161-2.007c0.315,0.082,0.504,0.403,0.423,0.719c-0.082,0.316-0.407,0.507-0.719,0.424        c-0.051-0.015-5.247-1.291-10.254,1.876c-4.278,2.705-7.193,7.779-8.663,15.08c1.767,2.118,16.07,19.174,24.273,26.443        l0.81,0.719c8.889,7.898,19.953,17.735,28.531,9.154c8.753-8.753-11.312-31.636-11.515-31.866        c-0.217-0.245-0.194-0.617,0.051-0.834c0.241-0.217,0.618-0.197,0.833,0.05c0.862,0.974,20.997,23.955,11.468,33.485        C335.831,411.508,333.026,412.562,330.142,412.562z"/>
					</g>
				</g>
				<g>
					<g>
						<path style="fill:#040308;" d="M314.986,421.012c-15.591,0-29.438-16.001-30.086-16.761c-0.211-0.249-0.182-0.622,0.066-0.832        c0.249-0.212,0.622-0.182,0.833,0.065c0.172,0.203,17.454,20.185,34.374,15.691c-0.004-0.002,5.439-2.144,5.996-7.529        c0.034-0.325,0.32-0.567,0.648-0.526c0.325,0.033,0.56,0.323,0.526,0.648c-0.632,6.122-6.558,8.437-6.811,8.532        C318.673,420.791,316.817,421.012,314.986,421.012z"/>
					</g>
				</g>
				<g>
					<g>
						<path style="fill:#040308;" d="M297.801,457.323c-0.279,0-0.528-0.201-0.58-0.487c-1.187-6.572-4.873-16.895-8.777-27.825        c-4.405-12.331-8.958-25.079-10.711-34.482c-3.355-17.998,4.968-22.924,5.324-23.124c0.281-0.162,0.641-0.063,0.802,0.221        c0.16,0.284,0.062,0.643-0.22,0.806c-0.08,0.045-7.933,4.784-4.746,21.88c1.736,9.31,6.273,22.015,10.662,34.3        c3.92,10.977,7.623,21.343,8.828,28.015c0.057,0.32-0.156,0.628-0.476,0.684C297.872,457.319,297.837,457.323,297.801,457.323        z"/>
					</g>
				</g>
			</g>
		</g>
		<g>
			<g>
				<g>
					<g>
						<path style="fill:#FCF2E9;" d="M274.545,346.605l-0.492,49.686c-0.09,9.067-7.465,16.369-16.532,16.369h-23.274l4.129,39.644        l-31.385-36.34H98.813c-9.131,0-16.533-7.402-16.533-16.533v-49.812c0-9.017,7.217-16.371,16.233-16.53        c36.001-0.635,122.257-2.192,159.076-3.175C266.952,329.664,274.638,337.239,274.545,346.605z"/>
					</g>
				</g>
			</g>
			<g>
				<g>
					<g>
						<g>
							<path style="fill:#FF470C;" d="M158.362,354.572c-9.21-12.249-23.24,3.429-25.343,5.913         c-2.175-2.421-16.66-17.68-25.506-5.165c-9.308,13.169,24.865,42.569,26.828,44.24c0.001,0.041,0.003,0.083,0.003,0.083         s0.031-0.029,0.045-0.042c0.015,0.013,0.048,0.041,0.048,0.041s-0.002-0.042-0.003-0.083         C136.273,397.818,168.051,367.458,158.362,354.572z"/>
						</g>
					</g>
				</g>
				<g>
					<g>
						<g>
							<path style="fill:#040308;" d="M198.565,384.345l3.726,0.167c1.112,0,2.447,0.89,2.447,2.447v3.392         c0,1.224-1.001,2.447-2.447,2.447h-16.016c-1.446,0-2.447-1.223-2.447-2.447v-3.392c0-1.446,1.168-2.447,2.447-2.447h3.559         l0.167-20.854h-3.17c-1.501,0-2.725-1.223-2.725-2.725v-0.167c0-1.891,0.111-3.225,0.111-3.225l8.676-4.394         c0.389-0.222,0.834-0.333,1.279-0.333h1.668c0.723,0,1.39,0.278,1.891,0.834c0.556,0.501,0.834,1.168,0.834,1.891V384.345z"/>
						</g>
					</g>
					<g>
						<g>
							<path style="fill:#040308;" d="M213.139,392.798c-1.168,0-2.113-0.945-2.113-2.169v-34.813c0-1.279,0.945-2.225,2.113-2.225         h3.893c1.168,0,2.113,0.945,2.113,2.225v13.458h0.056l10.956-14.515c0.556-0.779,1.39-1.168,2.336-1.168h4.449         c1.168,0,2.058,0.89,2.058,2.058c0,0.445-0.167,0.89-0.445,1.335L226.264,373l12.345,16.517         c0.278,0.389,0.445,0.834,0.445,1.279c0,1.168-0.89,2.057-2.058,2.057l-4.56-0.056c-0.946,0-1.724-0.389-2.28-1.168         l-10.733-14.292h-0.278v13.291c0,1.223-0.945,2.169-2.113,2.169H213.139z"/>
						</g>
					</g>
				</g>
			</g>
		</g>
		<g>
			<g>
				<g>
					<g>
						<path style="fill:#FCF2E9;" d="M306.357,99.025l0.419,56.561c0.077,10.321,6.357,18.634,14.077,18.634h19.818l1.035,27.839        l22.173-24.078h92.116c7.775,0,14.078-8.426,14.078-18.82v-56.704c0-10.265-6.146-18.636-13.823-18.817        c-30.655-0.723-104.103-2.496-135.455-3.614C312.823,79.741,306.279,88.363,306.357,99.025z"/>
					</g>
				</g>
			</g>
			<g>
				<g>
					<g>
						<path style="fill:#040308;" d="M421.793,143.911h-61.781c-0.6,0-1.128-0.398-1.293-0.974l-10.983-38.442        c-0.204-0.714,0.21-1.46,0.924-1.663c0.712-0.201,1.457,0.212,1.662,0.923l10.705,37.468h59.732l9.344-35.153        c0.157-0.589,0.69-1.001,1.299-1.001h17.39c0.743,0,1.345,0.602,1.345,1.345c0,0.743-0.602,1.345-1.345,1.345h-16.356        l-9.344,35.153C422.936,143.499,422.403,143.911,421.793,143.911z"/>
					</g>
				</g>
				<g>
					<g>
						<path style="fill:#040308;" d="M378.318,156.524c0,4.17-3.381,7.551-7.551,7.551c-4.17,0-7.551-3.381-7.551-7.551        c0-4.17,3.381-7.551,7.551-7.551C374.937,148.973,378.318,152.354,378.318,156.524z"/>
					</g>
				</g>
				<g>
					<g>
						<circle style="fill:#040308;" cx="408.75" cy="156.524" r="7.551"/>
					</g>
				</g>
			</g>
			<g>
				<g>
					<g>
						<circle style="fill:#FFB4DC;" cx="392.962" cy="96.345" r="29.289"/>
					</g>
				</g>
				<g>
					<g>
						<path style="fill:#FCF2E9;" d="M401.64,107.688c1.102,0,1.94,0.838,1.94,1.94v2.69c0,1.013-0.794,1.94-1.94,1.94        l-15.034-0.043c-1.5,0-2.734-1.148-2.734-2.69v-2.646c0-2.159,1.455-3.66,1.455-3.66s10.184-11.241,10.582-11.726        c0.352-0.485,0.528-1.148,0.528-1.808c0-2.029-1.455-2.865-3.35-2.865c-0.265,0-0.485,0-0.75,0.043        c-1.279,0.132-2.601,0.617-3.967,1.41c0,0-1.191,0.663-1.719,1.102l-0.838-1.277c-0.176-0.221-2.292-4.277,2.424-6.789        c0.838-0.485,3.13-1.148,5.291-1.148c5.775,0,9.787,3.395,9.787,9.348c0,2.07-0.573,3.878-1.587,5.377        c-1.013,1.412-9.699,10.802-9.699,10.802H401.64z"/>
					</g>
				</g>
			</g>
		</g>
		<g>
			<g>
				<g>
					<g>
						<polygon style="fill:#FCF2E9;" points="220.827,86.078 229.272,88.677 220.827,91.275 218.228,99.721 215.63,91.275         207.185,88.677 215.63,86.078 218.228,77.633       "/>
					</g>
				</g>
			</g>
			<g>
				<g>
					<g>
						<polygon style="fill:#FCF2E9;" points="119.892,176.561 128.337,179.159 119.892,181.757 117.294,190.203 114.696,181.757         106.25,179.159 114.696,176.561 117.294,168.115       "/>
					</g>
				</g>
			</g>
			<g>
				<g>
					<g>
						<polygon style="fill:#FCF2E9;" points="290.345,76.862 298.79,79.46 290.345,82.058 287.747,90.504 285.148,82.058         276.703,79.46 285.148,76.862 287.747,68.416       "/>
					</g>
				</g>
			</g>
			<g>
				<g>
					<g>
						<polygon style="fill:#FCF2E9;" points="393.691,203.897 402.137,206.495 393.691,209.094 391.093,217.539 388.495,209.094         380.049,206.495 388.495,203.897 391.093,195.452       "/>
					</g>
				</g>
			</g>
			<g>
				<g>
					<g>
						<polygon style="fill:#FCF2E9;" points="460.797,197.838 469.243,200.436 460.797,203.034 458.199,211.48 455.601,203.034         447.156,200.436 455.601,197.838 458.199,189.392       "/>
					</g>
				</g>
			</g>
			<g>
				<g>
					<g>
						<polygon style="fill:#FCF2E9;" points="460.797,252.511 469.243,255.109 460.797,257.708 458.199,266.153 455.601,257.708         447.156,255.109 455.601,252.511 458.199,244.066       "/>
					</g>
				</g>
			</g>
			<g>
				<g>
					<g>
						<polygon style="fill:#FCF2E9;" points="407.36,395.627 415.805,398.225 407.36,400.824 404.762,409.269 402.164,400.824         393.718,398.225 402.164,395.627 404.762,387.182       "/>
					</g>
				</g>
			</g>
			<g>
				<g>
					<g>
						<polygon style="fill:#FCF2E9;" points="185.822,314.421 194.267,317.019 185.822,319.617 183.224,328.063 180.626,319.617         172.18,317.019 180.626,314.421 183.224,305.975       "/>
					</g>
				</g>
			</g>
			<g>
				<g>
					<g>
						<polygon style="fill:#FCF2E9;" points="275.599,130.109 290.9,134.817 275.599,139.524 270.892,154.826 266.185,139.524         250.883,134.817 266.185,130.109 270.892,114.808       "/>
					</g>
				</g>
			</g>
		</g>
	</g>
</g>















</svg>
