<svg width="43" height="35" viewBox="0 0 43 35" fill="none" xmlns="http://www.w3.org/2000/svg">
<g clip-path="url(#clip0)">
<path d="M41.9611 1.26043C41.7652 1.06448 41.501 0.945197 41.2284 0.945197C41.2028 0.945197 41.1858 0.945197 41.1602 0.945197L36.9599 1.22635C34.5573 1.38823 32.1377 1.72051 29.7862 2.22318L26.0544 3.01554C25.9778 3.03258 25.9096 3.05814 25.8414 3.08369L26.0204 1.10708C26.0459 0.817398 25.9522 0.536241 25.7562 0.323243C25.5603 0.110246 25.2876 -0.0090332 24.998 -0.0090332C23.3451 -0.00051329 19.9968 0.65552 15.0552 1.94203C11.4257 2.88774 8.21374 3.85049 8.17966 3.85901C8.08594 3.88457 8.00074 3.92717 7.91554 3.97829C7.62587 3.50117 7.13171 3.15185 6.53532 3.05814C6.43308 3.0411 6.33084 3.03258 6.2286 3.03258C5.26585 3.03258 4.42238 3.75677 4.27754 4.711L0.0261043 32.3496C-0.135774 33.4231 0.605458 34.437 1.67045 34.5989C1.77269 34.6159 1.87493 34.6244 1.97716 34.6244C2.95695 34.6244 3.78339 33.9173 3.92822 32.946L5.23177 24.5368C5.35957 24.588 5.48737 24.6135 5.62369 24.6135C5.79409 24.6135 5.973 24.5709 6.12636 24.4772C6.1434 24.4687 7.80478 23.5315 10.7697 22.458C13.5046 21.4697 17.935 20.1576 23.5411 19.5186C23.6603 19.5016 23.7711 19.4675 23.8733 19.4249L23.6774 21.5975C23.6433 21.9723 23.8137 22.3302 24.1289 22.5347C24.2993 22.6539 24.5038 22.7051 24.6998 22.7051C24.8616 22.7051 25.0235 22.671 25.1684 22.5943C25.2195 22.5687 30.5529 19.885 39.5755 19.885C40.1038 19.885 40.5383 19.4845 40.5894 18.9648L42.2508 2.07835C42.2763 1.78015 42.1741 1.48195 41.9611 1.26043Z" fill="white"/>
<path d="M1.97656 33.6116C1.92544 33.6116 1.88284 33.6116 1.83172 33.6031C1.31201 33.5264 0.954173 33.0322 1.03085 32.5125L5.29933 4.86542C5.37601 4.3457 5.87016 3.98786 6.38988 4.06454C6.90959 4.14122 7.26743 4.63538 7.19075 5.15509L2.92227 32.8022C2.84559 33.2708 2.43664 33.6116 1.97656 33.6116Z" fill="#215CB3"/>
<path d="M40.2478 11.903L40.5205 9.14253C34.9399 8.89545 28.0388 10.5568 25.6277 11.1958L25.3721 14.033C27.485 13.4706 34.5054 11.7155 40.2478 11.903Z" fill="white"/>
<path d="M40.0009 14.3993L40.2479 11.9029C34.5055 11.7155 27.4766 13.4621 25.3722 14.0329L25.1592 16.41C27.7066 15.7454 34.514 14.1351 40.0009 14.3993Z" fill="#E55448"/>
<path d="M24.9375 18.949L24.6904 21.6924C24.6904 21.6924 30.1432 18.8723 39.5577 18.8723L39.7536 16.8786C34.139 16.6571 27.2464 18.3355 24.9375 18.949Z" fill="#E55448"/>
<path d="M40.5207 9.15092L40.7763 6.50974C35.2554 6.23711 28.3799 7.86441 25.8665 8.52896L25.6279 11.1957C28.0391 10.5567 34.9402 8.89532 40.5207 9.15092Z" fill="#E55448"/>
<path d="M40.7761 6.50974L41.0061 4.16677C35.0933 3.99637 27.8769 5.85371 26.0622 6.35638L25.8662 8.52896C28.3881 7.86441 35.2552 6.2371 40.7761 6.50974Z" fill="white"/>
<path d="M41.0064 4.17543L41.2194 1.97729L37.0191 2.25845C34.6506 2.41181 32.3076 2.74409 29.9987 3.22972L26.267 4.02207L26.0625 6.35653C27.8772 5.86237 35.0936 4.00503 41.0064 4.17543Z" fill="#E55448"/>
<path d="M39.7619 16.87L40.0004 14.3992C34.5136 14.1351 27.7062 15.7369 25.1587 16.4099L24.9287 18.9489C27.2461 18.3354 34.1387 16.657 39.7619 16.87Z" fill="white"/>
<path d="M25.0146 1.02295C21.1977 1.02295 8.48596 4.83987 8.48596 4.83987L7.36133 12.2181C10.8204 11.0253 18.1305 8.72495 24.3756 8.12856L25.0146 1.02295Z" fill="#215CB3"/>
<path d="M24.3672 8.12012C18.1221 8.71651 10.8206 11.0254 7.35295 12.2097L6.99512 14.5441C10.5905 13.3173 17.9432 11.0254 24.1457 10.4801L24.3672 8.12012Z" fill="white"/>
<path d="M6.09137 20.4656L5.61426 23.6009C5.61426 23.6009 12.3279 19.784 23.4209 18.5145L23.6509 15.967C13.9041 16.9213 8.27247 19.6732 6.09137 20.4656Z" fill="#E55448"/>
<path d="M23.9069 13.1553C17.3636 13.8198 9.72128 16.3076 6.56039 17.4152L6.0918 20.4654C8.27289 19.673 16.4946 16.8103 23.6513 15.9583L23.9069 13.1553Z" fill="white"/>
<path d="M24.1542 10.4885C17.9517 11.0253 10.5905 13.3257 7.00358 14.5525L6.56055 17.4152C9.72143 16.3076 17.3723 13.8198 23.9071 13.1553L24.1542 10.4885Z" fill="#E55448"/>
<path d="M10.1054 4.69507L10.2247 5.28294L10.6251 5.45334L10.2929 5.79414L10.3269 6.37349L9.95206 6.05825L9.51755 6.30533L9.67091 5.70042L9.42383 5.20626L9.85834 5.19774L10.1054 4.69507Z" fill="white"/>
<path d="M9.91819 7.04663L10.0375 7.62599L10.4379 7.8049L10.1141 8.1457L10.1482 8.72505L9.77335 8.40982L9.33032 8.65689L9.49219 8.05198L9.24512 7.55783L9.67111 7.54931L9.91819 7.04663Z" fill="white"/>
<path d="M12.2522 6.40747L12.3715 6.99534L12.7719 7.16574L12.4481 7.50654L12.4822 8.08589L12.0988 7.77066L11.6643 8.01773L11.8177 7.41282L11.5791 6.91867L12.0051 6.91015L12.2522 6.40747Z" fill="white"/>
<path d="M12.1672 8.42676L12.2865 9.00611L12.6869 9.18503L12.3632 9.52583L12.3973 10.1052L12.0224 9.78994L11.5879 10.0285L11.7412 9.43211L11.4941 8.93795L11.9201 8.92943L12.1672 8.42676Z" fill="white"/>
<path d="M9.74729 9.26172L9.87509 9.84959L10.2755 10.02L9.94325 10.3608L9.97733 10.9401L9.60245 10.6249L9.16794 10.872L9.3213 10.2671L9.07422 9.77291L9.50873 9.76439L9.74729 9.26172Z" fill="white"/>
<path d="M14.3655 6.02393L14.4847 6.60328L14.8937 6.7822L14.5614 7.12299L14.5955 7.70235L14.2206 7.38711L13.7861 7.62567L13.9395 7.02928L13.6924 6.53512L14.1184 6.5266L14.3655 6.02393Z" fill="white"/>
<path d="M14.2375 7.88135L14.3568 8.46922L14.7572 8.63962L14.425 8.98894L14.459 9.55977L14.0842 9.24453L13.6497 9.49161L13.803 8.8867L13.5645 8.39254H13.9904L14.2375 7.88135Z" fill="white"/>
<path d="M16.4953 5.30835L16.6146 5.89622L17.0236 6.06662L16.6913 6.41594L16.7254 6.98677L16.3505 6.67154L15.916 6.91861L16.0693 6.3137L15.8223 5.81954H16.2483L16.4953 5.30835Z" fill="white"/>
<path d="M18.4885 4.80566L18.6078 5.39354L19.0082 5.56394L18.6759 5.91325L18.7185 6.48409L18.3351 6.16885L17.9006 6.41593L18.054 5.81101L17.8154 5.31686H18.2414L18.4885 4.80566Z" fill="white"/>
<path d="M20.2014 4.2605L20.3207 4.84837L20.7211 5.01877L20.3974 5.35957L20.4314 5.93892L20.0566 5.62368L19.622 5.87076L19.7754 5.26585L19.5283 4.77169L19.9543 4.76317L20.2014 4.2605Z" fill="white"/>
<path d="M22.3564 4.03882L22.4757 4.62669L22.8761 4.79709L22.5438 5.13789L22.5779 5.71724L22.203 5.402L21.7685 5.64908L21.9219 5.04417L21.6748 4.55001L22.1093 4.54149L22.3564 4.03882Z" fill="white"/>
<path d="M22.3564 5.90479L22.4757 6.49266L22.8761 6.66306L22.5438 7.00385L22.5779 7.58321L22.203 7.26797L21.7685 7.51505L21.9219 6.91013L21.6748 6.41598L22.1093 6.40746L22.3564 5.90479Z" fill="white"/>
<path d="M20.3635 6.10913L20.4828 6.697L20.8832 6.8674L20.5509 7.2082L20.5935 7.78755L20.2101 7.47232L19.7756 7.71939L19.929 7.11448L19.6904 6.62033L20.1164 6.61181L20.3635 6.10913Z" fill="white"/>
<path d="M18.7356 6.74829L18.8549 7.32765L19.2553 7.50656L18.9315 7.84736L18.9656 8.42671L18.5907 8.11148L18.1477 8.35003L18.3096 7.75364L18.0625 7.25949L18.4885 7.25097L18.7356 6.74829Z" fill="white"/>
<path d="M16.4953 7.14868L16.6146 7.72804L17.0236 7.90695L16.6913 8.24775L16.7254 8.8271L16.3505 8.51187L15.916 8.75042L16.0693 8.15403L15.8223 7.65136H16.2483L16.4953 7.14868Z" fill="white"/>
<path d="M12.1672 4.22632L12.2865 4.81419L12.6869 4.98459L12.3632 5.32539L12.3973 5.90474L12.0224 5.5895L11.5879 5.83658L11.7412 5.23167L11.4941 4.73751L11.9201 4.72899L12.1672 4.22632Z" fill="white"/>
<path d="M14.2375 3.76611L14.3568 4.34547L14.7572 4.51587L14.425 4.86518L14.459 5.44454L14.0842 5.1293L13.6497 5.36786L13.803 4.76294L13.5645 4.26879H13.9904L14.2375 3.76611Z" fill="white"/>
<path d="M16.2991 3.29761L16.4183 3.87696L16.8273 4.05588L16.495 4.39668L16.5291 4.97603L16.1542 4.66079L15.7197 4.89935L15.8731 4.30296L15.626 3.8088L16.052 3.80028L16.2991 3.29761Z" fill="white"/>
<path d="M18.4885 2.58203L18.6078 3.16991L19.0082 3.3403L18.6759 3.6811L18.7185 4.26045L18.3351 3.94522L17.9006 4.19229L18.054 3.58738L17.8154 3.09323H18.2414L18.4885 2.58203Z" fill="white"/>
<path d="M20.4309 2.08789L20.5502 2.66724L20.9591 2.83764L20.6268 3.18696L20.6609 3.76631L20.286 3.45108L19.8515 3.68963L20.0049 3.08472L19.7578 2.59057H20.1838L20.4309 2.08789Z" fill="white"/>
<path d="M22.5012 1.74707L22.6205 2.32642L23.0209 2.50534L22.6972 2.84614L22.7312 3.42549L22.3478 3.11026L21.9133 3.34881L22.0752 2.75242L21.8281 2.25827L22.2541 2.24975L22.5012 1.74707Z" fill="white"/>
</g>
<defs>
<clipPath id="clip0">
<rect width="43" height="34.6334" fill="white"/>
</clipPath>
</defs>
</svg>
