<?xml version="1.0" encoding="UTF-8"?>
<svg xmlns="http://www.w3.org/2000/svg" xmlns:xlink="http://www.w3.org/1999/xlink" viewBox="0 0 50 50" width="50px" height="50px">
<g id="surface2370616">
<path style=" stroke:none;fill-rule:nonzero;fill:rgb(26.274511%,26.274511%,67.843139%);fill-opacity:1;" d="M 25 0 C 11.203125 0 0 11.203125 0 25 L 0 41 C 0 42.511719 0.914062 43.832031 2.269531 44.898438 C 3.621094 45.964844 5.46875 46.859375 7.710938 47.605469 C 12.199219 49.101562 18.28125 50 25 50 C 31.71875 50 37.800781 49.101562 42.285156 47.605469 C 44.53125 46.859375 46.378906 45.964844 47.730469 44.898438 C 49.085938 43.832031 50 42.511719 50 41 L 50 25 C 50 11.203125 38.796875 0 25 0 Z M 25 2 C 37.714844 2 48 12.285156 48 25 L 48 28.605469 C 47.410156 27.988281 46.71875 27.410156 45.929688 26.882812 C 43.621094 25.34375 40.496094 24.121094 36.824219 23.28125 C 36.625 21.996094 36.28125 20.882812 35.933594 19.96875 C 35.878906 19.820312 35.847656 19.726562 35.792969 19.585938 C 35.84375 19.222656 35.878906 18.839844 35.878906 18.429688 C 35.878906 16.914062 35.507812 15.648438 35 15.195312 L 35 14.710938 C 35 14.644531 34.992188 14.578125 34.988281 14.515625 C 34.972656 13.511719 34.847656 11.8125 33.679688 10.234375 C 32.339844 8.417969 29.691406 7 25 7 C 20.308594 7 17.660156 8.417969 16.320312 10.234375 C 15.152344 11.8125 15.027344 13.511719 15.007812 14.515625 C 15.007812 14.578125 15 14.644531 15 14.710938 L 15 15.097656 C 14.429688 15.445312 14 16.796875 14 18.429688 C 14 18.933594 14.042969 19.40625 14.113281 19.832031 C 14.097656 19.882812 14.085938 19.914062 14.0625 19.96875 C 13.71875 20.882812 13.375 21.996094 13.171875 23.28125 C 9.503906 24.121094 6.378906 25.34375 4.070312 26.882812 C 3.28125 27.410156 2.589844 27.988281 2 28.605469 L 2 25 C 2 12.285156 12.285156 2 25 2 Z M 21.730469 10 L 28.269531 10 C 29.542969 10 30.574219 10.390625 31.359375 11.027344 C 31.238281 11.019531 31.117188 11 31 11 C 30.027344 11 29.320312 11.347656 28.78125 11.585938 C 28.242188 11.824219 27.832031 12 27 12 C 26.640625 11.996094 26.304688 12.183594 26.121094 12.496094 C 25.941406 12.808594 25.941406 13.191406 26.121094 13.503906 C 26.304688 13.816406 26.640625 14.003906 27 14 C 28.167969 14 29.007812 13.675781 29.59375 13.414062 C 30.179688 13.152344 30.472656 13 31 13 C 31.503906 13 31.96875 13.128906 32.316406 13.464844 C 32.667969 13.804688 33 14.429688 33 15.75 L 33 17.15625 C 33 18.382812 33.582031 19.394531 34.066406 20.671875 C 34.546875 21.949219 35 23.441406 35 25.316406 L 35 29.394531 C 35 32.847656 33.902344 35.199219 32.324219 36.734375 C 30.746094 38.269531 28.644531 39 26.539062 39 L 23.460938 39 C 21.359375 39 19.253906 38.269531 17.675781 36.734375 C 16.097656 35.199219 15 32.847656 15 29.394531 L 15 25.316406 C 15 23.441406 15.453125 21.949219 15.933594 20.671875 C 16.417969 19.394531 17 18.382812 17 17.15625 L 17 17 C 17 16.285156 17.117188 15.402344 17.386719 14.828125 C 17.660156 14.257812 17.886719 14 18.625 14 C 18.890625 14 18.980469 14.085938 19.476562 14.378906 C 19.84375 14.59375 20.378906 14.851562 21.09375 15.003906 C 21.0625 15.003906 21.03125 15 21 15 C 19.328125 15 18.394531 15.976562 18.105469 16.550781 C 17.867188 17.035156 18.058594 17.601562 18.527344 17.859375 C 18.679688 17.941406 18.84375 17.976562 19.003906 17.96875 C 19.023438 17.433594 19.460938 17 20 17 C 20.148438 17 20.289062 17.039062 20.414062 17.097656 C 20.757812 17.253906 21 17.597656 21 18 C 21 18.550781 20.550781 19 20 19 C 19.738281 19 19.503906 18.894531 19.324219 18.730469 C 19.535156 19.460938 20.199219 20 21 20 C 21.964844 20 22.75 19.214844 22.75 18.25 C 22.75 18.148438 22.738281 18.046875 22.71875 17.949219 C 22.8125 17.976562 22.90625 18 23 18 C 23.152344 18 23.304688 17.964844 23.445312 17.894531 C 23.941406 17.648438 24.140625 17.046875 23.894531 16.554688 C 23.664062 16.097656 23.027344 15.398438 21.945312 15.125 C 22.308594 15.152344 22.65625 14.984375 22.859375 14.683594 C 23.0625 14.382812 23.085938 13.992188 22.917969 13.671875 C 22.753906 13.347656 22.425781 13.140625 22.0625 13.128906 C 21.226562 13.074219 20.898438 12.890625 20.488281 12.652344 C 20.082031 12.414062 19.484375 12 18.625 12 C 18.28125 12 17.960938 12.054688 17.660156 12.148438 C 18.425781 10.84375 19.828125 10 21.730469 10 Z M 29 15 C 27.328125 15 26.394531 15.976562 26.105469 16.550781 C 25.867188 17.035156 26.058594 17.601562 26.527344 17.859375 C 26.679688 17.941406 26.84375 17.976562 27.003906 17.96875 C 27.023438 17.433594 27.460938 17 28 17 C 28.148438 17 28.289062 17.039062 28.417969 17.097656 C 28.757812 17.253906 29 17.597656 29 18 C 29 18.550781 28.550781 19 28 19 C 27.738281 19 27.503906 18.894531 27.324219 18.730469 C 27.535156 19.460938 28.199219 20 29 20 C 29.964844 20 30.75 19.214844 30.75 18.25 C 30.75 18.148438 30.738281 18.046875 30.722656 17.949219 C 30.8125 17.976562 30.90625 18 31.003906 18 C 31.152344 18 31.304688 17.964844 31.449219 17.894531 C 31.941406 17.648438 32.140625 17.046875 31.894531 16.554688 C 31.605469 15.976562 30.671875 15 29 15 Z M 25 21.003906 C 24.558594 21.003906 24.113281 21.101562 23.707031 21.304688 C 23.664062 21.328125 23.625 21.351562 23.582031 21.378906 L 22.429688 22.179688 C 21.976562 22.492188 21.863281 23.117188 22.175781 23.570312 C 22.492188 24.023438 23.117188 24.136719 23.570312 23.824219 L 24.617188 23.097656 C 24.863281 22.980469 25.136719 22.980469 25.382812 23.097656 L 26.429688 23.824219 C 26.882812 24.136719 27.507812 24.023438 27.820312 23.570312 C 28.136719 23.117188 28.023438 22.492188 27.570312 22.179688 L 26.414062 21.378906 C 26.375 21.351562 26.335938 21.328125 26.289062 21.304688 C 25.886719 21.101562 25.441406 21.003906 25 21.003906 Z M 30.960938 24 C 30.660156 24.011719 30.378906 24.160156 30.199219 24.402344 C 30.199219 24.402344 29.695312 25.066406 28.59375 25.375 C 28.367188 25.421875 28.257812 25.457031 27.917969 25.515625 C 26.625 25.726562 24.472656 25.9375 21.273438 25.984375 C 20.539062 25.890625 20.175781 25.402344 20.175781 25.402344 C 19.992188 25.15625 19.707031 25.007812 19.402344 25 C 19.347656 25 19.289062 25 19.234375 25.011719 C 19.234375 25.011719 17.859375 25.226562 17.132812 26.503906 C 16.953125 26.8125 16.957031 27.195312 17.136719 27.503906 C 17.316406 27.8125 17.648438 28.003906 18.003906 28 C 18.363281 28 18.691406 27.808594 18.871094 27.496094 C 18.988281 27.289062 19.066406 27.265625 19.15625 27.238281 C 19.15625 27.238281 19.535156 28.914062 21.019531 30.046875 C 21.5 30.410156 22.101562 30.703125 22.859375 30.835938 C 23.613281 30.96875 24.546875 31 26 31 C 27.898438 31 29.203125 29.695312 29.96875 28.558594 C 30.667969 27.519531 30.976562 26.589844 31.03125 26.421875 C 31.085938 26.46875 31.144531 26.519531 31.164062 26.550781 C 31.359375 26.851562 31.699219 27.03125 32.058594 27.011719 C 32.421875 26.992188 32.742188 26.78125 32.902344 26.457031 C 33.0625 26.132812 33.039062 25.75 32.835938 25.453125 C 32.34375 24.703125 31.613281 24.210938 31.613281 24.210938 C 31.425781 24.066406 31.195312 23.992188 30.960938 24 Z M 13 25.375 L 13 29.394531 C 13 30.929688 13.207031 32.316406 13.574219 33.554688 C 11.585938 34.152344 9.882812 34.882812 8.589844 35.746094 C 7.082031 36.757812 6 38.011719 6 39.546875 C 6 40.039062 6.125 40.503906 6.339844 40.933594 C 5.179688 40.425781 4.207031 39.882812 3.503906 39.328125 C 2.429688 38.480469 2 37.699219 2 37 L 2 33 C 2 31.515625 3.035156 29.976562 5.179688 28.542969 C 7.078125 27.277344 9.777344 26.171875 13 25.375 Z M 37 25.375 C 40.222656 26.171875 42.921875 27.277344 44.820312 28.542969 C 46.964844 29.976562 48 31.515625 48 33 L 48 37 C 48 37.699219 47.570312 38.480469 46.496094 39.328125 C 45.792969 39.882812 44.820312 40.425781 43.660156 40.933594 C 43.875 40.503906 44 40.039062 44 39.546875 C 44 38.011719 42.917969 36.757812 41.410156 35.746094 C 40.117188 34.878906 38.414062 34.148438 36.425781 33.554688 C 36.789062 32.3125 37 30.929688 37 29.394531 Z M 28.277344 27.476562 C 27.699219 28.320312 26.953125 29 26 29 C 24.578125 29 23.71875 28.957031 23.207031 28.867188 C 22.691406 28.777344 22.546875 28.695312 22.230469 28.457031 C 22.035156 28.304688 21.9375 28.128906 21.8125 27.953125 C 21.871094 27.9375 21.925781 27.914062 21.976562 27.886719 C 24.613281 27.8125 27.011719 27.6875 28.238281 27.484375 C 28.265625 27.480469 28.25 27.480469 28.273438 27.476562 Z M 25 33 C 23.75 33 23 33.769531 23 34.875 C 23 35.5 23.558594 36 24.25 36 C 24.941406 36 25.5 35.550781 25.5 35 C 25.5 35 26 35 26 35.625 C 26 36.5 25 37 25 37 C 25 37 27 36.75 27 35 C 27 33.894531 26.105469 33 25 33 Z M 14.308594 35.425781 C 14.515625 35.84375 14.742188 36.238281 14.992188 36.613281 C 14.988281 37.148438 14.976562 37.648438 14.957031 38.109375 C 13.441406 38.480469 12.144531 38.917969 11.152344 39.433594 C 10.574219 39.730469 10.089844 40.050781 9.703125 40.449219 C 9.515625 40.644531 9.34375 40.871094 9.21875 41.125 C 9.148438 41.078125 9.066406 41.035156 9.007812 40.988281 C 8.242188 40.429688 8 39.96875 8 39.546875 C 8 39.019531 8.472656 38.230469 9.707031 37.40625 C 10.785156 36.679688 12.386719 35.988281 14.308594 35.425781 Z M 35.691406 35.425781 C 37.613281 35.988281 39.214844 36.679688 40.292969 37.40625 C 41.527344 38.230469 42 39.019531 42 39.542969 C 42 39.96875 41.757812 40.429688 40.996094 40.988281 C 40.933594 41.035156 40.851562 41.078125 40.785156 41.121094 C 40.65625 40.871094 40.484375 40.644531 40.296875 40.449219 C 39.910156 40.050781 39.425781 39.730469 38.847656 39.429688 C 37.855469 38.917969 36.558594 38.480469 35.042969 38.109375 C 35.023438 37.648438 35.011719 37.148438 35.007812 36.609375 C 35.257812 36.238281 35.484375 35.84375 35.695312 35.421875 Z M 16.929688 38.734375 C 18.820312 40.273438 21.164062 41 23.464844 41 L 26.539062 41 C 28.839844 41 31.179688 40.273438 33.070312 38.734375 C 33.164062 40.535156 33.34375 41.824219 33.535156 42.703125 C 33.589844 42.960938 33.644531 43.167969 33.703125 43.363281 C 32.175781 43.609375 30.5 43.789062 28.71875 43.890625 C 28.582031 43.898438 28.445312 43.90625 28.3125 43.914062 C 27.890625 43.9375 27.464844 43.953125 27.035156 43.964844 C 26.363281 43.984375 25.6875 44 25 44 C 24.3125 44 23.636719 43.984375 22.96875 43.964844 C 22.535156 43.953125 22.109375 43.9375 21.691406 43.914062 C 21.554688 43.90625 21.417969 43.898438 21.28125 43.890625 C 19.5 43.789062 17.824219 43.609375 16.300781 43.363281 C 16.355469 43.167969 16.410156 42.960938 16.46875 42.703125 C 16.65625 41.824219 16.835938 40.535156 16.929688 38.734375 Z M 14.816406 40.207031 C 14.726562 41.09375 14.617188 41.785156 14.511719 42.28125 C 14.445312 42.589844 14.382812 42.8125 14.328125 42.996094 C 13.703125 42.859375 13.101562 42.714844 12.554688 42.554688 C 12.027344 42.402344 11.554688 42.234375 11.109375 42.058594 C 11.085938 42.042969 11.046875 42.015625 11.035156 42.003906 C 11.023438 41.992188 11.027344 41.996094 11.023438 41.988281 C 11.039062 41.960938 11.066406 41.917969 11.136719 41.84375 C 11.296875 41.675781 11.621094 41.441406 12.074219 41.207031 C 12.734375 40.863281 13.679688 40.515625 14.816406 40.207031 Z M 35.183594 40.207031 C 36.320312 40.515625 37.265625 40.863281 37.925781 41.207031 C 38.378906 41.441406 38.703125 41.675781 38.863281 41.84375 C 38.933594 41.917969 38.960938 41.960938 38.976562 41.988281 C 38.972656 41.996094 38.976562 41.992188 38.964844 42.003906 C 38.953125 42.015625 38.914062 42.042969 38.890625 42.058594 C 38.445312 42.234375 37.972656 42.402344 37.445312 42.554688 C 36.898438 42.714844 36.296875 42.859375 35.671875 42.996094 C 35.617188 42.8125 35.554688 42.589844 35.488281 42.28125 C 35.382812 41.785156 35.273438 41.09375 35.183594 40.207031 Z M 2 40.652344 C 2.09375 40.734375 2.171875 40.820312 2.269531 40.898438 C 3.621094 41.964844 5.46875 42.859375 7.710938 43.605469 C 9.414062 44.171875 11.347656 44.652344 13.457031 45.035156 C 13.714844 45.089844 13.933594 45.15625 14.207031 45.207031 C 16.558594 45.648438 19.605469 45.894531 22.972656 45.96875 C 23.640625 45.988281 24.316406 46 25 46 C 25.683594 46 26.359375 45.988281 27.027344 45.96875 C 30.394531 45.894531 33.441406 45.648438 35.792969 45.207031 C 36.066406 45.15625 36.285156 45.089844 36.542969 45.035156 C 38.652344 44.652344 40.585938 44.171875 42.289062 43.605469 C 44.53125 42.859375 46.378906 41.964844 47.734375 40.898438 C 47.828125 40.820312 47.90625 40.734375 48 40.652344 L 48 41 C 48 41.699219 47.570312 42.480469 46.496094 43.328125 C 45.417969 44.175781 43.753906 45.007812 41.65625 45.707031 C 37.457031 47.109375 31.539062 48 25 48 C 18.460938 48 12.542969 47.109375 8.347656 45.707031 C 6.246094 45.007812 4.582031 44.175781 3.507812 43.328125 C 2.429688 42.480469 2 41.699219 2 41 Z M 2 40.652344 "/>
</g>
</svg>
