<svg width="377" height="345" viewBox="0 0 377 345" fill="none" xmlns="http://www.w3.org/2000/svg">
<path d="M139.168 147.604C129.058 147.604 120.888 139.434 120.888 129.325C120.888 119.216 129.058 111.046 139.168 111.046C149.277 111.046 157.447 119.216 157.447 129.325C157.447 139.434 149.277 147.604 139.168 147.604Z" fill="#255EB1" stroke="#255EB1" stroke-width="2.6249" stroke-miterlimit="10" stroke-linecap="round" stroke-linejoin="round"/>
<path d="M123.935 139.296C127.12 144.143 132.382 147.466 138.614 147.605C140.968 133.618 151.908 123.093 155.093 120.324C152.185 115.339 147.2 111.877 141.245 111.184C135.844 116.446 127.674 126.279 123.935 139.296Z" fill="#BDCEE7" stroke="#255EB1" stroke-width="2.6249" stroke-miterlimit="10" stroke-linecap="round" stroke-linejoin="round"/>
<path d="M198.16 147.604C188.051 147.604 179.881 139.434 179.881 129.325C179.881 119.216 188.051 111.045 198.16 111.045C208.269 111.045 216.44 119.216 216.44 129.325C216.44 139.434 208.131 147.604 198.16 147.604Z" fill="#255EB1" stroke="#255EB1" stroke-width="2.6249" stroke-miterlimit="10" stroke-linecap="round" stroke-linejoin="round"/>
<path d="M182.789 139.296C185.974 144.142 191.236 147.466 197.468 147.604C199.822 133.618 210.762 123.093 213.947 120.324C211.039 115.338 206.054 111.876 200.099 111.184C194.699 116.446 186.528 126.278 182.789 139.296Z" fill="#BDCEE7" stroke="#255EB1" stroke-width="2.6249" stroke-miterlimit="10" stroke-linecap="round" stroke-linejoin="round"/>
<path d="M226.964 103.429C226.964 100.659 224.748 98.4435 221.979 98.4435H115.349C112.579 98.4435 110.363 100.659 110.363 103.429C110.363 106.198 112.579 108.414 115.349 108.414H123.381C117.01 113.261 112.995 120.739 112.995 129.325C112.995 143.865 124.765 155.636 139.306 155.636C153.846 155.636 165.617 143.865 165.617 129.325C165.617 120.739 161.463 113.123 155.231 108.414H182.373C176.003 113.261 171.987 120.739 171.987 129.325C171.987 143.865 183.758 155.636 198.299 155.636C212.839 155.636 224.61 143.865 224.61 129.325C224.61 120.739 220.456 113.123 214.224 108.414H222.256C224.748 108.414 226.964 106.198 226.964 103.429Z" stroke="#255EB1" stroke-width="2.6249" stroke-miterlimit="10" stroke-linecap="round" stroke-linejoin="round"/>
<path d="M189.99 173.085C189.99 173.085 171.156 186.102 147.476 173.085" stroke="#255EB1" stroke-width="2.6249" stroke-miterlimit="10" stroke-linecap="round" stroke-linejoin="round"/>
<path d="M169.079 193.164C160.355 193.164 150.522 191.087 140.552 185.548C133.628 181.67 130.997 172.946 134.874 166.022C137.505 161.314 142.352 158.544 147.476 158.544C149.83 158.544 152.184 159.098 154.4 160.344C159.939 163.391 164.924 164.36 169.217 164.36C176.834 164.36 181.819 161.175 181.819 161.175C184.312 159.513 187.22 158.683 189.989 158.683C194.559 158.683 198.991 160.898 201.899 164.914C206.469 171.423 204.807 180.424 198.298 184.994C192.344 188.871 181.819 193.164 169.079 193.164Z" stroke="#255EB1" stroke-width="2.6249" stroke-miterlimit="10" stroke-linecap="round" stroke-linejoin="round"/>
<path d="M198.16 155.636C183.62 155.636 171.849 143.865 171.849 129.325C171.849 128.632 171.849 127.801 171.987 127.109H165.479C165.479 127.801 165.617 128.632 165.617 129.325C165.617 143.865 153.846 155.636 139.306 155.636C124.765 155.636 112.995 143.865 112.995 129.325C112.995 128.632 112.995 127.801 113.133 127.109H70.204V183.748H137.921C133.074 179.316 131.689 172.115 134.874 166.161C137.506 161.452 142.352 158.683 147.476 158.683C149.83 158.683 152.185 159.237 154.4 160.483C159.939 163.529 164.925 164.499 169.218 164.499C176.834 164.499 181.819 161.314 181.819 161.314C184.312 159.652 187.22 158.821 189.99 158.821C194.56 158.821 198.991 161.037 201.899 165.053C206.054 171.007 204.946 179.178 199.683 183.886H211.87V152.036C207.854 154.251 203.145 155.636 198.16 155.636Z" stroke="#255EB1" stroke-width="2.6249" stroke-miterlimit="10" stroke-linecap="round" stroke-linejoin="round"/>
<path d="M102.331 183.748L86.8215 241.91C86.406 243.433 86.9599 244.956 88.2063 245.926C96.9305 252.711 133.766 277.361 187.358 256.312C188.882 255.758 189.851 254.096 189.851 252.434C189.159 241.771 186.805 203.828 187.635 189.979" stroke="#255EB1" stroke-width="2.6249" stroke-miterlimit="10" stroke-linecap="round" stroke-linejoin="round"/>
<path d="M70.0654 171.423C70.0654 171.423 46.8007 198.15 35.3068 228.616C35.3068 228.616 19.1045 231.801 -1.66756 226.4C-22.4397 220.999 -26.3171 239.14 -15.6541 246.618" stroke="#255EB1" stroke-width="2.6249" stroke-miterlimit="10" stroke-linecap="round" stroke-linejoin="round"/>
<path d="M29.3522 242.741C29.3522 242.741 13.2884 250.219 -12.0535 246.618C-12.0535 246.618 -22.5781 244.956 -22.9935 256.45C-23.4089 267.944 -3.88317 275.838 31.1524 262.959" stroke="#255EB1" stroke-width="2.6249" stroke-miterlimit="10" stroke-linecap="round" stroke-linejoin="round"/>
<path d="M-13.1614 267.805C-13.1614 267.805 -21.7472 271.267 -18.9775 280.961C-14.6846 295.917 20.9049 300.487 52.34 275.976C52.34 275.976 83.4982 287.885 93.1918 280.546C102.885 273.206 90.1452 258.804 66.3266 254.234C66.3266 254.234 80.0362 204.243 96.5154 183.609" stroke="#255EB1" stroke-width="2.6249" stroke-miterlimit="10" stroke-linecap="round" stroke-linejoin="round"/>
<path d="M58.4331 186.517L83.7751 205.627L94.715 183.747H70.0655L68.8192 173.084L58.4331 186.517Z" fill="#255EB1" stroke="#255EB1" stroke-width="1.38481" stroke-miterlimit="10"/>
<path d="M131.135 183.748L92.7761 219.476" stroke="#255EB1" stroke-width="2.6249" stroke-miterlimit="10" stroke-linecap="round" stroke-linejoin="round"/>
<path d="M157.447 192.057L103.024 254.096" stroke="#255EB1" stroke-width="2.6249" stroke-miterlimit="10" stroke-linecap="round" stroke-linejoin="round"/>
<path d="M187.359 204.796L140.968 264.62" stroke="#255EB1" stroke-width="2.6249" stroke-miterlimit="10" stroke-linecap="round" stroke-linejoin="round"/>
<path d="M153.985 264.343L95.8229 208.397" stroke="#255EB1" stroke-width="2.6249" stroke-miterlimit="10" stroke-linecap="round" stroke-linejoin="round"/>
<path d="M115.487 183.748L189.436 254.096" stroke="#255EB1" stroke-width="2.6249" stroke-miterlimit="10" stroke-linecap="round" stroke-linejoin="round"/>
<path d="M165.756 193.164L187.497 209.643" stroke="#255EB1" stroke-width="2.6249" stroke-miterlimit="10" stroke-linecap="round" stroke-linejoin="round"/>
<path d="M144.014 265.174L163.263 364.05H4.97949C4.97949 364.05 39.4612 286.362 119.503 319.874L114.518 259.774" stroke="#255EB1" stroke-width="2.6249" stroke-miterlimit="10" stroke-linecap="round" stroke-linejoin="round"/>
<path d="M160.355 364.049H295.789C295.789 364.049 266.016 296.194 181.681 322.367" stroke="#255EB1" stroke-width="2.6249" stroke-miterlimit="10" stroke-linecap="round" stroke-linejoin="round"/>
<path d="M172.402 261.158L187.358 320.705" stroke="#255EB1" stroke-width="2.6249" stroke-miterlimit="10" stroke-linecap="round" stroke-linejoin="round"/>
<path d="M174.48 271.96L115.625 271.683V259.774C115.625 259.774 126.15 263.513 134.182 264.066C142.214 264.62 156.062 264.759 164.232 262.959C172.402 261.158 172.402 261.158 172.402 261.158L174.48 271.96Z" fill="#255EB1" stroke="#255EB1" stroke-width="1.38481" stroke-miterlimit="10"/>
<path d="M296.066 136.803C320.157 136.803 339.687 117.273 339.687 93.1816C339.687 69.0902 320.157 49.5602 296.066 49.5602C271.975 49.5602 252.445 69.0902 252.445 93.1816C252.445 117.273 271.975 136.803 296.066 136.803Z" stroke="#255EB1" stroke-width="2.6249" stroke-miterlimit="10" stroke-linecap="round" stroke-linejoin="round"/>
<path d="M316.561 54.6839C316.561 54.6839 287.618 114.369 279.864 133.756" stroke="#255EB1" stroke-width="2.6249" stroke-miterlimit="10" stroke-linecap="round" stroke-linejoin="round"/>
<path d="M335.256 112.43L257.43 72.8246" stroke="#255EB1" stroke-width="2.6249" stroke-miterlimit="10" stroke-linecap="round" stroke-linejoin="round"/>
<path d="M289.973 136.388C297.451 137.495 304.652 136.526 311.299 134.172C309.083 115.892 298.836 101.767 284.71 99.6902C274.601 98.3054 264.631 103.429 257.153 112.707C263.246 125.171 275.155 134.31 289.973 136.388Z" stroke="#255EB1" stroke-width="2.6249" stroke-miterlimit="10" stroke-linecap="round" stroke-linejoin="round"/>
<path d="M302.298 49.9755C294.958 48.8677 287.896 49.837 281.387 52.0527C282.495 72.9633 295.097 90.1349 312.822 92.766C322.239 94.1508 331.378 90.9658 338.995 84.8726C335.533 67.1471 321.131 52.7451 302.298 49.9755Z" stroke="#255EB1" stroke-width="2.6249" stroke-miterlimit="10" stroke-linecap="round" stroke-linejoin="round"/>
<path d="M362.813 99.967C362.813 99.967 370.014 134.726 336.502 144.419" stroke="#255EB1" stroke-width="2.6249" stroke-miterlimit="10" stroke-linecap="round" stroke-linejoin="round"/>
<path d="M375 119.493C374.031 126.694 370.984 135.279 363.368 141.926" stroke="#255EB1" stroke-width="2.6249" stroke-miterlimit="10" stroke-linecap="round" stroke-linejoin="round"/>
<path d="M259.922 52.468C259.922 52.468 233.473 65.0698 243.305 99.5515" stroke="#255EB1" stroke-width="2.6249" stroke-miterlimit="10" stroke-linecap="round" stroke-linejoin="round"/>
<path d="M266.57 125.724L250.506 165.191" stroke="#255EB1" stroke-width="2.6249" stroke-miterlimit="10" stroke-linecap="round" stroke-linejoin="round"/>
<path d="M242.474 188.733C252.583 200.088 259.645 200.365 264.077 198.288C268.37 196.211 270.308 191.364 269.477 186.794C266.154 166.853 235.827 156.605 227.656 172.946C218.793 190.81 233.195 200.919 233.195 200.919L213.947 233.324" stroke="#255EB1" stroke-width="2.6249" stroke-miterlimit="10" stroke-linecap="round" stroke-linejoin="round"/>
<path d="M283.88 135.141L266.293 178.485" stroke="#255EB1" stroke-width="2.6249" stroke-miterlimit="10" stroke-linecap="round" stroke-linejoin="round"/>
<path d="M273.632 162.006C273.632 162.006 280.418 161.037 285.957 165.745C295.374 173.777 290.804 207.982 276.263 210.059C264.215 211.721 264.077 198.288 264.077 198.288" stroke="#255EB1" stroke-width="2.6249" stroke-miterlimit="10" stroke-linecap="round" stroke-linejoin="round"/>
<path d="M288.727 169.761C288.727 169.761 294.266 167.961 299.944 170.453C308.391 174.192 312.961 190.81 302.021 206.874C291.081 222.937 279.31 212.413 281.387 207.705" stroke="#255EB1" stroke-width="2.6249" stroke-miterlimit="10" stroke-linecap="round" stroke-linejoin="round"/>
<path d="M292.604 215.045C292.604 215.045 284.849 229.308 269.755 227.369C269.755 227.369 244.551 278.746 215.609 274.73C190.821 271.268 189.297 242.879 189.297 242.879" stroke="#255EB1" stroke-width="2.6249" stroke-miterlimit="10" stroke-linecap="round" stroke-linejoin="round"/>
<path d="M198.16 184.855C198.16 184.855 208.269 224.184 214.778 227.507" stroke="#255EB1" stroke-width="2.6249" stroke-miterlimit="10" stroke-linecap="round" stroke-linejoin="round"/>
<path d="M263.246 133.895L279.033 146.912L283.187 136.941L266.293 127.109L263.246 133.895Z" fill="#255EB1" stroke="#255EB1" stroke-width="1.38481" stroke-miterlimit="10"/>
<path d="M189.159 242.74L205.084 208.397L198.991 188.179L196.222 186.102L187.359 192.333L189.159 242.74Z" fill="#255EB1" stroke="#255EB1" stroke-width="1.38481" stroke-miterlimit="10"/>
<path d="M70.0657 127.109C70.0657 127.109 39.7384 99.8284 66.4652 69.7781C93.192 39.7278 133.213 57.0379 142.907 72.5477C152.6 88.0576 150.384 98.5821 150.384 98.5821" stroke="#255EB1" stroke-width="2.6249" stroke-miterlimit="10" stroke-linecap="round" stroke-linejoin="round"/>
<path d="M123.934 57.7302C123.934 57.7302 139.583 26.1566 179.88 32.2498C224.61 38.8968 226.964 84.7339 219.209 98.582" stroke="#255EB1" stroke-width="2.6249" stroke-miterlimit="10" stroke-linecap="round" stroke-linejoin="round"/>
<path d="M74.3585 62.5771C74.3585 62.5771 65.3572 44.0207 83.3597 21.4483C103.024 -3.20124 132.659 -0.847068 150.661 8.98506C163.402 15.9091 168.941 25.4643 170.187 30.1726" stroke="#255EB1" stroke-width="2.6249" stroke-miterlimit="10" stroke-linecap="round" stroke-linejoin="round"/>
<path d="M98.5592 31.1754H98.6873C102.661 31.1754 104.583 29.7655 106.762 28.0993C109.197 26.305 111.889 24.2543 117.016 24.2543C117.144 24.2543 117.144 24.2543 117.272 24.2543C122.527 24.2543 125.218 26.4331 127.654 28.3557C129.832 30.15 131.755 31.5599 135.856 31.6881H135.985C139.958 31.6881 141.88 30.2782 144.059 28.612C146.494 26.8176 149.186 24.7669 154.313 24.7669C154.441 24.7669 154.441 24.7669 154.569 24.7669C159.824 24.7669 162.515 26.9458 164.951 28.8683C167.001 30.4064 168.668 31.8162 172 32.0726C163.925 13.6162 145.597 0.92749 124.321 0.92749C106.377 0.92749 90.4845 10.0275 81 23.8697C85.4859 24.2543 88.0493 26.1768 90.2282 27.843C92.5352 29.6374 94.4578 31.0472 98.5592 31.1754Z" fill="#255EB1"/>
</svg>
