<svg width="222" height="292" viewBox="0 0 222 292" fill="none" xmlns="http://www.w3.org/2000/svg">
<g clip-path="url(#clip0)">
<path d="M146.326 83.9875C150.238 83.205 154.02 83.7267 157.15 85.2917C157.281 83.8571 157.15 82.4225 156.889 80.8576C155.194 72.6414 147.108 67.4248 138.892 69.2506C130.676 70.946 125.459 79.0317 127.155 87.2479C128.068 91.2908 130.415 94.6816 133.675 96.7682C134.719 90.6387 139.544 85.4221 146.326 83.9875Z" fill="white" stroke="black" stroke-width="1.95623" stroke-miterlimit="10"/>
<path d="M143.457 104.332C142.283 100.029 144.761 95.5945 149.195 94.4208L143.457 104.332Z" fill="white"/>
<path d="M143.457 104.332C142.283 100.029 144.761 95.5945 149.195 94.4208" stroke="#255EB1" stroke-width="0.83505" stroke-miterlimit="10"/>
<path d="M163.932 91.8124C160.932 85.8133 153.76 82.4225 146.456 83.9875C137.849 85.8133 132.241 93.7687 133.936 101.724C134.328 103.289 134.849 104.724 135.632 106.028C147.63 109.419 162.889 91.682 163.932 91.8124Z" fill="white" stroke="black" stroke-width="1.95623" stroke-miterlimit="10"/>
<path d="M127.285 80.5967C127.285 80.5967 129.242 82.1617 132.502 85.6829C133.284 86.5958 134.589 86.8567 135.762 86.335C136.936 85.8133 137.588 84.3788 137.327 83.0746L135.893 77.5972C135.762 77.2059 135.893 76.8147 136.284 76.6843C136.545 76.4234 137.066 76.4234 137.327 76.6843L140.718 79.2926C141.37 79.8142 142.413 79.9446 143.196 79.6838C144.37 79.2926 145.022 78.2492 145.152 77.0755V74.5976C145.152 73.1631 145.804 71.8589 146.848 70.8156L147.76 69.9027C147.76 69.9027 138.501 66.1206 131.067 73.6847C130.937 73.8151 127.677 76.9451 127.285 80.5967Z" fill="#255EB1"/>
<path d="M146.326 83.9875C150.238 83.205 154.02 83.7267 157.15 85.2917C157.281 83.8571 157.15 82.4225 156.889 80.8576C155.194 72.6414 147.108 67.4248 138.892 69.2506C130.676 70.946 125.459 79.0317 127.155 87.2479C128.068 91.2908 130.415 94.6816 133.675 96.7682C134.719 90.6387 139.544 85.4221 146.326 83.9875Z" stroke="black" stroke-width="1.95623" stroke-miterlimit="10"/>
<path d="M141.631 150.238C145.413 154.151 149.326 159.367 153.108 165.236C159.628 170.192 175.148 173.322 185.581 170.062C190.407 168.627 193.406 166.019 194.58 162.367C198.492 150.108 180.234 126.372 177.365 122.721C175.409 124.416 173.453 125.59 172.279 126.112L178.539 142.544C178.669 142.935 178.539 143.457 178.147 143.718C178.017 143.848 177.756 143.848 177.626 143.848C177.365 143.848 177.104 143.718 176.974 143.587L157.02 125.068L142.674 134.719L155.977 153.368C156.238 153.76 156.238 154.412 155.716 154.673C155.586 154.803 155.325 154.803 155.194 154.803C154.934 154.803 154.542 154.673 154.412 154.412L140.457 134.98C140.327 134.719 140.197 134.458 140.327 134.197C140.327 133.936 140.588 133.676 140.718 133.545L144.37 131.067C141.24 130.154 138.24 127.937 136.023 124.677C133.154 120.504 131.98 115.287 132.893 110.462C127.155 104.984 117.243 103.158 111.244 102.376C120.504 107.593 139.805 121.417 141.631 150.238Z" fill="#FFDB58"/>
<path d="M146.065 235.791L148.543 245.833C148.673 246.224 148.934 246.485 149.325 246.485C155.977 247.137 160.802 245.181 163.019 244.007C163.41 243.746 163.541 243.355 163.41 242.964L159.628 230.835C154.933 232.791 150.238 234.487 146.065 235.791Z" fill="#F2BABD"/>
<path d="M150.108 95.5945C150.369 97.4203 151.673 99.1157 153.629 100.029C154.281 97.8116 155.977 95.5945 158.585 93.7687C164.584 89.5954 171.496 89.465 176.321 91.2908C175.539 88.4216 173.452 86.0742 170.453 84.77C165.497 82.553 159.759 83.8571 154.412 88.0304C151.412 90.5083 149.847 93.247 150.108 95.5945Z" fill="#F2BABD"/>
<path d="M115.157 76.4234C114.766 76.5538 114.505 76.6842 114.113 76.8146C109.94 78.3796 103.941 79.2925 103.55 79.2925C103.028 79.4229 98.7245 80.075 90.5083 77.9883C89.5954 77.7275 88.5521 77.4667 87.3783 77.0754C86.9871 76.945 86.7262 76.945 86.335 76.945C85.5525 76.945 84.77 77.2058 84.1179 77.7275C83.205 78.3796 82.6834 79.4229 82.8138 80.5966C83.0746 82.8137 84.2483 86.7262 87.2479 90.117C90.5083 86.8566 95.5945 84.9003 101.072 84.9003C106.549 84.9003 111.636 86.7262 114.896 89.9866C117.765 86.5958 119.069 82.292 119.2 78.2492C119.2 77.5971 118.939 76.945 118.548 76.4234C117.635 75.9017 116.591 75.9017 115.157 76.4234Z" fill="black"/>
<path d="M95.0728 73.9455C95.464 74.0759 95.8552 74.2063 96.1161 74.3367C96.8986 74.728 97.6811 74.9888 98.4636 74.9888C99.3765 74.9888 99.8981 74.4671 100.42 73.8151C101.072 72.9021 102.115 71.7284 104.463 72.6413C102.898 71.4676 101.594 69.9026 100.811 68.0768C99.7677 70.6851 97.6811 72.7717 95.0728 73.9455Z" fill="#F2BABD"/>
<path d="M84.2483 110.592C87.7695 111.636 96.6378 113.722 104.332 110.723C104.724 110.592 104.984 110.201 104.984 109.679L104.593 98.594C100.941 99.8981 96.2465 100.811 90.5083 100.811C89.5953 100.811 88.552 100.811 87.5087 100.681C86.4654 100.681 85.5525 100.42 84.6396 100.289L83.4658 109.549C83.4658 110.071 83.7266 110.462 84.2483 110.592Z" fill="#F2BABD"/>
<path d="M91.1603 95.7249C91.0299 96.8986 90.5082 97.9419 89.7257 98.594C89.5953 98.7244 89.4649 98.8548 89.3345 98.8548C93.5078 98.9852 97.1594 98.4636 100.289 97.6811C96.7682 97.6811 93.7686 97.029 91.1603 95.7249Z" fill="#F2BABD"/>
<path d="M167.584 122.199L167.453 124.547L169.67 124.677L168.627 121.808C168.236 121.938 167.844 122.069 167.584 122.199Z" fill="#255EB1"/>
<path d="M165.627 122.721C161.585 123.503 157.933 121.938 156.238 119.591C156.107 119.33 155.846 119.069 155.716 118.808L155.455 120.895L158.715 123.895L165.497 124.286L165.627 122.721Z" fill="#255EB1"/>
<path d="M165.366 126.373L160.932 126.112L165.106 130.024L165.366 126.373Z" fill="#255EB1"/>
<path d="M175.539 105.897C171.235 104.332 164.714 104.984 159.759 109.81C156.759 112.809 155.977 115.939 157.802 118.417C159.628 120.895 164.193 122.069 168.627 119.591C175.409 115.809 176.582 114.374 176.582 114.244C176.843 113.853 177.495 113.722 177.886 113.983C178.278 114.244 178.408 114.766 178.147 115.287C178.017 115.548 176.843 117.113 170.192 120.895L171.496 124.286C174.104 122.851 181.147 118.417 180.625 112.157C180.495 109.288 178.538 107.071 175.539 105.897Z" fill="#F2BABD"/>
<path d="M167.062 131.589C167.062 131.589 167.062 131.72 167.062 131.589L175.278 139.284L170.323 126.633L167.193 126.503L167.062 131.589Z" fill="#255EB1"/>
<path d="M153.629 119.33L154.542 112.027C153.499 113.722 151.804 115.026 150.108 116.07L153.629 119.33Z" fill="#255EB1"/>
<path d="M157.02 108.375L156.759 110.462C157.15 109.94 157.542 109.549 157.933 109.027C157.542 108.766 157.281 108.636 157.02 108.375Z" fill="#255EB1"/>
<path d="M147.63 100.42C143.065 100.159 137.197 103.028 135.371 108.766C133.806 113.592 134.719 119.2 137.718 123.634C140.066 127.025 143.326 129.242 146.717 129.633L155.585 123.764L148.412 117.113C147.108 117.765 145.674 118.156 144.63 118.417C144.109 118.548 143.587 118.156 143.457 117.635C143.326 117.113 143.718 116.591 144.239 116.461C144.761 116.331 155.716 113.722 154.151 105.376C153.107 101.202 149.325 100.55 147.63 100.42Z" fill="#F2BABD"/>
<path d="M159.759 95.464C156.759 97.5507 155.194 100.159 155.455 102.506C155.716 104.593 157.15 106.419 159.367 107.462C164.845 102.767 171.626 102.376 176.061 103.941C177.756 104.593 179.06 105.376 180.103 106.549C181.147 105.115 181.799 103.419 182.06 101.724C182.321 98.594 180.625 95.8553 177.495 94.0294C173.191 91.5516 166.019 91.0299 159.759 95.464Z" fill="#F2BABD"/>
<path d="M74.9889 246.224C74.728 247.398 73.6847 248.18 72.511 248.311C71.5981 248.441 70.6852 248.441 69.9027 248.441C64.1644 248.441 59.9911 246.746 57.774 245.572C56.6003 244.92 55.9482 243.616 56.3395 242.312L57.9044 236.965C55.6874 236.573 52.6878 237.747 51.2533 239.182C49.9491 240.486 49.5579 242.573 50.0795 244.398C50.7316 246.485 53.0791 250.137 62.2082 252.093C72.2501 254.31 76.8147 251.832 78.6405 250.267C80.0751 248.963 80.8575 247.267 80.5967 245.572C80.2055 242.573 77.2059 241.138 76.0322 240.747L74.9889 246.224Z" fill="#E4554D"/>
<path d="M78.5101 281.567C70.1635 281.567 61.4257 278.958 58.8174 278.045C56.2091 277.133 52.0358 278.045 47.2104 279.089C38.4726 280.915 27.6481 283.262 16.6932 277.915C8.73787 274.003 4.04292 268.003 3.39084 261.091C1.17378 268.134 1.43461 274.263 4.17333 279.219C7.3033 285.088 14.0849 289.131 22.1707 289.783C28.8218 290.304 38.0813 289.913 47.8625 289.522C58.4261 289 69.2506 288.609 77.9884 289.261C82.6834 289.652 87.1175 289.131 91.1604 287.696C94.0295 286.653 96.377 284.566 97.6811 281.697C98.9853 278.828 99.1157 275.437 97.942 272.568L96.5074 269.177C96.377 270.481 95.9857 271.785 95.4641 272.959C92.5949 279.61 85.6829 281.567 78.5101 281.567Z" fill="white"/>
<path d="M69.6419 255.092C67.4248 255.092 64.9469 254.832 61.9473 254.18C51.9054 251.962 49.1666 247.528 48.3842 245.181C48.1233 244.268 47.9929 243.485 48.1233 242.573C46.5583 241.268 43.8196 240.355 40.5592 239.964C49.6883 248.05 52.5574 257.049 52.6879 257.44C52.8183 257.962 52.5574 258.483 52.0358 258.614C51.9054 258.614 51.9054 258.614 51.775 258.614C51.3837 258.614 50.9925 258.353 50.862 257.962C50.862 257.831 47.6017 247.659 37.1684 239.573C35.9947 239.573 34.821 239.573 33.6472 239.573C42.2546 246.746 47.4712 260.7 47.7321 261.352C47.8625 261.874 47.6017 262.396 47.2104 262.657C47.08 262.657 46.9496 262.657 46.8192 262.657C46.4279 262.657 46.0367 262.396 45.9063 262.004C45.9063 261.874 40.0376 246.355 31.0389 239.964C30.9085 239.964 30.9085 239.834 30.9085 239.703C24.779 240.355 18.3886 242.181 13.172 245.833C10.6941 247.528 8.8683 249.615 7.43373 251.832C7.1729 252.223 7.04249 252.615 6.78166 253.006C5.73833 255.353 5.21667 257.962 5.34709 260.439C5.73833 266.699 10.1725 272.307 17.6061 275.959C27.9089 281.045 38.3422 278.828 46.8192 277.002C51.9054 275.959 56.3395 274.916 59.4695 275.959C62.3386 276.872 88.2913 285.088 93.8991 271.916C98.0724 262.004 86.9871 250.919 82.9442 247.268C82.553 248.833 81.7705 250.267 80.4663 251.441C78.6405 253.136 75.5106 255.092 69.6419 255.092Z" fill="#BDCEE7"/>
<path d="M44.9932 157.672C45.254 157.672 45.5149 157.803 45.7757 157.803C45.254 156.498 44.9932 155.064 44.8628 153.76C44.8628 153.368 44.8628 152.977 44.8628 152.586C43.6891 152.847 41.7328 153.499 40.2983 155.064C39.3854 156.107 38.8637 157.542 38.7333 159.107C40.8199 157.933 43.1674 157.411 44.9932 157.672Z" fill="#F2BABD"/>
<path d="M68.7287 158.324C65.5987 157.803 62.4688 157.15 59.3388 156.368C58.8171 156.238 58.5563 155.846 58.5563 155.325L60.3821 140.979L56.7305 135.371L46.4277 142.153L49.1664 145.543C49.4272 145.935 49.4272 146.456 49.036 146.848C49.036 146.848 46.4277 149.456 46.6885 153.499C46.8189 155.455 47.471 157.281 48.6447 159.237C48.7751 159.498 49.036 159.628 49.036 159.889C50.3401 161.845 52.1659 163.671 54.5134 165.627C54.9047 166.019 55.0351 166.54 54.6438 166.932C54.5134 167.192 54.1222 167.323 53.8613 167.323C53.6005 167.323 53.4701 167.192 53.2093 167.062C50.4705 164.845 48.3839 162.497 46.9493 160.28C46.4277 159.759 45.6452 159.498 44.6019 159.368C42.3848 159.107 39.3852 160.02 37.9507 162.237C36.6465 164.062 36.7769 166.671 38.2115 169.54C44.0802 181.408 59.2084 178.93 62.2079 178.278L68.7287 158.324Z" fill="#F2BABD"/>
<path d="M58.687 243.877C60.904 245.05 65.7294 247.007 72.3806 246.355C72.7718 246.355 73.0327 246.094 73.1631 245.702L75.5106 236.313C69.9027 235.4 65.2077 234.096 61.4257 232.531L58.2957 242.833C58.1653 243.355 58.2957 243.746 58.687 243.877Z" fill="#F2BABD"/>
<path d="M205.013 277.915C194.058 283.392 183.234 281.045 174.496 279.089C169.67 278.045 165.497 277.133 162.889 278.045C160.15 278.958 151.543 281.567 143.196 281.567C136.023 281.567 128.981 279.61 126.112 272.959C125.59 271.655 125.199 270.351 125.068 269.177L123.634 272.568C122.46 275.437 122.59 278.828 123.895 281.697C125.199 284.566 127.546 286.653 130.415 287.696C134.458 289.131 138.892 289.652 143.587 289.261C152.325 288.609 163.15 289 173.713 289.522C183.494 289.913 192.754 290.304 199.405 289.783C207.491 289.131 214.272 285.088 217.402 279.219C220.141 274.263 220.271 268.134 218.185 261.091C217.663 268.003 212.968 273.872 205.013 277.915Z" fill="white"/>
<path d="M162.367 276.22C165.497 275.176 169.931 276.089 175.017 277.263C183.494 279.089 193.928 281.306 204.23 276.22C211.664 272.568 216.098 266.96 216.49 260.7C216.62 258.092 216.098 255.614 215.055 253.267C214.794 252.875 214.664 252.484 214.403 252.093C213.099 249.745 211.143 247.659 208.665 246.094C203.448 242.573 196.927 240.616 190.928 239.964C190.928 240.095 190.798 240.095 190.798 240.225C181.799 246.615 175.93 262.135 175.93 262.265C175.8 262.657 175.409 262.917 175.017 262.917C174.887 262.917 174.757 262.917 174.626 262.917C174.105 262.787 173.844 262.135 174.105 261.613C174.365 260.961 179.582 247.007 188.189 239.834C187.016 239.834 185.842 239.834 184.668 239.834C174.235 247.92 170.975 258.092 170.975 258.222C170.844 258.614 170.453 258.875 170.062 258.875C169.931 258.875 169.931 258.875 169.801 258.875C169.279 258.744 169.018 258.222 169.149 257.701C169.279 257.31 172.148 248.311 181.277 240.225C178.017 240.747 175.278 241.66 173.713 242.833C173.713 243.746 173.713 244.529 173.452 245.442C172.67 247.92 169.931 252.354 159.889 254.44C156.89 255.092 154.412 255.353 152.195 255.353C146.326 255.353 143.196 253.527 141.631 252.093C140.327 250.919 139.414 249.354 139.153 247.92C135.11 251.571 123.895 262.657 128.198 272.568C133.545 285.349 159.498 277.133 162.367 276.22Z" fill="#BDCEE7"/>
<path d="M178.408 216.75C176.061 211.012 164.193 185.581 151.542 166.41L151.412 166.28C147.76 160.672 143.978 155.586 140.327 151.803C136.545 153.108 114.765 159.889 88.9431 159.889C82.944 159.889 76.8145 159.498 70.5545 158.585L50.601 223.01C50.3402 223.662 50.601 224.314 51.1226 224.836C55.4264 228.227 71.4674 238.791 101.333 234.487C102.115 234.356 102.637 233.704 102.767 232.922L108.505 176.843C108.505 176.322 108.897 176.061 109.418 175.93C109.81 175.93 110.331 176.191 110.462 176.582L128.198 237.095C128.589 237.878 129.502 238.269 130.415 238.138C137.066 236.573 160.15 230.705 177.756 219.098C178.538 218.576 178.799 217.663 178.408 216.75Z" fill="black"/>
<path d="M142.805 250.397C144.631 252.093 149.195 254.44 159.237 252.223C168.366 250.267 170.714 246.485 171.366 244.529C171.887 242.703 171.496 240.747 170.192 239.312C168.757 237.747 165.758 236.704 163.541 237.095L165.236 242.312C165.627 243.616 165.106 245.05 163.802 245.572C161.715 246.746 157.411 248.441 151.673 248.441C150.76 248.441 149.978 248.441 149.065 248.311C147.891 248.18 146.978 247.398 146.587 246.224L145.283 240.747C144.109 241.138 141.109 242.573 140.718 245.572C140.588 247.267 141.37 249.093 142.805 250.397Z" fill="#E4554D"/>
<path d="M81.2489 94.2903C79.8143 95.2032 78.2493 95.3336 77.0756 94.4207C76.1627 93.7687 75.3802 92.3341 76.1627 90.3779C76.5539 89.3345 76.2931 88.1608 75.9018 86.7262C75.5106 84.9004 74.9889 82.8138 76.1627 80.7271C77.9885 77.4667 82.6834 76.0322 83.4659 75.7713C84.7701 74.9888 86.3351 74.8584 87.7696 75.2497C88.5521 75.5105 89.3346 75.7713 90.1171 75.9017C90.5084 75.3801 90.7692 75.1192 91.1604 74.728C91.03 74.728 90.7692 74.728 90.6388 74.728C84.3788 74.728 79.2926 69.6418 79.2926 63.3819C79.2926 57.1219 84.3788 52.0357 90.6388 52.0357C95.2033 52.0357 99.2462 54.7745 100.942 58.8173C102.637 54.9049 106.68 52.0357 111.244 52.0357C115.157 52.0357 118.678 53.992 120.634 57.1219C120.243 53.6007 119.591 50.862 119.33 49.5578C118.809 49.8187 118.156 50.0795 117.504 49.9491C117.244 49.9491 117.113 49.9491 116.852 49.8187C116.852 49.8187 115.287 49.4274 113.201 49.1666C111.114 49.0362 108.114 49.0362 106.028 50.3403C105.506 50.6012 104.984 50.862 104.332 50.862C104.202 50.862 104.202 50.862 104.072 50.862C103.028 50.7316 101.985 50.2099 101.463 49.297C101.072 48.5145 100.942 47.6016 101.072 46.8191C101.202 46.0366 101.724 45.3845 102.246 44.9933C97.4204 44.0804 93.8992 41.8633 92.4646 40.82C91.5517 41.7329 89.465 43.5587 86.5959 45.2541C88.1609 44.9933 89.7259 44.8629 91.03 44.8629C93.6383 44.8629 95.725 45.2541 95.9858 45.2541C97.8116 45.6454 98.9854 47.3408 98.5941 49.1666C98.2029 50.9924 96.5075 52.1661 94.6817 51.7749C94.6817 51.7749 93.1167 51.5141 90.8996 51.5141C88.813 51.5141 85.8134 51.7749 83.8572 53.2095C83.3355 53.6007 82.6834 53.8615 81.901 53.8615C80.8576 53.8615 79.8143 53.3399 79.1622 52.427C78.6406 51.6445 78.5102 50.862 78.6406 49.9491C78.771 49.297 79.1622 48.6449 79.6839 48.1233C78.1189 48.5145 76.5539 48.7753 74.7281 48.7753C74.5977 48.7753 74.5977 48.7753 74.4673 48.7753C74.4673 50.7316 74.2064 55.0353 71.5981 57.774C72.1198 58.0348 72.511 58.2957 73.0327 58.6869C73.424 58.9477 73.5544 59.5998 73.2935 59.9911C73.0327 60.3823 72.3806 60.5127 71.9894 60.2519C69.6419 58.6869 66.7728 57.774 63.9036 57.774C56.0787 57.774 49.6884 64.0339 49.6884 71.7285C49.6884 79.423 56.0787 85.6829 63.9036 85.6829C67.4248 85.6829 70.8156 84.3787 73.424 82.1617C73.8152 81.7704 74.4673 81.9008 74.7281 82.2921C75.1194 82.6833 74.9889 83.3354 74.5977 83.5962C72.9023 85.0308 70.9461 86.2046 68.8594 86.8566C71.7286 90.6387 76.5539 95.7249 82.6834 97.8115C81.6401 96.6378 81.3793 95.2032 81.2489 94.2903ZM68.5986 74.3368C68.4682 74.4672 68.3378 74.4672 68.2073 74.4672C67.8161 74.4672 67.5553 74.2063 67.2944 73.9455C67.2944 73.8151 65.9903 71.4676 61.2953 70.946C61.0345 73.0326 60.3824 75.3801 58.687 77.7276C58.5566 77.9884 58.1654 78.1188 57.9045 78.1188C57.6437 78.1188 57.5133 78.1188 57.3829 77.9884C56.9916 77.7276 56.8612 77.0755 57.122 76.6842C61.5562 70.6851 58.1654 64.1644 58.1654 64.1644C57.9045 63.6427 58.0349 63.121 58.5566 62.8602C59.0783 62.5994 59.5999 62.7298 59.8608 63.2515C59.9912 63.3819 61.1649 65.8598 61.4257 69.2506C67.4248 69.9026 69.1202 73.163 69.1202 73.2934C69.2507 73.5543 68.9898 74.0759 68.5986 74.3368Z" fill="#F2BABD"/>
<path d="M64.034 55.8177C65.9903 55.8177 67.9465 56.209 69.9027 56.8611C73.2935 54.1223 72.6415 47.8624 72.6415 47.8624C72.6415 47.6016 72.6415 47.3408 72.9023 47.0799C73.1631 46.8191 73.424 46.8191 73.6848 46.8191C83.7268 47.4712 91.6821 38.9942 91.6821 38.9942C92.0733 38.6029 92.595 38.6029 92.9863 38.8638C92.9863 38.8638 98.4637 43.4283 105.767 43.4283C108.636 42.6458 111.505 42.5154 113.722 42.7762C116.461 43.037 118.417 43.5587 118.548 43.5587C120.373 44.0804 121.417 45.9062 120.895 47.732C120.895 47.8624 120.765 47.9928 120.765 48.1232C120.895 48.2537 120.895 48.3841 121.026 48.5145C121.156 48.7753 121.547 50.862 122.069 53.9919C124.286 53.2094 129.763 50.862 130.415 44.4716C130.415 44.0804 130.676 43.8195 131.068 43.6891C131.198 43.6891 145.283 37.9508 147.369 26.6047C148.413 20.736 147.5 15.9106 144.5 13.0415C142.153 10.694 138.762 9.78112 134.98 10.4332C134.589 10.4332 134.328 10.4332 134.067 10.042C133.415 9.12905 117.504 -8.99869 90.6388 11.7374C90.3779 11.8678 90.1171 11.9982 89.8563 11.8678C89.5955 11.8678 89.3346 11.6069 89.2042 11.3461C88.9434 10.9549 82.9443 1.30413 66.7728 5.08617C50.6013 8.86822 47.7321 20.2144 47.6017 20.736C47.4713 21.1273 47.2105 21.5185 46.6888 21.5185C46.5584 21.5185 33.6473 22.5618 27.6482 33.1255C27.5177 33.3863 27.3873 33.5167 27.1265 33.5167C27.1265 33.5167 22.6924 35.0817 20.7361 39.1246C19.5624 41.6025 19.5624 44.4716 20.7361 47.732C20.7361 47.8624 20.7361 47.9928 20.7361 48.1232C20.7361 48.2537 20.0841 59.0781 27.1265 65.8597C31.8214 70.2939 38.7335 71.9893 47.7321 71.0763C48.3842 62.4689 55.4266 55.8177 64.034 55.8177Z" fill="black"/>
<path d="M111.244 74.8585C112.288 74.9889 113.201 74.9889 113.461 74.9889C113.722 74.8585 113.983 74.728 114.374 74.5976C116.983 73.4239 118.678 74.2064 119.591 74.9889C119.982 75.3801 120.243 75.7714 120.504 76.1626C120.895 73.6847 121.156 71.2068 121.286 68.5985C119.33 72.3806 115.679 74.8585 111.244 74.8585Z" fill="#F2BABD"/>
<path d="M113.722 44.7325C113.07 44.7325 112.418 44.6021 111.636 44.6021C109.027 44.6021 106.028 44.9933 103.55 46.4279C102.898 46.8191 102.637 47.732 103.028 48.3841C103.289 48.7753 103.68 49.0362 104.072 49.0362C104.332 49.0362 104.593 49.0362 104.854 48.9058C106.941 47.732 109.679 47.2104 113.201 47.4712C115.548 47.6016 117.243 48.1233 117.243 48.1233C117.374 48.1233 117.374 48.1233 117.504 48.1233C118.156 48.1233 118.808 47.732 118.939 47.0799C119.2 46.2974 118.678 45.515 117.896 45.3845C118.026 45.3845 116.2 44.8629 113.722 44.7325Z" fill="#255EB1"/>
<path d="M82.8139 51.7749C84.7701 50.3403 87.5088 49.6882 91.03 49.6882C93.3775 49.6882 95.0729 49.9491 95.0729 50.0795C95.8554 50.2099 96.6379 49.6882 96.7683 48.9057C96.8987 48.1232 96.3771 47.3408 95.5946 47.2103C95.3337 47.2103 93.5079 46.8191 91.03 46.8191C88.1609 46.8191 84.118 47.2103 81.1185 49.4274C80.8576 49.6882 80.5968 49.9491 80.5968 50.3403C80.5968 50.7315 80.5968 51.1228 80.8576 51.3836C81.3793 52.0357 82.2922 52.1661 82.8139 51.7749Z" fill="#255EB1"/>
<path d="M50.6012 120.504L43.9501 119.33C43.4284 119.2 43.0372 118.678 43.1676 118.156C43.298 117.635 43.8196 117.243 44.3413 117.374L61.6866 120.373C63.5124 120.765 64.8165 122.46 64.6861 124.416L60.9041 154.803C96.7683 163.541 134.328 151.803 139.936 149.978C137.588 117.374 112.288 104.724 106.941 102.376L107.202 109.679C107.202 110.983 106.419 112.157 105.245 112.548C101.985 113.853 98.5941 114.244 95.4641 114.244C90.5083 114.244 86.2046 113.201 83.9876 112.548C82.553 112.157 81.7705 110.853 81.9009 109.418L83.0747 100.029C78.771 98.8548 57.5133 94.0295 34.6906 102.898C26.0832 106.289 20.997 112.157 19.5624 120.373C17.7366 131.589 23.4748 145.022 30.126 151.021L61.5561 130.415L50.6012 120.504Z" fill="#FFDB58"/>
<path d="M61.2952 68.9898C61.1648 65.599 59.8607 63.2515 59.7302 62.9907C59.4694 62.469 58.9477 62.3386 58.4261 62.5994C57.9044 62.8602 57.774 63.3819 58.0348 63.9036C58.0348 63.9036 61.4256 70.4243 56.9915 76.4234C56.7307 76.8147 56.7307 77.4668 57.2523 77.7276C57.3828 77.858 57.6436 77.858 57.774 77.858C58.0348 77.858 58.4261 77.7276 58.5565 77.4668C60.2519 75.1193 60.904 72.7718 61.1648 70.6852C65.8598 71.2068 67.1639 73.5543 67.1639 73.6847C67.2943 74.076 67.6856 74.2064 68.0768 74.2064C68.2072 74.2064 68.3377 74.2064 68.4681 74.076C68.9897 73.8151 69.1201 73.2935 68.8593 72.7718C68.9897 72.9022 67.2943 69.6418 61.2952 68.9898Z" fill="black"/>
<path d="M97.6812 281.697C96.377 284.566 94.0296 286.653 91.1604 287.696C87.1175 289.131 82.6834 289.652 77.9885 289.261C69.2506 288.609 58.4262 289 47.8625 289.522C38.0814 289.913 28.8219 290.305 22.1707 289.783C14.0849 289.131 7.30333 285.088 4.17336 279.219C1.43464 274.263 1.30423 268.134 3.39087 261.092C4.04295 268.004 8.7379 273.872 16.6932 277.915C27.6481 283.393 38.4726 281.045 47.2104 279.089C52.0358 278.046 56.2091 277.133 58.8174 278.046C61.5561 278.958 70.1635 281.567 78.5101 281.567C85.683 281.567 92.7254 279.611 95.5945 272.959C96.1162 271.655 96.5074 270.351 96.6379 269.177L98.0724 272.568C99.1158 275.437 98.9853 278.828 97.6812 281.697ZM217.533 279.219C214.403 285.088 207.621 289.131 199.536 289.783C192.884 290.305 183.625 289.913 173.844 289.522C163.28 289 152.456 288.609 143.718 289.261C139.023 289.652 134.589 289.131 130.546 287.696C127.677 286.653 125.329 284.566 124.025 281.697C122.721 278.828 122.591 275.437 123.764 272.568L125.199 269.177C125.329 270.481 125.72 271.786 126.242 272.959C129.111 279.611 136.023 281.567 143.327 281.567C151.673 281.567 160.411 278.958 163.019 278.046C165.628 277.133 169.801 278.046 174.626 279.089C183.364 280.915 194.189 283.262 205.143 277.915C213.099 274.003 217.794 268.004 218.446 261.092C220.402 268.134 220.272 274.263 217.533 279.219ZM181.147 239.834C172.018 247.92 169.149 256.918 169.018 257.309C168.888 257.831 169.149 258.353 169.67 258.483C169.801 258.483 169.801 258.483 169.931 258.483C170.323 258.483 170.714 258.222 170.844 257.831C170.844 257.701 174.105 247.528 184.538 239.443C185.712 239.443 186.885 239.443 188.059 239.443C179.452 246.615 174.235 260.57 173.974 261.222C173.844 261.744 174.105 262.265 174.496 262.526C174.626 262.526 174.757 262.526 174.887 262.526C175.278 262.526 175.67 262.265 175.8 261.874C175.8 261.744 181.669 246.224 190.667 239.834C190.798 239.834 190.798 239.703 190.798 239.573C196.927 240.225 203.318 242.051 208.534 245.703C211.012 247.398 212.838 249.485 214.273 251.702C214.533 252.093 214.664 252.484 214.925 252.875C215.968 255.223 216.49 257.831 216.359 260.309C215.968 266.569 211.534 272.177 204.1 275.828C193.797 280.915 183.364 278.698 174.887 276.872C169.801 275.828 165.367 274.785 162.237 275.828C159.368 276.741 133.415 284.958 127.807 271.786C123.634 261.874 134.719 250.789 138.762 247.137C139.153 248.702 139.936 250.137 141.24 251.31C142.805 252.745 145.935 254.571 151.804 254.571C154.021 254.571 156.499 254.31 159.498 253.658C169.54 251.441 172.279 247.007 173.061 244.659C173.322 243.746 173.452 242.964 173.322 242.051C175.148 241.268 177.756 240.355 181.147 239.834ZM170.323 239.312C171.627 240.616 172.018 242.703 171.496 244.529C170.844 246.615 168.497 250.267 159.368 252.223C149.326 254.44 144.761 251.962 142.935 250.397C141.501 249.093 140.718 247.398 140.979 245.703C141.37 242.703 144.37 241.268 145.544 240.877L146.848 246.355C147.109 247.528 148.152 248.311 149.326 248.441C150.239 248.572 151.151 248.572 151.934 248.572C157.672 248.572 161.846 246.876 164.063 245.703C165.236 245.05 165.888 243.746 165.497 242.442L163.802 237.226C165.888 236.704 168.888 237.878 170.323 239.312ZM163.411 242.964C163.541 243.355 163.411 243.746 163.019 244.007C160.802 245.181 155.977 247.137 149.326 246.485C148.934 246.485 148.674 246.224 148.543 245.833L146.065 235.791C150.239 234.487 154.803 232.791 159.628 230.705L163.411 242.964ZM194.58 162.367C193.406 166.019 190.407 168.497 185.581 170.062C175.148 173.322 159.628 170.192 153.108 165.236C149.326 159.368 145.413 154.151 141.631 150.238C139.805 121.417 120.504 107.593 111.244 102.506C117.374 103.159 127.155 105.115 132.893 110.592C132.111 115.418 133.154 120.504 136.023 124.807C138.24 128.068 141.109 130.285 144.37 131.198L140.718 133.676C140.457 133.806 140.327 134.067 140.327 134.328C140.327 134.589 140.327 134.849 140.457 135.11L154.412 154.542C154.542 154.803 154.934 154.933 155.194 154.933C155.455 154.933 155.586 154.933 155.716 154.803C156.107 154.542 156.238 153.89 155.977 153.499L142.674 134.849L157.02 125.199L176.974 143.718C177.104 143.848 177.365 143.979 177.626 143.979C177.756 143.979 178.017 143.979 178.147 143.848C178.539 143.587 178.669 143.066 178.539 142.674L172.279 126.242C173.322 125.72 175.409 124.547 177.365 122.851C180.104 126.372 198.492 150.108 194.58 162.367ZM156.238 119.591C158.064 121.938 161.585 123.503 165.628 122.721L165.497 124.416L158.716 124.025L155.455 121.025L155.716 118.939C155.846 119.069 155.977 119.33 156.238 119.591ZM168.497 121.808L169.54 124.677L167.323 124.547L167.453 122.199C167.845 122.069 168.236 121.938 168.497 121.808ZM160.933 126.112L165.367 126.372L165.106 130.024L160.933 126.112ZM167.062 131.589L167.323 126.372L170.453 126.503L175.409 139.153L167.062 131.589C167.062 131.719 167.062 131.589 167.062 131.589ZM153.629 119.33L150.108 116.07C151.804 115.026 153.369 113.722 154.542 112.027L153.629 119.33ZM157.02 108.375C157.281 108.636 157.672 108.766 157.933 109.027C157.542 109.549 157.02 109.94 156.759 110.462L157.02 108.375ZM154.021 105.506C155.586 113.722 144.631 116.461 144.109 116.591C143.587 116.722 143.327 117.243 143.327 117.765C143.457 118.287 143.979 118.548 144.5 118.548C145.674 118.287 146.978 117.895 148.282 117.243L155.455 123.895L146.587 129.763C143.327 129.372 139.936 127.155 137.588 123.764C134.589 119.33 133.676 113.722 135.241 108.897C137.067 103.028 142.935 100.289 147.5 100.55C149.326 100.55 153.108 101.202 154.021 105.506ZM171.627 124.286L170.323 120.895C176.974 117.243 178.147 115.548 178.278 115.287C178.539 114.896 178.408 114.244 178.017 113.983C177.626 113.722 176.974 113.853 176.713 114.244C176.713 114.244 175.539 115.809 168.758 119.591C164.323 122.069 159.759 120.895 157.933 118.417C156.107 116.07 156.89 112.809 159.889 109.81C164.845 104.854 171.366 104.332 175.67 105.897C178.8 107.071 180.625 109.288 180.886 112.157C181.277 118.417 174.235 122.851 171.627 124.286ZM182.06 101.854C181.93 103.55 181.277 105.115 180.104 106.68C179.06 105.636 177.626 104.724 176.061 104.071C171.496 102.376 164.715 102.898 159.368 107.593C157.02 106.549 155.586 104.724 155.455 102.637C155.194 100.159 156.759 97.6811 159.759 95.5944C166.019 91.1603 173.192 91.682 177.495 94.2903C180.756 95.9857 182.451 98.7244 182.06 101.854ZM170.453 84.9004C173.453 86.2045 175.539 88.6824 176.322 91.4211C171.496 89.5953 164.584 89.5953 158.585 93.899C155.977 95.7248 154.281 97.9419 153.629 100.159C151.543 99.1157 150.239 97.5507 150.108 95.7249C149.847 93.247 151.282 90.6386 154.412 88.1608C159.759 83.857 165.628 82.6833 170.453 84.9004ZM156.499 84.3787C155.325 85.0308 154.281 85.8133 153.108 86.5958C149.456 89.4649 147.761 92.7253 148.152 95.8553C148.282 96.8986 148.674 97.8115 149.065 98.594C148.674 98.4636 148.152 98.4636 147.63 98.4636C142.414 98.2027 135.762 101.333 133.545 107.853L127.285 104.593C118.939 100.811 109.027 100.289 106.419 100.159L106.289 97.8115C110.071 96.2465 112.418 94.5511 113.592 93.5078C116.2 91.4211 118.026 88.8128 119.069 86.0741C124.025 76.8146 123.373 63.7731 122.199 55.6873C124.547 54.9048 131.068 52.2965 132.111 44.9933C134.85 43.8195 146.978 37.8204 149.065 26.7351C150.239 20.2144 149.065 14.8673 145.674 11.3461C142.935 8.60738 139.153 7.56406 134.98 8.08572C132.241 5.347 115.548 -9.78118 89.9867 9.38988C87.9 6.78157 80.7272 -0.391275 66.1207 2.99952C50.9925 6.78157 46.8192 16.8236 45.9063 19.5623C43.0371 19.9535 32.0823 21.9098 26.2136 31.6909C25.0398 32.2126 20.9969 34.0384 19.0407 38.0813C17.6061 40.9504 17.6061 44.3412 18.9103 47.9928C18.7799 49.6882 18.6495 60.1215 25.9527 67.0335C30.126 70.9459 35.9947 73.0326 43.298 73.0326C44.7325 73.0326 46.2975 72.9022 47.9929 72.7717C48.5146 81.1183 55.557 87.6391 64.1644 87.6391C65.2078 87.6391 66.1207 87.5087 67.164 87.3783C69.2506 90.117 72.2502 93.7686 76.2931 96.5073C67.0336 95.0728 50.8621 94.2903 33.7777 100.811C24.5182 104.332 18.9103 110.983 17.4757 119.852C15.5195 131.98 21.9099 146.587 29.2131 152.716C29.3435 152.847 29.6044 152.977 29.8652 152.977C29.9956 152.977 30.2564 152.977 30.3869 152.847L44.9934 143.196L47.4713 146.065C46.8192 146.848 45.9063 148.282 45.3846 150.369C44.0805 150.63 41.0809 151.282 39.1247 153.629C37.5597 155.455 36.9076 157.803 37.038 160.541V160.672C36.9076 160.802 36.7772 160.933 36.6468 161.063C35.4731 162.758 34.5601 165.758 36.7772 170.322C41.0809 179.06 49.8187 180.756 56.0787 180.756C58.4262 180.756 60.5128 180.495 61.817 180.234L48.7754 222.097C48.3842 223.532 48.7754 225.097 49.9492 226.01C51.5141 227.314 54.7745 229.531 59.5999 231.618L58.5566 234.878C55.557 234.226 51.9054 235.661 49.9492 237.617C49.2971 238.269 48.7754 239.182 48.5146 240.095C46.1671 238.66 42.2547 237.617 37.8205 237.356C29.7348 236.834 19.6928 238.66 11.9983 243.877C8.99873 245.963 6.65126 248.702 5.21669 251.702C-1.95616 265.526 -0.260759 274.524 2.60838 279.741C6.12959 286.262 13.4329 290.565 22.1707 291.348C24.5182 291.609 27.2569 291.609 30.2564 291.609C35.6035 291.609 41.8634 291.348 48.2538 291.087C58.687 290.565 69.6419 290.174 78.1189 290.826C83.0747 291.217 87.7696 290.696 92.0733 289.131C95.4641 287.957 98.2029 285.479 99.7678 282.088C101.333 278.698 101.333 274.785 100.029 271.394L95.8554 261.352C92.9862 253.006 84.7701 245.963 83.0747 244.659C82.4226 240.616 78.3797 238.921 77.206 238.53L77.7276 236.313C84.5092 237.226 92.595 237.226 101.985 235.921C103.68 235.661 104.984 234.226 104.984 232.661L110.201 181.538L126.633 237.486C127.285 238.921 128.72 239.834 130.155 239.834C130.415 239.834 130.676 239.834 131.068 239.703C133.545 239.182 138.501 237.878 144.5 236.052L145.152 238.66C143.848 239.051 139.936 240.747 139.284 244.79C137.588 246.224 129.372 253.136 126.503 261.483L122.33 271.525C120.895 274.916 121.026 278.828 122.591 282.219C124.156 285.61 126.764 288.088 130.285 289.261C134.589 290.826 139.284 291.348 144.239 290.957C152.847 290.305 163.671 290.696 174.105 291.217C180.495 291.478 186.624 291.739 192.102 291.739C195.101 291.739 197.71 291.609 200.188 291.478C208.925 290.696 216.229 286.392 219.75 279.871C222.489 274.655 224.315 265.656 217.142 251.832C215.707 248.833 213.36 246.094 210.36 244.007C198.362 235.921 180.495 236.052 173.713 240.225C173.453 239.312 172.931 238.53 172.279 237.747C170.453 235.791 166.671 234.356 163.671 235.008L162.106 229.792C167.975 227.184 173.974 224.184 179.452 220.532C181.017 219.489 181.538 217.533 180.886 215.837C178.669 210.49 167.975 187.537 156.107 168.757C161.454 171.366 169.018 173.192 176.322 173.192C179.973 173.192 183.625 172.8 186.755 171.757C192.102 170.062 195.623 167.062 196.927 162.889C201.231 149.456 181.93 124.677 179.321 121.286C181.669 118.939 183.625 115.678 183.234 111.896C183.103 110.592 182.712 109.288 182.06 108.114C183.625 106.158 184.407 104.202 184.668 101.985C185.059 98.0723 182.973 94.6815 179.191 92.4645C178.669 88.4216 175.93 84.9004 171.888 83.0746C167.975 81.3792 163.411 81.5096 159.107 83.3354L156.499 84.3787ZM104.984 109.679C104.984 110.071 104.724 110.462 104.332 110.723C96.6379 113.722 87.7696 111.636 84.2484 110.592C83.7267 110.462 83.4659 110.071 83.4659 109.549L84.5092 100.289C85.4221 100.55 86.4655 100.681 87.3784 100.681C88.4217 100.681 89.3346 100.811 90.3779 100.811C96.1162 100.811 100.811 99.8981 104.463 98.594L104.984 109.679ZM100.942 68.0768C101.724 69.9026 103.028 71.4676 104.593 72.6413C102.246 71.598 101.202 72.9022 100.55 73.8151C100.029 74.4671 99.6374 74.9888 98.5941 74.9888C97.8116 74.9888 97.0291 74.728 96.2466 74.3367C95.8554 74.2063 95.4641 74.0759 95.2033 73.9455C97.6812 72.7718 99.7678 70.6851 100.942 68.0768ZM90.6388 72.9022C85.4221 72.9022 81.2488 68.7289 81.2488 63.5123C81.2488 58.2956 85.4221 54.1224 90.6388 54.1224C95.8554 54.1224 100.029 58.2956 100.029 63.5123C100.029 68.7289 95.725 72.9022 90.6388 72.9022ZM119.591 75.1192C118.678 74.3367 116.983 73.5542 114.374 74.728C114.114 74.8584 113.853 74.9888 113.461 75.1192C113.07 75.1192 112.288 75.1192 111.244 74.9888C115.548 74.9888 119.33 72.5109 121.286 68.8593C121.156 71.3372 121.026 73.9455 120.504 76.4234C120.373 75.9017 119.982 75.3801 119.591 75.1192ZM111.244 72.9022C106.028 72.9022 101.854 68.7289 101.854 63.5123C101.854 58.2956 106.028 54.1224 111.244 54.1224C116.461 54.1224 120.634 58.2956 120.634 63.5123C120.634 68.7289 116.461 72.9022 111.244 72.9022ZM95.4641 76.1626C96.377 76.5538 97.4203 77.0755 98.7245 76.945C100.55 76.8146 101.463 75.7713 102.115 74.9888C102.898 74.0759 103.028 73.8151 104.463 74.728C105.897 75.5105 107.462 76.0321 108.897 76.4234C105.897 77.0755 103.289 77.4667 103.289 77.4667C103.289 77.4667 99.6374 78.1188 92.4646 76.4234C93.3775 75.2496 94.16 75.5105 95.4641 76.1626ZM91.1604 95.7249C93.7687 97.029 96.7683 97.8115 100.289 97.8115C97.1595 98.594 93.5079 98.9852 89.3346 98.9852C89.465 98.8548 89.5954 98.8548 89.7259 98.7244C90.5083 97.9419 91.03 96.8986 91.1604 95.7249ZM112.94 91.8124C112.809 91.9428 112.679 91.9428 112.679 92.0732C112.288 92.334 112.027 92.5949 111.636 92.8557C111.505 92.8557 111.505 92.9861 111.375 92.9861C110.462 93.6382 109.419 94.1599 108.375 94.5511C108.375 94.5511 108.375 94.5511 108.245 94.5511C107.723 94.6815 107.202 94.9424 106.68 95.0728C106.549 95.0728 106.419 95.2032 106.289 95.2032C105.897 95.3336 105.376 95.464 104.984 95.464C104.854 95.464 104.593 95.5944 104.463 95.5944C103.811 95.7249 103.159 95.7248 102.507 95.8553C101.854 95.8553 101.202 95.9857 100.55 95.9857H100.42C95.725 95.9857 91.5517 94.4207 88.2913 91.682C91.1604 88.8128 95.8554 87.1174 100.811 87.1174C105.767 87.1174 110.462 88.8128 113.201 91.682C113.201 91.5516 113.07 91.682 112.94 91.8124ZM27.3873 65.7293C20.2145 58.9477 20.8665 48.1232 20.8665 47.9928C20.8665 47.8624 20.8665 47.732 20.8665 47.6016C19.6928 44.3412 19.6928 41.4721 20.8665 38.9942C22.8228 34.9513 27.2569 33.3863 27.2569 33.3863C27.5177 33.2559 27.6481 33.1255 27.7785 32.9951C33.7777 22.4314 46.6888 21.3881 46.8192 21.3881C47.2104 21.3881 47.6017 20.9968 47.7321 20.6056C47.8625 20.0839 50.7316 8.86822 66.9032 4.95575C82.9442 1.30412 88.9434 10.9549 89.2042 11.4765C89.3346 11.7374 89.5954 11.8678 89.8563 11.9982C90.1171 11.9982 90.3779 11.9982 90.6388 11.8678C117.504 -8.99869 133.415 9.12905 134.197 9.91154C134.458 10.1724 134.719 10.3028 135.11 10.1724C138.892 9.52029 142.283 10.4332 144.631 12.7807C147.63 15.7802 148.543 20.6056 147.5 26.3439C145.413 37.5596 131.328 43.2979 131.198 43.4283C130.807 43.5587 130.676 43.8195 130.546 44.2108C129.894 50.6011 124.547 52.9486 122.199 53.7311C121.678 50.6011 121.156 48.6449 121.156 48.2537C121.156 48.1232 121.026 47.9928 120.895 47.8624C120.895 47.732 121.026 47.6016 121.026 47.4712C121.547 45.6454 120.504 43.8195 118.678 43.2979C118.417 43.2979 116.461 42.7762 113.853 42.5154C111.636 42.385 108.636 42.385 105.897 43.1675C98.5941 43.037 93.1167 38.6029 93.1167 38.6029C92.7254 38.2117 92.0733 38.3421 91.8125 38.7333C91.6821 38.8638 83.8571 47.3408 73.8152 46.5583C73.5543 46.5583 73.2935 46.6887 73.0327 46.8191C72.7718 47.0799 72.7718 47.3408 72.7718 47.6016C72.7718 47.6016 73.4239 53.8615 70.0331 56.6002C68.2073 55.9482 66.2511 55.5569 64.1644 55.5569C55.557 55.5569 48.5146 62.2081 47.9929 70.6851C38.8638 71.8588 31.9518 70.1634 27.3873 65.7293ZM69.1202 86.8566C71.2069 86.2045 73.1631 85.0308 74.8585 83.5962C75.2497 83.205 75.2497 82.6833 74.9889 82.2921C74.5977 81.9008 74.076 81.9008 73.6848 82.1617C71.0764 84.5091 67.6856 85.6829 64.1644 85.6829C56.3395 85.6829 49.9492 79.4229 49.9492 71.7284C49.9492 64.0339 56.3395 57.774 64.1644 57.774C67.0336 57.774 69.9027 58.6869 72.2502 60.2519C72.6414 60.5127 73.2935 60.3823 73.5543 59.991C73.8152 59.5998 73.6848 58.9477 73.2935 58.6869C72.7718 58.4261 72.3806 58.0348 71.8589 57.774C74.4672 55.0353 74.7281 50.862 74.7281 48.7753C74.8585 48.7753 74.8585 48.7753 74.9889 48.7753C76.6843 48.7753 78.3797 48.5145 79.9447 48.1232C79.423 48.6449 79.0318 49.297 78.9014 49.9491C78.771 50.862 78.9014 51.7749 79.423 52.427C80.0751 53.3399 81.1184 53.8615 82.1618 53.8615C82.8138 53.8615 83.4659 53.6007 84.118 53.2094C86.0742 51.7749 89.0738 51.514 91.1604 51.514C93.2471 51.514 94.9425 51.7749 94.9425 51.7749C96.7683 52.1661 98.4637 50.862 98.8549 49.1666C99.2462 47.3408 97.942 45.6454 96.2466 45.2541C95.9858 45.2541 94.0296 44.8629 91.2908 44.8629C89.9867 44.8629 88.4217 44.9933 86.8567 45.2541C89.5954 43.5587 91.6821 41.7329 92.7254 40.82C94.16 41.8633 97.8116 44.0804 102.507 44.9933C101.854 45.3845 101.463 46.0366 101.333 46.8191C101.072 47.732 101.202 48.6449 101.724 49.297C102.246 50.2099 103.289 50.862 104.332 50.862C104.463 50.862 104.463 50.862 104.593 50.862C105.245 50.862 105.767 50.7315 106.289 50.3403C108.375 49.0361 111.375 49.0362 113.461 49.1666C115.548 49.297 117.113 49.6882 117.113 49.8186C117.374 49.8186 117.504 49.9491 117.765 49.9491C118.417 49.9491 119.069 49.8186 119.591 49.5578C119.852 50.862 120.373 53.6007 120.895 57.1219C118.808 54.1223 115.418 52.0357 111.505 52.0357C106.941 52.0357 102.898 54.7744 101.202 58.8173C99.507 54.9048 95.4641 52.0357 90.8996 52.0357C84.6396 52.0357 79.5534 57.1219 79.5534 63.3818C79.5534 69.6418 84.6396 74.728 90.8996 74.728C91.1604 74.728 91.2908 74.728 91.4212 74.728C91.1604 74.9888 90.7692 75.3801 90.3779 75.9017C89.5954 75.6409 88.8129 75.5105 88.0304 75.2496C86.5959 74.8584 85.0309 74.9888 83.7267 75.7713C82.9442 76.0321 78.2493 77.4667 76.4235 80.7271C75.2497 82.8137 75.7714 84.9004 76.1626 86.7262C76.4235 88.0303 76.6843 89.3345 76.4235 90.3778C75.641 92.3341 76.4235 93.7686 77.3364 94.4207C78.5101 95.3336 80.0751 95.2032 81.5097 94.1599C81.6401 95.0728 82.0313 96.5073 83.2051 97.6811C76.6843 95.7249 71.9894 90.6386 69.1202 86.8566ZM29.8652 150.891C23.214 144.891 17.4757 131.459 19.3015 120.243C20.6057 112.027 25.6919 106.028 34.4297 102.767C57.2524 93.899 78.5101 98.7244 82.8138 99.8981L81.6401 109.288C81.5097 110.723 82.2922 112.027 83.7267 112.418C85.9438 113.07 90.2475 114.113 95.2033 114.113C98.3333 114.113 101.724 113.722 104.984 112.418C106.158 111.896 106.941 110.853 106.941 109.549L106.68 102.246C112.027 104.593 137.458 117.243 139.675 149.847C134.197 151.673 96.6379 163.28 60.6432 154.673L64.4253 124.286C64.6861 122.33 63.3819 120.634 61.4257 120.243L44.2109 117.374C43.6892 117.243 43.1676 117.635 43.0371 118.156C42.9067 118.678 43.298 119.2 43.8196 119.33L50.4708 120.504L61.1649 130.285L29.8652 150.891ZM62.5994 124.155L62.0778 128.459L54.1224 121.156L61.2953 122.46C62.0778 122.46 62.7299 123.373 62.5994 124.155ZM60.904 138.11L58.5566 134.458L61.6865 132.372L60.904 138.11ZM40.4288 155.064C41.733 153.499 43.6892 152.847 44.9934 152.586C44.9934 152.977 44.9934 153.368 44.9934 153.76C44.9934 155.064 45.3846 156.498 45.9063 157.803C45.6455 157.803 45.3846 157.672 45.1238 157.672C43.298 157.542 40.9505 157.933 38.9943 159.237C38.9943 157.542 39.5159 156.107 40.4288 155.064ZM38.4726 169.67C37.038 166.801 36.9076 164.193 38.2118 162.367C39.6463 160.28 42.6459 159.368 44.863 159.498C45.9063 159.628 46.6888 159.889 47.2104 160.411C48.645 162.758 50.7316 164.975 53.4704 167.192C53.6008 167.323 53.8616 167.453 54.1224 167.453C54.3833 167.453 54.6441 167.323 54.9049 167.062C55.2962 166.671 55.1658 166.019 54.7745 165.758C52.427 163.802 50.6012 161.976 49.2971 160.02C49.1667 159.759 49.0362 159.498 48.9058 159.368C47.7321 157.411 47.08 155.455 46.9496 153.629C46.8192 149.586 49.2971 146.978 49.2971 146.978C49.6883 146.587 49.6883 146.065 49.4275 145.674L46.6888 142.283L56.9916 135.502L60.6432 141.109L58.8174 155.455C58.8174 155.977 59.0782 156.368 59.5999 156.498C62.7299 157.281 65.8598 157.933 68.9898 158.455L62.7299 178.539C59.4695 179.06 44.3413 181.538 38.4726 169.67ZM50.6012 223.01L70.6852 158.715C76.9451 159.628 83.0747 160.02 89.0738 160.02C114.896 160.02 136.545 153.238 140.457 151.934C144.109 155.716 147.891 160.802 151.543 166.41C151.543 166.41 151.543 166.54 151.673 166.54C164.323 185.711 176.061 211.142 178.539 216.881C178.93 217.794 178.669 218.707 177.887 219.228C160.281 230.835 137.197 236.834 130.546 238.269C129.633 238.53 128.72 238.008 128.329 237.226L110.592 176.713C110.462 176.322 110.071 175.93 109.549 176.061C109.027 176.061 108.766 176.452 108.636 176.974L102.898 233.052C102.898 233.835 102.246 234.487 101.463 234.617C71.5981 238.921 55.4266 228.357 51.2533 224.966C50.6012 224.314 50.3404 223.662 50.6012 223.01ZM75.5106 236.443L73.1631 245.833C73.0327 246.224 72.7718 246.485 72.3806 246.485C65.7294 247.137 60.904 245.181 58.687 244.007C58.2957 243.746 58.1653 243.355 58.2957 242.964L61.4257 232.661C65.2078 234.226 69.9027 235.53 75.5106 236.443ZM51.3837 239.312C52.8183 237.747 55.6874 236.704 58.0349 237.095L56.4699 242.442C56.0787 243.746 56.6003 245.05 57.9045 245.703C59.9911 246.876 64.2948 248.572 70.0331 248.572C70.946 248.572 71.7285 248.572 72.6414 248.441C73.8152 248.311 74.7281 247.528 75.1193 246.355L76.4235 240.877C77.5972 241.268 80.5968 242.703 80.988 245.703C81.1184 247.268 80.4663 249.093 79.0318 250.397C77.206 252.093 72.6414 254.44 62.5994 252.223C53.4704 250.267 51.1229 246.485 50.4708 244.529C49.6883 242.703 50.21 240.747 51.3837 239.312ZM13.0416 245.833C18.2582 242.312 24.779 240.355 30.7781 239.703C30.7781 239.834 30.9085 239.834 30.9085 239.964C39.9072 246.355 45.7759 261.874 45.7759 262.004C45.9063 262.396 46.2975 262.657 46.6888 262.657C46.8192 262.657 46.9496 262.657 47.08 262.657C47.6017 262.526 47.8625 261.874 47.6017 261.352C47.3408 260.7 42.1242 246.746 33.5168 239.573C34.6906 239.573 35.8643 239.573 37.038 239.573C47.4713 247.659 50.7317 257.831 50.7317 257.962C50.8621 258.353 51.2533 258.614 51.6446 258.614C51.775 258.614 51.775 258.614 51.9054 258.614C52.427 258.483 52.6879 257.962 52.5575 257.44C52.427 257.049 49.5579 248.05 40.4288 239.964C43.6892 240.486 46.4279 241.399 47.9929 242.573C47.9929 243.485 47.9929 244.268 48.2538 245.181C49.0362 247.659 51.775 252.093 61.817 254.18C64.8165 254.832 67.2944 255.092 69.5115 255.092C75.3801 255.092 78.5101 253.267 80.0751 251.832C81.3793 250.658 82.2922 249.093 82.553 247.659C86.5959 251.31 97.8116 262.396 93.5079 272.307C87.9 285.479 62.0778 277.263 59.0782 276.35C55.9483 275.307 51.5141 276.22 46.4279 277.393C37.9509 279.219 27.5177 281.436 17.2149 276.35C9.78123 272.698 5.3471 267.091 4.95586 260.831C4.82544 258.222 5.3471 255.745 6.39043 253.397C6.65126 253.006 6.78167 252.615 7.0425 252.223C8.60749 249.615 10.5637 247.528 13.0416 245.833Z" fill="black"/>
<path d="M88.4216 44.2108L102.246 45.1237L113.853 44.8629L119.2 46.9495L120.634 57.3828C120.634 57.3828 121.808 62.5994 121.286 68.8593C120.765 75.1193 122.199 82.8138 113.331 91.4212C104.463 100.029 88.6824 98.8549 88.6824 98.8549C88.6824 98.8549 80.7271 98.7244 73.8151 92.2037L76.5538 76.293L76.8146 54.1224L77.4667 49.297C77.4667 49.297 77.9884 49.297 79.8142 48.1233C81.5096 46.9495 88.4216 44.2108 88.4216 44.2108Z" fill="#F2BABD"/>
<path d="M89.5951 68.7289C95.203 68.7289 99.6371 65.4685 99.6371 61.4256C99.6371 57.3828 95.0726 54.1224 89.5951 54.1224C83.9873 54.1224 79.5531 57.3828 79.5531 61.4256C79.4227 65.4685 83.9873 68.7289 89.5951 68.7289ZM97.6809 61.4256C97.6809 64.0339 94.8117 66.251 91.1601 66.6422C92.2034 65.3381 92.8555 63.7731 93.1163 62.2081H88.943C88.291 62.2081 87.7693 61.6865 87.7693 61.0344C87.7693 60.3823 88.291 59.8607 88.943 59.8607H92.9859C92.7251 58.4261 92.073 57.2523 91.1601 56.209C94.8117 56.6003 97.6809 58.8173 97.6809 61.4256Z" fill="black"/>
<path d="M80.4662 55.2961C80.727 55.2961 80.9879 55.1657 81.1183 55.0353C88.5519 47.6016 96.7681 53.4703 97.1594 53.7311C97.5506 53.992 98.2027 53.992 98.5939 53.4703C98.8548 53.0791 98.8548 52.427 98.3331 52.0357C98.2027 51.9053 88.4215 44.9933 79.6837 53.6007C79.2924 53.992 79.2924 54.6441 79.6837 55.0353C79.9445 55.1657 80.2054 55.2961 80.4662 55.2961Z" fill="black"/>
<path d="M112.548 68.0769C118.156 68.0769 122.59 64.8165 122.59 60.7736C122.59 56.7307 118.026 53.4703 112.548 53.4703C106.941 53.4703 102.506 56.7307 102.506 60.7736C102.376 64.8165 106.941 68.0769 112.548 68.0769ZM120.634 60.7736C120.634 63.3819 117.765 65.599 114.113 65.9902C115.157 64.6861 115.809 63.1211 116.07 61.5561H111.896C111.244 61.5561 110.723 61.0344 110.723 60.3824C110.723 59.7303 111.244 59.2086 111.896 59.2086H115.939C115.678 57.774 115.026 56.6003 114.113 55.557C117.765 55.9482 120.634 58.1653 120.634 60.7736Z" fill="black"/>
<path d="M103.419 54.644C103.68 54.644 103.941 54.5136 104.072 54.3832C111.505 46.9495 119.721 52.8182 120.113 53.079C120.504 53.3399 121.156 53.3399 121.547 52.8182C121.808 52.427 121.808 51.7749 121.286 51.3836C121.156 51.2532 111.375 44.3412 102.637 52.9486C102.246 53.3399 102.246 53.992 102.637 54.3832C102.898 54.644 103.159 54.644 103.419 54.644Z" fill="black"/>
<path d="M86.0742 75.5104C86.9871 72.9021 88.6825 72.1196 90.8996 72.1196C91.8125 72.1196 92.8558 72.25 94.0295 72.3805C94.6816 72.5109 95.3337 72.6413 95.8553 72.6413C96.377 72.6413 96.8987 72.9021 97.5507 73.4238C98.5941 74.2063 100.029 75.1192 102.637 75.1192C105.897 75.1192 106.81 78.6404 106.81 78.7708C106.941 79.1621 107.201 79.4229 107.723 79.5533C107.723 79.5533 110.071 79.8141 111.244 81.2487C111.766 81.9008 112.027 82.8137 111.766 83.857C111.505 85.8132 110.853 85.9437 109.679 86.3349C108.506 86.7261 106.81 87.1174 105.767 89.7257C104.332 93.5078 99.3766 93.7686 94.2904 93.7686C91.9429 93.7686 91.5516 92.9861 90.7691 91.5515C90.1171 90.3778 89.2042 88.8128 86.9871 87.3782C83.0746 84.9003 83.8571 81.7704 86.0742 75.5104Z" fill="#255EB1"/>
<path d="M92.073 89.0737C93.638 90.117 95.0725 90.5083 96.6375 90.5083C101.202 90.5083 105.506 86.5958 107.462 83.8571C107.723 83.5963 107.723 83.205 107.592 82.9442C107.462 82.6834 107.201 82.4225 106.81 82.2921C106.68 82.2921 96.7679 80.7271 92.9859 73.8151C92.8555 73.5543 92.4642 73.2935 92.2034 73.2935C91.8122 73.2935 91.5513 73.4239 91.2905 73.6847C91.1601 73.9455 87.5085 78.9013 88.4214 83.7267C88.6822 85.9437 89.8559 87.7696 92.073 89.0737ZM91.5513 86.0742L95.9854 80.0751C97.0288 80.8575 98.2025 81.5096 99.2458 82.0313L95.0725 88.4216C94.4205 88.2912 93.7684 88.0304 93.1163 87.5087C92.4642 86.9871 91.9426 86.5958 91.5513 86.0742ZM97.42 88.4216L101.202 82.6834C102.637 83.205 103.81 83.5963 104.723 83.8571C103.289 85.5525 100.55 88.0304 97.42 88.4216ZM91.9426 76.1626C92.7251 77.2059 93.5076 78.1188 94.4205 78.9013L90.3776 84.2483C90.2472 83.9875 90.2472 83.5963 90.1168 83.3354C89.7255 80.5967 91.0297 77.7276 91.9426 76.1626Z" fill="black"/>
<path d="M89.0737 92.5949C89.9866 94.1599 90.8996 95.7249 94.4208 95.7249C94.6816 95.7249 94.9424 95.7249 95.2033 95.7249C100.55 95.7249 106.028 95.2032 107.854 90.3778C108.506 88.6824 109.288 88.552 110.462 88.1608C111.896 87.7695 113.592 87.2479 113.983 84.1179C114.244 82.5529 113.853 81.1183 112.94 80.075C111.766 78.51 109.679 77.9884 108.636 77.7275C107.984 75.9017 106.158 73.163 102.637 73.163C100.55 73.163 99.6374 72.5109 98.7245 71.7284C97.942 71.2068 97.0291 70.5547 95.8553 70.5547C95.4641 70.5547 94.9424 70.4243 94.2904 70.4243C91.4212 69.9026 86.0742 69.1201 84.1179 74.728C82.1617 80.4663 80.4663 85.422 85.8134 88.9433C87.7696 90.2474 88.4217 91.5516 89.0737 92.5949ZM86.0742 75.5105C86.9871 72.9022 88.6825 72.1197 90.8995 72.1197C91.8125 72.1197 92.8558 72.2501 94.0295 72.3805C94.6816 72.5109 95.3337 72.6413 95.8553 72.6413C96.377 72.6413 96.8987 72.9022 97.5507 73.4238C98.5941 74.2063 100.029 75.1192 102.637 75.1192C105.897 75.1192 106.81 78.6404 106.81 78.7709C106.941 79.1621 107.201 79.4229 107.723 79.5534C107.723 79.5534 110.071 79.8142 111.244 81.2488C111.766 81.9008 112.027 82.8137 111.766 83.8571C111.505 85.8133 110.853 85.9437 109.679 86.3349C108.506 86.7262 106.81 87.1174 105.767 89.7258C104.332 93.5078 99.3766 93.7686 94.2904 93.7686C91.9429 93.7686 91.5516 92.9861 90.7691 91.5516C90.1171 90.3778 89.2041 88.8128 86.9871 87.3783C83.0746 84.9004 83.8571 81.7704 86.0742 75.5105Z" fill="black"/>
<path d="M91.5515 86.0742L95.9856 80.0751C97.029 80.8576 98.2027 81.5096 99.246 82.0313L95.0727 88.4217C94.4207 88.2912 93.7686 88.0304 93.1165 87.5087C92.4644 86.9871 91.9428 86.5958 91.5515 86.0742Z" fill="white"/>
<path d="M97.42 88.4216L101.202 82.6833C102.637 83.205 103.81 83.5963 104.723 83.8571C103.289 85.5525 100.55 88.0304 97.42 88.4216Z" fill="white"/>
<path d="M91.943 76.1626C92.7255 77.2059 93.508 78.1188 94.4209 78.9013L90.3781 84.2483C90.2476 83.9875 90.2476 83.5963 90.1172 83.3354C89.726 80.5967 91.0301 77.7276 91.943 76.1626Z" fill="white"/>
<path d="M100.55 67.2943C105.767 66.1206 106.158 69.2506 105.245 70.4243C104.593 71.2068 103.419 71.7285 102.376 71.598" stroke="black" stroke-width="1.95623" stroke-miterlimit="10" stroke-linecap="round" stroke-linejoin="round"/>
<path d="M97.6811 61.4256C97.6811 64.0339 94.812 66.251 91.1603 66.6422C92.2037 65.3381 92.8557 63.7731 93.1166 62.2081H88.9433C88.2912 62.2081 87.7695 61.6864 87.7695 61.0344C87.7695 60.3823 88.2912 59.8606 88.9433 59.8606H92.9861C92.7253 58.426 92.0732 57.2523 91.1603 56.209C94.812 56.6002 97.6811 58.8173 97.6811 61.4256Z" fill="white"/>
<path d="M120.634 60.7736C120.634 63.3819 117.765 65.5989 114.113 65.9902C115.157 64.686 115.809 63.121 116.07 61.5561H111.896C111.244 61.5561 110.723 61.0344 110.723 60.3823C110.723 59.7302 111.244 59.2086 111.896 59.2086H115.939C115.678 57.774 115.026 56.6003 114.113 55.5569C117.765 55.9482 120.634 58.1653 120.634 60.7736Z" fill="white"/>
</g>
<defs>
<clipPath id="clip0">
<rect width="221.706" height="292" fill="white"/>
</clipPath>
</defs>
</svg>
