<svg width="316" height="385" viewBox="0 0 316 385" fill="none" xmlns="http://www.w3.org/2000/svg">
<g clip-path="url(#clip0)">
<path d="M161.057 11.3207C159.989 11.3207 146.105 10.2527 146.105 10.2527L143.969 26.2729L159.989 27.3409L161.057 11.3207Z" stroke="#003684" stroke-width="3.20405" stroke-miterlimit="10" stroke-linecap="round" stroke-linejoin="round"/>
<path d="M259.315 66.8576L244.363 29.477L169.602 24.137L152.513 56.1774" stroke="#003684" stroke-width="3.20405" stroke-miterlimit="10" stroke-linecap="round" stroke-linejoin="round"/>
<path d="M247.566 61.5173L152.513 56.1772L152.086 63.7602L246.498 67.9254L247.566 61.5173Z" stroke="#003684" stroke-width="3.20405" stroke-miterlimit="10" stroke-linecap="round" stroke-linejoin="round"/>
<path d="M139.697 93.5578H152.086L152.513 56.2841L141.94 56.1772L139.697 93.5578Z" stroke="#003684" stroke-width="3.20405" stroke-miterlimit="10" stroke-linecap="round" stroke-linejoin="round"/>
<path d="M244.363 29.4771L230.799 60.6631" stroke="#003684" stroke-width="3.20405" stroke-miterlimit="10" stroke-linecap="round" stroke-linejoin="round"/>
<path d="M169.602 24.137L177.292 57.5659" stroke="#003684" stroke-width="3.20405" stroke-miterlimit="10" stroke-linecap="round" stroke-linejoin="round"/>
<path d="M208.69 66.2169L208.05 80.2079H199.292V65.8965" stroke="#003684" stroke-width="3.20405" stroke-miterlimit="10" stroke-linecap="round" stroke-linejoin="round"/>
<path d="M191.175 90.4607H230.798V97.83H191.175V90.4607Z" stroke="#003684" stroke-width="3.20405" stroke-miterlimit="10" stroke-linecap="round" stroke-linejoin="round"/>
<path d="M213.176 90.4607V97.83" stroke="#003684" stroke-width="3.20405" stroke-miterlimit="10" stroke-linecap="round" stroke-linejoin="round"/>
<path d="M231.76 80.208H239.663V106.802H231.76V80.208Z" stroke="#003684" stroke-width="3.20405" stroke-miterlimit="10" stroke-linecap="round" stroke-linejoin="round"/>
<path d="M211.147 84.2664C217.662 85.4412 223.215 87.5772 226.847 90.354H211.147V84.2664Z" stroke="#003684" stroke-width="3.20405" stroke-miterlimit="10" stroke-linecap="round" stroke-linejoin="round"/>
<path d="M194.165 83.6255V90.4608H191.068V97.8301H230.692V94.7328C231.332 95.9077 231.653 97.1893 231.653 98.4709C231.653 106.801 217.555 113.53 200.04 113.53C182.524 113.53 168.426 106.801 168.426 98.4709C168.64 91.1016 179.64 85.0139 194.165 83.6255Z" stroke="#003684" stroke-width="3.20405" stroke-miterlimit="10" stroke-linecap="round" stroke-linejoin="round"/>
<path d="M194.166 80.208H211.147V90.461H194.166V80.208Z" stroke="#003684" stroke-width="3.20405" stroke-miterlimit="10" stroke-linecap="round" stroke-linejoin="round"/>
<path d="M257.499 86.5092H275.655V66.8577H259.315L257.499 86.5092Z" stroke="#003684" stroke-width="3.20405" stroke-miterlimit="10" stroke-linecap="round" stroke-linejoin="round"/>
<path d="M259.315 66.8575L256.004 102.636L229.304 123.569L172.912 121.326L152.086 96.0144L152.513 56.2842" stroke="#003684" stroke-width="3.20405" stroke-miterlimit="10" stroke-linecap="round" stroke-linejoin="round"/>
<path d="M140.872 73.4795L140.338 83.6256L135.425 88.8589L131.153 84.2664L140.872 73.4795Z" stroke="#003684" stroke-width="3.20405" stroke-miterlimit="10" stroke-linecap="round" stroke-linejoin="round"/>
<path d="M107.656 229.196L109.792 198.224L282.704 210.933L281.209 242.226L107.656 229.196Z" stroke="#003684" stroke-width="3.20405" stroke-miterlimit="10" stroke-linecap="round" stroke-linejoin="round"/>
<path d="M128.696 97.5098C125.157 97.5098 122.288 94.6408 122.288 91.1017C122.288 87.5626 125.157 84.6936 128.696 84.6936C132.235 84.6936 135.104 87.5626 135.104 91.1017C135.104 94.6408 132.235 97.5098 128.696 97.5098Z" stroke="#003684" stroke-width="3.20405" stroke-miterlimit="10" stroke-linecap="round" stroke-linejoin="round"/>
<path d="M241.158 124.21L161.805 120.899L177.611 145.143L216.701 148.027L241.158 124.21Z" stroke="#003684" stroke-width="3.20405" stroke-miterlimit="10" stroke-linecap="round" stroke-linejoin="round"/>
<path d="M317.414 144.182L318.91 112.035C319.23 105.84 314.424 100.5 308.23 100.287C302.035 99.9662 296.695 104.772 296.481 110.967L293.598 145.784" stroke="#003684" stroke-width="3.20405" stroke-miterlimit="10" stroke-linecap="round" stroke-linejoin="round"/>
<path d="M275.655 86.5093V103.064C275.121 103.064 274.694 103.17 274.16 103.17C270.422 103.811 267.432 106.374 265.936 109.578H263.48V86.5093H275.655Z" stroke="#003684" stroke-width="3.20405" stroke-miterlimit="10" stroke-linecap="round" stroke-linejoin="round"/>
<path d="M292.85 145.784L287.296 112.248C286.228 106.161 280.354 102.102 274.16 103.17C268.072 104.238 264.014 110.112 265.082 116.307L271.276 148.561" stroke="#003684" stroke-width="3.20405" stroke-miterlimit="10" stroke-linecap="round" stroke-linejoin="round"/>
<path d="M316.026 161.911C316.026 161.911 314.744 165.115 311.434 167.999C305.773 172.912 296.802 170.242 294.452 163.086C293.171 159.027 294.345 154.649 297.443 151.765C304.064 145.891 315.919 138.415 325.531 149.415C339.736 165.649 330.765 187.65 318.269 191.602L324.784 212.855C325.745 215.953 329.91 216.273 331.299 213.389C334.396 207.088 338.561 194.379 341.872 169.174" stroke="#003684" stroke-width="3.20405" stroke-miterlimit="10" stroke-linecap="round" stroke-linejoin="round"/>
<path d="M294.239 162.445C293.812 172.164 284.733 179.64 269.568 168.212" stroke="#003684" stroke-width="3.20405" stroke-miterlimit="10" stroke-linecap="round" stroke-linejoin="round"/>
<path d="M297.764 146.532C297.764 146.532 294.026 144.609 289.754 146.532" stroke="#003684" stroke-width="3.20405" stroke-miterlimit="10" stroke-linecap="round" stroke-linejoin="round"/>
<path d="M283.559 194.593C293.278 215.205 302.356 228.342 308.337 235.818C310.259 238.274 312.716 240.197 315.386 241.585L281.209 242.226L283.559 194.593Z" stroke="#003684" stroke-width="3.20405" stroke-miterlimit="10" stroke-linecap="round" stroke-linejoin="round"/>
<path d="M287.617 114.277L292.957 10.8936L377.33 26.9138L378.398 243.721L334.823 242.333C335.678 241.905 336.532 241.478 337.387 240.944C365.796 222.895 364.941 167.678 364.941 167.678" stroke="#003684" stroke-width="3.20405" stroke-miterlimit="10" stroke-linecap="round" stroke-linejoin="round"/>
<path d="M293.918 158.173C293.598 156.785 293.171 155.396 292.53 154.114C291.355 151.658 288.899 149.842 285.908 148.774" stroke="#003684" stroke-width="3.20405" stroke-miterlimit="10" stroke-linecap="round" stroke-linejoin="round"/>
<path d="M364.941 167.571C364.941 167.571 365.796 222.788 337.386 240.837C333.862 243.08 329.803 244.148 325.638 244.148C318.91 244.148 312.502 241.051 308.229 235.818C301.715 227.701 291.675 213.176 281.102 189.573C281.102 189.573 264.12 191.495 257.606 169.28C251.091 147.066 286.335 141.832 292.316 154.114C292.957 155.396 293.384 156.784 293.704 158.173" stroke="#003684" stroke-width="3.20405" stroke-miterlimit="10" stroke-linecap="round" stroke-linejoin="round"/>
<path d="M211.575 175.047C208.743 175.047 206.448 171.27 206.448 166.61C206.448 161.95 208.743 158.173 211.575 158.173C214.406 158.173 216.701 161.95 216.701 166.61C216.701 171.27 214.406 175.047 211.575 175.047Z" fill="#003684"/>
<path d="M182.845 172.164C180.014 172.164 177.719 168.387 177.719 163.727C177.719 159.067 180.014 155.29 182.845 155.29C185.676 155.29 187.972 159.067 187.972 163.727C187.972 168.387 185.676 172.164 182.845 172.164Z" fill="#003684"/>
<path d="M225.031 178.786C220.759 189.786 210.079 197.69 197.583 197.69C185.087 197.69 174.407 189.893 170.135 178.786" stroke="#003684" stroke-width="3.20405" stroke-miterlimit="10" stroke-linecap="round"/>
<path d="M313.784 29.7975L300.433 27.3411" stroke="#003684" stroke-width="3.20405" stroke-miterlimit="10" stroke-linecap="round"/>
<path d="M313.463 41.1187L300.113 38.769" stroke="#003684" stroke-width="3.20405" stroke-miterlimit="10" stroke-linecap="round"/>
<path d="M313.035 51.3715L299.792 48.915" stroke="#003684" stroke-width="3.20405" stroke-miterlimit="10" stroke-linecap="round"/>
<path d="M312.181 61.0904L298.831 58.7407" stroke="#003684" stroke-width="3.20405" stroke-miterlimit="10" stroke-linecap="round"/>
<path d="M312.181 70.8094L298.831 68.4597" stroke="#003684" stroke-width="3.20405" stroke-miterlimit="10" stroke-linecap="round"/>
<path d="M128.376 97.8301C125.706 135.958 123.463 176.116 123.784 199.292" stroke="#003684" stroke-width="3.20405" stroke-miterlimit="10" stroke-linecap="round" stroke-linejoin="round"/>
<path d="M292.957 10.7867L136.172 1.60181C136.172 1.60181 132.648 40.1572 129.337 84.6934" stroke="#003684" stroke-width="3.20405" stroke-miterlimit="10" stroke-linecap="round" stroke-linejoin="round"/>
<path d="M245.324 208.263L243.829 239.342" stroke="#003684" stroke-width="3.20405" stroke-miterlimit="10" stroke-linecap="round" stroke-linejoin="round"/>
<path d="M269.567 265.829C269.567 265.829 272.985 265.936 277.898 264.654" stroke="#003684" stroke-width="3.20405" stroke-miterlimit="10" stroke-linecap="round" stroke-linejoin="round"/>
<path d="M186.689 311.754C186.689 311.754 184.767 307.588 181.99 304.812" stroke="#003684" stroke-width="3.20405" stroke-miterlimit="10" stroke-linecap="round" stroke-linejoin="round"/>
<path d="M212.428 277.898C198.544 269.14 184.767 255.576 174.941 234.323L203.777 236.459C203.777 236.459 208.37 248.527 225.565 257.178C222.574 263.266 218.409 270.421 212.428 277.898Z" stroke="#003684" stroke-width="3.20405" stroke-miterlimit="10" stroke-linecap="round" stroke-linejoin="round"/>
<path d="M246.712 264.12C253.333 265.295 260.916 266.043 269.567 265.936L271.49 262.411C275.548 255.042 282.704 250.022 290.927 248.634C304.384 246.391 317.414 254.401 321.473 267.538C327.56 287.189 335.891 320.084 341.765 367.504C342.726 375.621 336.959 382.884 328.842 383.738C317.201 385.02 305.452 381.602 296.481 374.126C281.743 362.057 263.693 338.134 264.227 293.384C264.227 293.384 251.518 293.811 234.963 288.578C240.41 279.82 244.148 271.383 246.712 264.12Z" stroke="#003684" stroke-width="3.20405" stroke-miterlimit="10" stroke-linecap="round" stroke-linejoin="round"/>
<path d="M181.99 304.812C170.776 287.296 149.416 273.626 130.619 264.227C109.472 253.654 84.5871 253.867 63.654 264.654L168.747 380.747C202.176 363.766 196.942 328.628 196.942 328.628C246.712 295.733 253.013 240.09 253.013 240.09L231.76 238.488C231.76 238.488 226.954 275.121 182.845 304.705L181.99 304.812Z" stroke="#003684" stroke-width="3.20405" stroke-miterlimit="10" stroke-linecap="round" stroke-linejoin="round"/>
<path d="M97.3685 339.387C67.503 306.752 51.0525 273.195 60.6254 264.434C70.1983 255.673 102.169 275.027 132.035 307.662C161.901 340.297 178.351 373.855 168.778 382.615C159.205 391.376 127.234 372.022 97.3685 339.387Z" fill="#003684"/>
<path d="M252.372 240.303L248.314 256.11L229.837 250.663L232.827 239.342L252.372 240.303Z" fill="#003684"/>
<path d="M254.402 265.829L255.256 291.568C255.256 291.568 240.411 292.102 236.78 287.616L246.926 264.654L254.402 265.829Z" fill="#003684"/>
<path d="M209.438 245.75L185.835 252.479C185.835 252.479 177.612 242.012 176.864 234.857L204.312 236.352L209.438 245.75Z" fill="#003684"/>
<path d="M32.5749 130.725C27.8757 130.618 23.39 131.793 19.6519 135.211C9.18537 144.93 21.0403 156.251 30.7593 160.63C34.7109 162.445 39.4102 160.95 41.6531 157.212C43.4687 154.115 43.1483 150.163 40.7986 147.386C38.5558 144.823 35.1381 141.939 30.0117 140.124" stroke="#003684" stroke-width="3.20405" stroke-miterlimit="10" stroke-linecap="round" stroke-linejoin="round"/>
<path d="M123.784 185.621C123.036 185.728 92.918 202.709 68.5673 176.436C68.5673 176.436 81.5971 152.619 60.3436 141.405C59.3823 140.871 58.5279 140.337 57.5667 139.803" stroke="#003684" stroke-width="3.20405" stroke-miterlimit="10" stroke-linecap="round" stroke-linejoin="round"/>
<path d="M14.9527 144.396L13.3507 145.357C6.51538 149.522 4.59293 158.707 9.39901 165.115C13.3507 170.455 19.1179 175.582 27.0213 176.863C30.4389 177.397 33.8566 175.688 35.5654 172.698C37.4878 169.173 36.6334 164.795 33.5362 162.231L32.3613 161.27" stroke="#003684" stroke-width="3.20405" stroke-miterlimit="10" stroke-linecap="round" stroke-linejoin="round"/>
<path d="M7.79689 162.125L6.62206 163.086C-0.213238 168.853 0.000365114 179.533 7.15607 184.98C9.93291 187.116 13.2438 188.932 17.0886 190.107C20.0791 190.961 23.3899 190 25.4191 187.544C28.0892 184.553 28.0892 180.067 25.6328 176.97L25.2055 176.436" stroke="#003684" stroke-width="3.20405" stroke-miterlimit="10" stroke-linecap="round" stroke-linejoin="round"/>
<path d="M14.5262 189.252C14.5262 189.252 31.6145 213.603 53.936 191.175" stroke="#003684" stroke-width="3.20405" stroke-miterlimit="10" stroke-linecap="round" stroke-linejoin="round"/>
<path d="M108.832 212.642C108.832 212.642 71.1306 221.934 51.5859 193.417" stroke="#003684" stroke-width="3.20405" stroke-miterlimit="10" stroke-linecap="round" stroke-linejoin="round"/>
<path d="M52.974 86.5093C47.9543 86.5093 43.255 88.2182 39.7306 91.1018C39.1966 89.2862 38.8762 87.4705 38.8762 85.4413C38.8762 74.7611 47.5271 66.0034 58.3141 66.0034C68.9942 66.0034 77.752 74.6543 77.752 85.4413C77.752 90.7814 75.6159 95.5875 72.1983 99.0051C69.4214 91.7426 61.8385 86.5093 52.974 86.5093Z" stroke="#003684" stroke-width="3.20405" stroke-miterlimit="10" stroke-linecap="round" stroke-linejoin="round"/>
<path d="M62.0518 111.074C62.3722 105.306 57.9934 100.5 52.3329 100.18" stroke="#003684" stroke-width="3.20405" stroke-miterlimit="10" stroke-linecap="round" stroke-linejoin="round"/>
<path d="M45.4976 104.772C45.0704 104.025 44.5364 103.491 44.0023 102.957" stroke="#003684" stroke-width="3.20405" stroke-miterlimit="10" stroke-linecap="round" stroke-linejoin="round"/>
<path d="M65.3629 107.656C64.0813 107.656 62.9065 107.977 61.8385 108.404C60.8773 103.704 56.712 100.073 51.6923 100.073C48.8087 100.073 46.2455 101.248 44.323 103.17C42.5074 101.248 39.9442 100.073 37.1673 100.073C35.7789 100.073 34.4973 100.394 33.2156 100.928C35.3517 92.5971 43.3618 86.4026 52.9739 86.4026C64.1881 86.4026 73.373 94.8399 73.373 105.306C73.373 107.336 73.0526 109.258 72.4118 111.074C70.703 109.045 68.1398 107.656 65.3629 107.656Z" stroke="#003684" stroke-width="3.20405" stroke-miterlimit="10" stroke-linecap="round" stroke-linejoin="round"/>
<path d="M60.8772 125.385C59.4888 124.21 58.1003 123.249 56.7119 122.395C55.9643 121.967 54.3623 121.113 53.4011 120.579C50.3038 119.084 47.3134 118.443 44.7501 118.122H44.6433C40.6917 117.695 37.5944 118.336 35.672 118.87C34.7108 119.19 33.9632 119.938 33.6428 120.899C29.6911 119.404 26.9143 115.452 26.9143 110.86C26.9143 104.879 31.5067 100.073 37.1672 100.073C39.9441 100.073 42.5073 101.141 44.3229 103.17C46.2454 101.248 48.8086 100.073 51.6922 100.073C56.7119 100.073 60.8772 103.597 61.8384 108.404C62.9064 107.87 64.0812 107.656 65.3628 107.656C70.5961 107.656 74.8682 112.248 74.8682 118.016C74.8682 123.783 70.5961 128.375 65.3628 128.375C64.188 128.375 63.0132 128.162 62.052 127.735C62.052 126.88 61.6248 126.026 60.8772 125.385Z" stroke="#003684" stroke-width="3.20405" stroke-miterlimit="10" stroke-linecap="round" stroke-linejoin="round"/>
<path d="M32.0412 140.764L33.3228 121.754C33.4296 120.472 34.2841 119.404 35.5657 118.977C39.7309 117.802 49.8771 116.414 60.8777 125.385C61.9457 126.239 62.2661 127.628 61.8389 128.909L37.8085 190.107C36.9541 192.243 34.7113 193.418 32.4684 192.99C30.1188 192.563 28.6236 190.427 28.7304 188.077L29.478 176.863" stroke="#003684" stroke-width="3.20405" stroke-miterlimit="10" stroke-linecap="round" stroke-linejoin="round"/>
<path d="M44.75 118.229L56.1777 143.221" stroke="#003684" stroke-width="3.20405" stroke-miterlimit="10" stroke-linecap="round" stroke-linejoin="round"/>
<path d="M32.5749 130.725L49.3428 160.63" stroke="#003684" stroke-width="3.20405" stroke-miterlimit="10" stroke-linecap="round" stroke-linejoin="round"/>
<path d="M61.8389 126.773L40.7989 145.357" stroke="#003684" stroke-width="3.20405" stroke-miterlimit="10" stroke-linecap="round" stroke-linejoin="round"/>
<path d="M48.2744 158.707L36.633 166.717" stroke="#003684" stroke-width="3.20405" stroke-miterlimit="10" stroke-linecap="round" stroke-linejoin="round"/>
<path d="M41.3325 181.242L28.7299 188.077" stroke="#003684" stroke-width="3.20405" stroke-miterlimit="10" stroke-linecap="round" stroke-linejoin="round"/>
<path d="M75.9365 77.1108C75.9365 77.1108 73.9073 79.5672 70.8101 84.9073C70.0624 86.2957 68.4604 86.9365 66.8584 86.6161C65.1496 86.1889 63.9748 84.6937 64.0816 82.9848L64.402 75.7223C64.402 75.1883 64.0815 74.7611 63.6543 74.6543C63.2271 74.4407 62.6931 74.6543 62.3727 74.9747L58.8483 79.0332C58.1007 79.8876 57.0327 80.3148 55.8578 80.208C54.3626 80.1012 53.081 78.9264 52.7606 77.538L52.013 74.4407C51.5858 72.6251 50.5178 71.1299 48.9157 70.1687L47.5273 69.3142C47.5273 69.3142 58.1007 62.1585 69.4217 69.5278C69.5285 69.5278 74.4413 72.6251 75.9365 77.1108Z" fill="#003684"/>
<path d="M112.142 190.427L111.502 198.437H123.784V186.369L112.142 190.427Z" fill="#003684"/>
</g>
<defs>
<clipPath id="clip0">
<rect width="380" height="385.447" fill="white" transform="matrix(-1 0 0 1 380 0)"/>
</clipPath>
</defs>
</svg>
