<svg width="837" height="951" viewBox="0 0 837 951" fill="none" xmlns="http://www.w3.org/2000/svg">
<path d="M133.971 211.63C46.8765 189.345 -16.4465 100.042 14.7686 11.7052" stroke="#C49A6C" stroke-width="4" stroke-dasharray="8 12"/>
<path d="M717.001 949C558.593 837.878 671.501 736 470 532" stroke="#C49A6C" stroke-width="4" stroke-dasharray="8 12"/>
<g clip-path="url(#clip0)">
<path d="M617.513 711.603C621.682 706.398 620.681 698.82 615.477 694.651C610.272 690.482 602.515 691.339 598.346 696.543C598.058 696.902 597.914 697.082 597.627 697.441C592.887 696.001 587.32 697.434 583.87 701.741C582.576 703.356 581.785 705.08 581.353 707.09C581.065 707.449 580.921 707.629 580.957 707.952L577.198 746.483C577.09 746.986 577.305 747.453 577.664 747.74L577.843 747.884L581.146 749.646C581.505 749.933 582.151 749.862 582.618 749.647L613.478 731.351C615.346 730.491 617.178 729.307 618.472 727.692C622.03 722.882 621.604 716.058 617.513 711.603Z" fill="#F8F2E3"/>
<path d="M582.286 708.133L578.526 746.664L581.829 748.426L614.521 728.947L582.286 708.133Z" stroke="#C49A6C" stroke-width="2.75936" stroke-miterlimit="10" stroke-linecap="round" stroke-linejoin="round"/>
<path d="M581.671 714.417C582.245 715.172 601.48 736.767 601.48 736.767" stroke="#C49A6C" stroke-width="2.75936" stroke-miterlimit="10" stroke-linecap="round" stroke-linejoin="round"/>
<path d="M590.881 743.009L580.511 730.577" stroke="#C49A6C" stroke-width="2.75936" stroke-miterlimit="10" stroke-linecap="round" stroke-linejoin="round"/>
<path d="M605.008 722.8L579.318 743.469" stroke="#C49A6C" stroke-width="2.75936" stroke-miterlimit="10" stroke-linecap="round" stroke-linejoin="round"/>
<path d="M594.274 715.969C594.131 716.149 580.153 728.817 580.153 728.817" stroke="#C49A6C" stroke-width="2.75936" stroke-miterlimit="10" stroke-linecap="round" stroke-linejoin="round"/>
<path d="M605.519 709.656C609.003 708.617 612.666 709.194 615.537 711.494L615.717 711.638C615.86 711.459 616.148 711.1 616.292 710.92C620.03 706.254 619.28 699.466 614.614 695.728C609.948 691.991 603.16 692.74 599.422 697.407C598.991 697.945 598.559 698.483 598.308 699.166C599.169 699.561 600.21 700.1 601.108 700.819C603.979 703.119 605.485 706.388 605.519 709.656Z" stroke="#C49A6C" stroke-width="2.75936" stroke-miterlimit="10" stroke-linecap="round" stroke-linejoin="round"/>
<path d="M599.911 719.6C600.989 718.99 602.031 718.057 602.893 716.98C606.919 711.955 606.133 704.844 601.108 700.819C596.083 696.794 588.972 697.579 584.947 702.604C583.653 704.219 582.897 706.266 582.465 708.277L599.911 719.6Z" stroke="#C49A6C" stroke-width="2.75936" stroke-miterlimit="10" stroke-linecap="round" stroke-linejoin="round"/>
<path d="M617.072 726.865C620.81 722.199 620.06 715.411 615.394 711.674C612.522 709.373 608.68 708.653 605.376 709.836C605.338 712.457 604.654 715.15 602.929 717.304C602.066 718.381 601.168 719.134 599.946 719.923L614.556 729.27L612.724 730.454C614.413 729.449 615.922 728.301 617.072 726.865Z" stroke="#C49A6C" stroke-width="2.75936" stroke-miterlimit="10" stroke-linecap="round" stroke-linejoin="round"/>
</g>
<defs>
<clipPath id="clip0">
<rect width="43" height="65.0749" fill="white" transform="translate(599.684 682) rotate(38.6965)"/>
</clipPath>
</defs>
</svg>
